SplineFontDB: 3.0
FontName: Asset
FullName: Asset
FamilyName: Asset
Weight: Book
Copyright: Copyright (c) 2011, Sorkin Type Co (www.sorkintype.com)\nwith Reserved Font Name "Asset".\n\nThis Font Software is licensed under the SIL Open Font License,\nVersion 1.1. This license is available with a FAQ at:\nhttp://scripts.sil.org/OFL
Version: 1.001
ItalicAngle: 0
UnderlinePosition: -265
UnderlineWidth: 181
Ascent: 1638
Descent: 410
LayerCount: 2
Layer: 0 1 "Back"  1
Layer: 1 1 "Fore"  0
XUID: [1021 631 1661839179 10572978]
FSType: 0
OS2Version: 3
OS2_WeightWidthSlopeOnly: 0
OS2_UseTypoMetrics: 1
CreationTime: 1308148860
ModificationTime: 1308558082
PfmFamily: 17
TTFWeight: 400
TTFWidth: 5
LineGap: 0
VLineGap: 0
Panose: 2 2 10 2 8 5 0 6 4 4
OS2TypoAscent: 333
OS2TypoAOffset: 1
OS2TypoDescent: -188
OS2TypoDOffset: 1
OS2TypoLinegap: 0
OS2WinAscent: 0
OS2WinAOffset: 1
OS2WinDescent: 0
OS2WinDOffset: 1
HheadAscent: 0
HheadAOffset: 1
HheadDescent: 0
HheadDOffset: 1
OS2SubXSize: 1434
OS2SubYSize: 1331
OS2SubXOff: 0
OS2SubYOff: 287
OS2SupXSize: 1434
OS2SupYSize: 1331
OS2SupXOff: 0
OS2SupYOff: 977
OS2StrikeYSize: 204
OS2StrikeYPos: 650
OS2Vendor: 'STC '
OS2CodePages: 00000001.00000000
OS2UnicodeRanges: 800000a7.00000002.00000000.00000000
DEI: 91125
TtTable: prep
PUSHW_1
 511
SCANCTRL
PUSHB_1
 4
SCANTYPE
EndTTInstrs
ShortTable: maxp 16
  1
  0
  237
  177
  5
  0
  0
  1
  0
  0
  0
  0
  0
  0
  0
  0
EndShort

StartChar: D
Encoding: 68 68 4
Width: 3336
Flags: W
LayerCount: 2
Fore
SplineSet
100 94 m 1,0,1
 250 99 250 99 349 129 c 128,-1,2
 448 159 448 159 507 225 c 128,-1,3
 566 291 566 291 590.5 398.5 c 128,-1,4
 615 506 615 506 615 668 c 0,5,6
 615 777 615 777 602.5 859 c 128,-1,7
 590 941 590 941 563.5 999.5 c 128,-1,8
 537 1058 537 1058 495.5 1096.5 c 128,-1,9
 454 1135 454 1135 397 1157 c 128,-1,10
 340 1179 340 1179 266 1188 c 128,-1,11
 192 1197 192 1197 100 1197 c 1,12,-1
 100 1291 l 1,13,-1
 1747 1291 l 2,14,15
 1929 1291 1929 1291 2109.5 1285 c 128,-1,16
 2290 1279 2290 1279 2455 1258 c 128,-1,17
 2620 1237 2620 1237 2762 1195.5 c 128,-1,18
 2904 1154 2904 1154 3008 1082.5 c 128,-1,19
 3112 1011 3112 1011 3171.5 905 c 128,-1,20
 3231 799 3231 799 3231 648 c 0,21,22
 3231 532 3231 532 3188.5 442 c 128,-1,23
 3146 352 3146 352 3071 284.5 c 128,-1,24
 2996 217 2996 217 2893.5 170 c 128,-1,25
 2791 123 2791 123 2670.5 91 c 128,-1,26
 2550 59 2550 59 2417 41 c 128,-1,27
 2284 23 2284 23 2147.5 14 c 128,-1,28
 2011 5 2011 5 1877 2.5 c 128,-1,29
 1743 0 1743 0 1621 0 c 2,30,-1
 100 0 l 1,31,-1
 100 94 l 1,0,1
1655 121 m 1,32,33
 1750 126 1750 126 1829.5 149 c 128,-1,34
 1909 172 1909 172 1966 229 c 128,-1,35
 2023 286 2023 286 2055 386.5 c 128,-1,36
 2087 487 2087 487 2087 648 c 0,37,38
 2087 762 2087 762 2073.5 845 c 128,-1,39
 2060 928 2060 928 2034 985.5 c 128,-1,40
 2008 1043 2008 1043 1970.5 1078.5 c 128,-1,41
 1933 1114 1933 1114 1885 1134 c 128,-1,42
 1837 1154 1837 1154 1779 1161.5 c 128,-1,43
 1721 1169 1721 1169 1655 1171 c 1,44,-1
 1655 121 l 1,32,33
EndSplineSet
Validated: 1
EndChar

StartChar: S
Encoding: 83 83 5
Width: 2840
Flags: W
LayerCount: 2
Fore
SplineSet
302 -57 m 1,0,1
 291 -36 291 -36 281 1.5 c 128,-1,2
 271 39 271 39 262.5 85 c 128,-1,3
 254 131 254 131 246.5 180.5 c 128,-1,4
 239 230 239 230 234 276.5 c 128,-1,5
 229 323 229 323 226.5 361.5 c 128,-1,6
 224 400 224 400 224 423 c 1,7,-1
 326 423 l 1,8,9
 359 356 359 356 413 304 c 128,-1,10
 467 252 467 252 536 213 c 128,-1,11
 605 174 605 174 686 147 c 128,-1,12
 767 120 767 120 854.5 103.5 c 128,-1,13
 942 87 942 87 1032.5 79.5 c 128,-1,14
 1123 72 1123 72 1211 72 c 0,15,16
 1355 72 1355 72 1451 84.5 c 128,-1,17
 1547 97 1547 97 1605 118.5 c 128,-1,18
 1663 140 1663 140 1687 169 c 128,-1,19
 1711 198 1711 198 1711 232 c 0,20,21
 1711 281 1711 281 1669 311.5 c 128,-1,22
 1627 342 1627 342 1554.5 360 c 128,-1,23
 1482 378 1482 378 1385.5 388 c 128,-1,24
 1289 398 1289 398 1180.5 406 c 128,-1,25
 1072 414 1072 414 958 423.5 c 128,-1,26
 844 433 844 433 735.5 451.5 c 128,-1,27
 627 470 627 470 530.5 500.5 c 128,-1,28
 434 531 434 531 361.5 580 c 128,-1,29
 289 629 289 629 247 700.5 c 128,-1,30
 205 772 205 772 205 873 c 0,31,32
 205 965 205 965 249 1035.5 c 128,-1,33
 293 1106 293 1106 371 1159 c 128,-1,34
 449 1212 449 1212 557 1248 c 128,-1,35
 665 1284 665 1284 792.5 1306 c 128,-1,36
 920 1328 920 1328 1062.5 1337.5 c 128,-1,37
 1205 1347 1205 1347 1353 1347 c 0,38,39
 1471 1347 1471 1347 1584 1340 c 128,-1,40
 1697 1333 1697 1333 1802.5 1325 c 128,-1,41
 1908 1317 1908 1317 2004.5 1310 c 128,-1,42
 2101 1303 2101 1303 2187 1303 c 0,43,44
 2241 1303 2241 1303 2281.5 1305 c 128,-1,45
 2322 1307 2322 1307 2360 1312 c 128,-1,46
 2398 1317 2398 1317 2437 1325.5 c 128,-1,47
 2476 1334 2476 1334 2527 1347 c 1,48,49
 2538 1325 2538 1325 2547.5 1291 c 128,-1,50
 2557 1257 2557 1257 2565.5 1216 c 128,-1,51
 2574 1175 2574 1175 2581 1131 c 128,-1,52
 2588 1087 2588 1087 2593 1046 c 128,-1,53
 2598 1005 2598 1005 2600.5 969.5 c 128,-1,54
 2603 934 2603 934 2603 911 c 1,55,-1
 2490 911 l 1,56,57
 2476 950 2476 950 2435.5 989 c 128,-1,58
 2395 1028 2395 1028 2332 1064 c 128,-1,59
 2269 1100 2269 1100 2187 1131 c 128,-1,60
 2105 1162 2105 1162 2008 1185 c 128,-1,61
 1911 1208 1911 1208 1802 1221 c 128,-1,62
 1693 1234 1693 1234 1577 1234 c 0,63,64
 1511 1234 1511 1234 1460.5 1222 c 128,-1,65
 1410 1210 1410 1210 1375 1190.5 c 128,-1,66
 1340 1171 1340 1171 1322 1145.5 c 128,-1,67
 1304 1120 1304 1120 1304 1093 c 0,68,69
 1304 1034 1304 1034 1344 996.5 c 128,-1,70
 1384 959 1384 959 1453 936.5 c 128,-1,71
 1522 914 1522 914 1613.5 902 c 128,-1,72
 1705 890 1705 890 1808.5 881 c 128,-1,73
 1912 872 1912 872 2020.5 862 c 128,-1,74
 2129 852 2129 852 2232.5 833.5 c 128,-1,75
 2336 815 2336 815 2427.5 784 c 128,-1,76
 2519 753 2519 753 2588 702 c 128,-1,77
 2657 651 2657 651 2697 575.5 c 128,-1,78
 2737 500 2737 500 2737 393 c 0,79,80
 2737 295 2737 295 2691 223.5 c 128,-1,81
 2645 152 2645 152 2563.5 102 c 128,-1,82
 2482 52 2482 52 2371 21 c 128,-1,83
 2260 -10 2260 -10 2131 -27.5 c 128,-1,84
 2002 -45 2002 -45 1860 -51 c 128,-1,85
 1718 -57 1718 -57 1574 -57 c 0,86,87
 1446 -57 1446 -57 1333 -50 c 128,-1,88
 1220 -43 1220 -43 1109 -35 c 128,-1,89
 998 -27 998 -27 883.5 -20 c 128,-1,90
 769 -13 769 -13 639 -13 c 0,91,92
 586 -13 586 -13 545.5 -15 c 128,-1,93
 505 -17 505 -17 467.5 -22 c 128,-1,94
 430 -27 430 -27 391 -35.5 c 128,-1,95
 352 -44 352 -44 302 -57 c 1,0,1
EndSplineSet
Validated: 1
EndChar

StartChar: O
Encoding: 79 79 6
Width: 3023
Flags: W
LayerCount: 2
Fore
SplineSet
105 645 m 256,0,1
 105 792 105 792 161.5 901 c 128,-1,2
 218 1010 218 1010 316.5 1088 c 128,-1,3
 415 1166 415 1166 549.5 1216 c 128,-1,4
 684 1266 684 1266 840 1295.5 c 128,-1,5
 996 1325 996 1325 1167.5 1336 c 128,-1,6
 1339 1347 1339 1347 1511 1347 c 256,7,8
 1683 1347 1683 1347 1854.5 1336 c 128,-1,9
 2026 1325 2026 1325 2182.5 1295.5 c 128,-1,10
 2339 1266 2339 1266 2473.5 1216 c 128,-1,11
 2608 1166 2608 1166 2706.5 1088 c 128,-1,12
 2805 1010 2805 1010 2861.5 901 c 128,-1,13
 2918 792 2918 792 2918 645 c 256,14,15
 2918 498 2918 498 2861.5 389 c 128,-1,16
 2805 280 2805 280 2706.5 202 c 128,-1,17
 2608 124 2608 124 2473.5 74 c 128,-1,18
 2339 24 2339 24 2182.5 -5.5 c 128,-1,19
 2026 -35 2026 -35 1854.5 -46 c 128,-1,20
 1683 -57 1683 -57 1511 -57 c 256,21,22
 1339 -57 1339 -57 1167.5 -46 c 128,-1,23
 996 -35 996 -35 840 -5.5 c 128,-1,24
 684 24 684 24 549.5 74 c 128,-1,25
 415 124 415 124 316.5 202 c 128,-1,26
 218 280 218 280 161.5 389 c 128,-1,27
 105 498 105 498 105 645 c 256,0,1
1270 645 m 0,28,29
 1270 519 1270 519 1279.5 411 c 128,-1,30
 1289 303 1289 303 1315 224.5 c 128,-1,31
 1341 146 1341 146 1387 101 c 128,-1,32
 1433 56 1433 56 1506 56 c 256,33,34
 1579 56 1579 56 1626.5 101 c 128,-1,35
 1674 146 1674 146 1702 224.5 c 128,-1,36
 1730 303 1730 303 1741.5 411 c 128,-1,37
 1753 519 1753 519 1753 645 c 256,38,39
 1753 771 1753 771 1741.5 879 c 128,-1,40
 1730 987 1730 987 1702 1066 c 128,-1,41
 1674 1145 1674 1145 1626.5 1189.5 c 128,-1,42
 1579 1234 1579 1234 1506 1234 c 0,43,44
 1457 1234 1457 1234 1420.5 1211 c 128,-1,45
 1384 1188 1384 1188 1358 1147.5 c 128,-1,46
 1332 1107 1332 1107 1315 1051 c 128,-1,47
 1298 995 1298 995 1288 929.5 c 128,-1,48
 1278 864 1278 864 1274 791.5 c 128,-1,49
 1270 719 1270 719 1270 645 c 0,28,29
EndSplineSet
Validated: 1
EndChar

StartChar: A
Encoding: 65 65 7
Width: 3186
Flags: W
LayerCount: 2
Fore
SplineSet
70 94 m 1,0,1
 99 94 99 94 149 111 c 128,-1,2
 199 128 199 128 259 165.5 c 128,-1,3
 319 203 319 203 384 262 c 128,-1,4
 449 321 449 321 509 406 c 2,5,-1
 1131 1291 l 1,6,-1
 2140 1291 l 1,7,-1
 2685 428 l 2,8,9
 2742 338 2742 338 2809 274.5 c 128,-1,10
 2876 211 2876 211 2941.5 171 c 128,-1,11
 3007 131 3007 131 3064.5 112.5 c 128,-1,12
 3122 94 3122 94 3161 94 c 1,13,-1
 3161 0 l 1,14,-1
 1240 0 l 1,15,-1
 1240 94 l 1,16,17
 1284 94 1284 94 1327.5 106 c 128,-1,18
 1371 118 1371 118 1405.5 142.5 c 128,-1,19
 1440 167 1440 167 1461 204 c 128,-1,20
 1482 241 1482 241 1482 291 c 0,21,22
 1482 312 1482 312 1472 346 c 1,23,-1
 675 346 l 1,24,25
 670 332 670 332 668 321 c 128,-1,26
 666 310 666 310 666 300 c 0,27,28
 666 249 666 249 687 210.5 c 128,-1,29
 708 172 708 172 742.5 146 c 128,-1,30
 777 120 777 120 820.5 107 c 128,-1,31
 864 94 864 94 909 94 c 1,32,-1
 909 0 l 1,33,-1
 70 0 l 1,34,-1
 70 94 l 1,0,1
1412 485 m 1,35,36
 1391 525 1391 525 1363 577.5 c 128,-1,37
 1335 630 1335 630 1297 697 c 128,-1,38
 1259 764 1259 764 1211.5 847 c 128,-1,39
 1164 930 1164 930 1104 1032 c 1,40,41
 1035 928 1035 928 979 844 c 128,-1,42
 923 760 923 760 879.5 693 c 128,-1,43
 836 626 836 626 803.5 575 c 128,-1,44
 771 524 771 524 748 485 c 1,45,-1
 1412 485 l 1,35,36
EndSplineSet
Validated: 1
EndChar

StartChar: I
Encoding: 73 73 8
Width: 2269
Flags: W
LayerCount: 2
Fore
SplineSet
100 94 m 1,0,1
 250 99 250 99 349 129 c 128,-1,2
 448 159 448 159 507 225 c 128,-1,3
 566 291 566 291 590.5 398.5 c 128,-1,4
 615 506 615 506 615 668 c 0,5,6
 615 777 615 777 602.5 859 c 128,-1,7
 590 941 590 941 563.5 999.5 c 128,-1,8
 537 1058 537 1058 495.5 1096.5 c 128,-1,9
 454 1135 454 1135 397 1157 c 128,-1,10
 340 1179 340 1179 266 1188 c 128,-1,11
 192 1197 192 1197 100 1197 c 1,12,-1
 100 1291 l 1,13,-1
 2169 1291 l 1,14,-1
 2169 1197 l 1,15,16
 2031 1197 2031 1197 1933.5 1176 c 128,-1,17
 1836 1155 1836 1155 1774 1096.5 c 128,-1,18
 1712 1038 1712 1038 1683.5 935 c 128,-1,19
 1655 832 1655 832 1655 668 c 0,20,21
 1655 506 1655 506 1679 398.5 c 128,-1,22
 1703 291 1703 291 1762 225 c 128,-1,23
 1821 159 1821 159 1920 129 c 128,-1,24
 2019 99 2019 99 2169 94 c 1,25,-1
 2169 0 l 1,26,-1
 100 0 l 1,27,-1
 100 94 l 1,0,1
EndSplineSet
Validated: 1
EndChar

StartChar: i
Encoding: 105 105 9
Width: 1898
Flags: W
LayerCount: 2
Fore
SplineSet
467 1451 m 0,0,1
 467 1502 467 1502 507.5 1546.5 c 128,-1,2
 548 1591 548 1591 617.5 1624 c 128,-1,3
 687 1657 687 1657 780.5 1676 c 128,-1,4
 874 1695 874 1695 979 1695 c 0,5,6
 1085 1695 1085 1695 1178.5 1676 c 128,-1,7
 1272 1657 1272 1657 1342 1624 c 128,-1,8
 1412 1591 1412 1591 1452 1546.5 c 128,-1,9
 1492 1502 1492 1502 1492 1451 c 0,10,11
 1492 1401 1492 1401 1452 1357 c 128,-1,12
 1412 1313 1412 1313 1342 1280 c 128,-1,13
 1272 1247 1272 1247 1178.5 1228 c 128,-1,14
 1085 1209 1085 1209 979 1209 c 0,15,16
 874 1209 874 1209 780.5 1228 c 128,-1,17
 687 1247 687 1247 617.5 1280 c 128,-1,18
 548 1313 548 1313 507.5 1357 c 128,-1,19
 467 1401 467 1401 467 1451 c 0,0,1
75 94 m 1,20,21
 213 99 213 99 307.5 129 c 128,-1,22
 402 159 402 159 460.5 212 c 128,-1,23
 519 265 519 265 545 341 c 128,-1,24
 571 417 571 417 571 515 c 0,25,26
 571 615 571 615 545 686.5 c 128,-1,27
 519 758 519 758 463 803.5 c 128,-1,28
 407 849 407 849 319.5 870 c 128,-1,29
 232 891 232 891 108 891 c 1,30,-1
 108 985 l 1,31,-1
 1450 1075 l 1,32,-1
 1450 515 l 2,33,34
 1450 417 1450 417 1467 341 c 128,-1,35
 1484 265 1484 265 1531.5 212 c 128,-1,36
 1579 159 1579 159 1663.5 129 c 128,-1,37
 1748 99 1748 99 1883 94 c 1,38,-1
 1883 0 l 1,39,-1
 75 0 l 1,40,-1
 75 94 l 1,20,21
EndSplineSet
Validated: 1
EndChar

StartChar: n
Encoding: 110 110 10
Width: 3074
Flags: W
LayerCount: 2
Fore
SplineSet
75 94 m 1,0,1
 200 99 200 99 288 126 c 128,-1,2
 376 153 376 153 431.5 203 c 128,-1,3
 487 253 487 253 512.5 326 c 128,-1,4
 538 399 538 399 538 497 c 0,5,6
 538 620 538 620 512 695.5 c 128,-1,7
 486 771 486 771 430 812 c 128,-1,8
 374 853 374 853 286.5 867 c 128,-1,9
 199 881 199 881 75 881 c 1,10,-1
 75 975 l 1,11,-1
 1417 1065 l 1,12,-1
 1417 900 l 1,13,14
 1507 940 1507 940 1601.5 975 c 128,-1,15
 1696 1010 1696 1010 1794.5 1036 c 128,-1,16
 1893 1062 1893 1062 1995 1077 c 128,-1,17
 2097 1092 2097 1092 2204 1092 c 0,18,19
 2259 1092 2259 1092 2316 1088 c 128,-1,20
 2373 1084 2373 1084 2427.5 1068.5 c 128,-1,21
 2482 1053 2482 1053 2530 1022.5 c 128,-1,22
 2578 992 2578 992 2613.5 938.5 c 128,-1,23
 2649 885 2649 885 2670 805 c 128,-1,24
 2691 725 2691 725 2691 612 c 0,25,26
 2691 574 2691 574 2688.5 534.5 c 128,-1,27
 2686 495 2686 495 2686 448 c 0,28,29
 2686 360 2686 360 2695 293.5 c 128,-1,30
 2704 227 2704 227 2740.5 183 c 128,-1,31
 2777 139 2777 139 2852 116.5 c 128,-1,32
 2927 94 2927 94 3059 94 c 1,33,-1
 3059 0 l 1,34,-1
 1653 0 l 1,35,-1
 1653 76 l 1,36,37
 1685 97 1685 97 1707 131.5 c 128,-1,38
 1729 166 1729 166 1742.5 216 c 128,-1,39
 1756 266 1756 266 1762 333.5 c 128,-1,40
 1768 401 1768 401 1768 488 c 0,41,42
 1768 599 1768 599 1752.5 665 c 128,-1,43
 1737 731 1737 731 1710 765.5 c 128,-1,44
 1683 800 1683 800 1646.5 810 c 128,-1,45
 1610 820 1610 820 1568 820 c 0,46,47
 1533 820 1533 820 1494.5 812.5 c 128,-1,48
 1456 805 1456 805 1417 792 c 1,49,-1
 1417 470 l 2,50,51
 1417 383 1417 383 1423 318.5 c 128,-1,52
 1429 254 1429 254 1442.5 207 c 128,-1,53
 1456 160 1456 160 1478 128.5 c 128,-1,54
 1500 97 1500 97 1532 76 c 1,55,-1
 1532 0 l 1,56,-1
 75 0 l 1,57,-1
 75 94 l 1,0,1
EndSplineSet
Validated: 1
EndChar

StartChar: o
Encoding: 111 111 11
Width: 2627
Flags: W
LayerCount: 2
Fore
SplineSet
113 523 m 0,0,1
 113 668 113 668 199.5 775.5 c 128,-1,2
 286 883 286 883 444 953.5 c 128,-1,3
 602 1024 602 1024 823 1058.5 c 128,-1,4
 1044 1093 1044 1093 1314 1093 c 0,5,6
 1583 1093 1583 1093 1804.5 1058.5 c 128,-1,7
 2026 1024 2026 1024 2183.5 953.5 c 128,-1,8
 2341 883 2341 883 2427.5 775.5 c 128,-1,9
 2514 668 2514 668 2514 523 c 0,10,11
 2514 379 2514 379 2427.5 272 c 128,-1,12
 2341 165 2341 165 2183.5 94.5 c 128,-1,13
 2026 24 2026 24 1804.5 -10.5 c 128,-1,14
 1583 -45 1583 -45 1314 -45 c 0,15,16
 1044 -45 1044 -45 823 -10.5 c 128,-1,17
 602 24 602 24 444 94.5 c 128,-1,18
 286 165 286 165 199.5 272 c 128,-1,19
 113 379 113 379 113 523 c 0,0,1
1110 523 m 0,20,21
 1110 430 1110 430 1124 346 c 128,-1,22
 1138 262 1138 262 1164.5 198.5 c 128,-1,23
 1191 135 1191 135 1228.5 97.5 c 128,-1,24
 1266 60 1266 60 1314 60 c 0,25,26
 1361 60 1361 60 1398.5 97.5 c 128,-1,27
 1436 135 1436 135 1462.5 198.5 c 128,-1,28
 1489 262 1489 262 1503 346 c 128,-1,29
 1517 430 1517 430 1517 523 c 0,30,31
 1517 617 1517 617 1503 701.5 c 128,-1,32
 1489 786 1489 786 1462.5 850 c 128,-1,33
 1436 914 1436 914 1398.5 952 c 128,-1,34
 1361 990 1361 990 1314 990 c 0,35,36
 1266 990 1266 990 1228.5 952 c 128,-1,37
 1191 914 1191 914 1164.5 850 c 128,-1,38
 1138 786 1138 786 1124 701.5 c 128,-1,39
 1110 617 1110 617 1110 523 c 0,20,21
EndSplineSet
Validated: 1
EndChar

StartChar: a
Encoding: 97 97 12
Width: 2853
Flags: W
LayerCount: 2
Fore
SplineSet
125 221 m 0,0,1
 125 309 125 309 179 367 c 128,-1,2
 233 425 233 425 322 458.5 c 128,-1,3
 411 492 411 492 525.5 505.5 c 128,-1,4
 640 519 640 519 761 519 c 0,5,6
 868 519 868 519 971 517 c 128,-1,7
 1074 515 1074 515 1165.5 511.5 c 128,-1,8
 1257 508 1257 508 1332 503 c 128,-1,9
 1407 498 1407 498 1458 492 c 1,10,-1
 1458 709 l 2,11,12
 1458 789 1458 789 1435.5 844 c 128,-1,13
 1413 899 1413 899 1366.5 932.5 c 128,-1,14
 1320 966 1320 966 1248 981 c 128,-1,15
 1176 996 1176 996 1078 996 c 0,16,17
 1007 996 1007 996 935.5 994 c 128,-1,18
 864 992 864 992 804 988 c 1,19,20
 898 988 898 988 976 974.5 c 128,-1,21
 1054 961 1054 961 1110 936 c 128,-1,22
 1166 911 1166 911 1196.5 875.5 c 128,-1,23
 1227 840 1227 840 1227 796 c 0,24,25
 1227 746 1227 746 1191 708.5 c 128,-1,26
 1155 671 1155 671 1092.5 646 c 128,-1,27
 1030 621 1030 621 945.5 608 c 128,-1,28
 861 595 861 595 764 595 c 0,29,30
 675 595 675 595 594.5 612 c 128,-1,31
 514 629 514 629 452 658.5 c 128,-1,32
 390 688 390 688 353.5 728.5 c 128,-1,33
 317 769 317 769 317 816 c 0,34,35
 317 865 317 865 355.5 905 c 128,-1,36
 394 945 394 945 459.5 975.5 c 128,-1,37
 525 1006 525 1006 611.5 1028 c 128,-1,38
 698 1050 698 1050 794.5 1064.5 c 128,-1,39
 891 1079 891 1079 992 1085.5 c 128,-1,40
 1093 1092 1093 1092 1187 1092 c 0,41,42
 1326 1092 1326 1092 1468 1089.5 c 128,-1,43
 1610 1087 1610 1087 1742 1075 c 128,-1,44
 1874 1063 1874 1063 1990 1038 c 128,-1,45
 2106 1013 2106 1013 2192 968 c 128,-1,46
 2278 923 2278 923 2327.5 855 c 128,-1,47
 2377 787 2377 787 2377 688 c 2,48,-1
 2377 449 l 2,49,50
 2377 356 2377 356 2389.5 298.5 c 128,-1,51
 2402 241 2402 241 2424 209.5 c 128,-1,52
 2446 178 2446 178 2476 167.5 c 128,-1,53
 2506 157 2506 157 2540 157 c 0,54,55
 2571 157 2571 157 2599 169.5 c 128,-1,56
 2627 182 2627 182 2649 207 c 128,-1,57
 2671 232 2671 232 2685 269.5 c 128,-1,58
 2699 307 2699 307 2701 356 c 1,59,-1
 2814 356 l 1,60,61
 2814 266 2814 266 2787 201.5 c 128,-1,62
 2760 137 2760 137 2711.5 92 c 128,-1,63
 2663 47 2663 47 2596 20.5 c 128,-1,64
 2529 -6 2529 -6 2449.5 -21 c 128,-1,65
 2370 -36 2370 -36 2281 -40.5 c 128,-1,66
 2192 -45 2192 -45 2099 -45 c 0,67,68
 1986 -45 1986 -45 1890.5 -40 c 128,-1,69
 1795 -35 1795 -35 1719 -18.5 c 128,-1,70
 1643 -2 1643 -2 1588 29 c 128,-1,71
 1533 60 1533 60 1501 112 c 1,72,73
 1459 83 1459 83 1394.5 55 c 128,-1,74
 1330 27 1330 27 1233.5 4.5 c 128,-1,75
 1137 -18 1137 -18 1003 -31.5 c 128,-1,76
 869 -45 869 -45 689 -45 c 0,77,78
 571 -45 571 -45 468.5 -27 c 128,-1,79
 366 -9 366 -9 289.5 25 c 128,-1,80
 213 59 213 59 169 108.5 c 128,-1,81
 125 158 125 158 125 221 c 0,0,1
1010 270 m 0,82,83
 1010 250 1010 250 1018.5 227.5 c 128,-1,84
 1027 205 1027 205 1046.5 186 c 128,-1,85
 1066 167 1066 167 1097.5 154.5 c 128,-1,86
 1129 142 1129 142 1176 142 c 0,87,88
 1203 142 1203 142 1235.5 143 c 128,-1,89
 1268 144 1268 144 1305 148.5 c 128,-1,90
 1342 153 1342 153 1383 163 c 128,-1,91
 1424 173 1424 173 1468 191 c 1,92,93
 1458 232 1458 232 1458 289 c 2,94,-1
 1458 396 l 1,95,96
 1415 398 1415 398 1371 398.5 c 128,-1,97
 1327 399 1327 399 1286 399 c 0,98,99
 1218 399 1218 399 1166 394 c 128,-1,100
 1114 389 1114 389 1079.5 374.5 c 128,-1,101
 1045 360 1045 360 1027.5 335 c 128,-1,102
 1010 310 1010 310 1010 270 c 0,82,83
EndSplineSet
Validated: 1
EndChar

StartChar: e
Encoding: 101 101 13
Width: 2515
Flags: W
LayerCount: 2
Fore
SplineSet
113 498 m 0,0,1
 113 599 113 599 156 682.5 c 128,-1,2
 199 766 199 766 277.5 832 c 128,-1,3
 356 898 356 898 468 947 c 128,-1,4
 580 996 580 996 717.5 1028 c 128,-1,5
 855 1060 855 1060 1015 1076 c 128,-1,6
 1175 1092 1175 1092 1351 1092 c 0,7,8
 1586 1092 1586 1092 1777 1059 c 128,-1,9
 1968 1026 1968 1026 2103.5 956.5 c 128,-1,10
 2239 887 2239 887 2313 778 c 128,-1,11
 2387 669 2387 669 2387 517 c 1,12,-1
 1083 517 l 1,13,14
 1090 401 1090 401 1122.5 321 c 128,-1,15
 1155 241 1155 241 1216.5 191.5 c 128,-1,16
 1278 142 1278 142 1369 120.5 c 128,-1,17
 1460 99 1460 99 1583 99 c 0,18,19
 1660 99 1660 99 1739.5 106.5 c 128,-1,20
 1819 114 1819 114 1894 129.5 c 128,-1,21
 1969 145 1969 145 2035 167.5 c 128,-1,22
 2101 190 2101 190 2150 220.5 c 128,-1,23
 2199 251 2199 251 2227.5 288.5 c 128,-1,24
 2256 326 2256 326 2256 371 c 1,25,-1
 2387 371 l 1,26,27
 2387 297 2387 297 2347.5 238 c 128,-1,28
 2308 179 2308 179 2238 132.5 c 128,-1,29
 2168 86 2168 86 2072.5 52.5 c 128,-1,30
 1977 19 1977 19 1864.5 -2.5 c 128,-1,31
 1752 -24 1752 -24 1628 -34.5 c 128,-1,32
 1504 -45 1504 -45 1377 -45 c 0,33,34
 1090 -45 1090 -45 856.5 -17 c 128,-1,35
 623 11 623 11 458 75 c 128,-1,36
 293 139 293 139 203 242.5 c 128,-1,37
 113 346 113 346 113 498 c 0,0,1
1487 629 m 1,38,39
 1487 720 1487 720 1472.5 784.5 c 128,-1,40
 1458 849 1458 849 1433.5 890 c 128,-1,41
 1409 931 1409 931 1375 950.5 c 128,-1,42
 1341 970 1341 970 1302 970 c 0,43,44
 1259 970 1259 970 1220.5 950.5 c 128,-1,45
 1182 931 1182 931 1152.5 889.5 c 128,-1,46
 1123 848 1123 848 1104.5 783.5 c 128,-1,47
 1086 719 1086 719 1082 629 c 1,48,-1
 1487 629 l 1,38,39
EndSplineSet
Validated: 1
EndChar

StartChar: d
Encoding: 100 100 14
Width: 2807
Flags: W
LayerCount: 2
Fore
SplineSet
113 522 m 0,0,1
 113 669 113 669 173 776.5 c 128,-1,2
 233 884 233 884 336 954 c 128,-1,3
 439 1024 439 1024 575.5 1058 c 128,-1,4
 712 1092 712 1092 864 1092 c 0,5,6
 979 1092 979 1092 1071.5 1083 c 128,-1,7
 1164 1074 1164 1074 1239.5 1056 c 128,-1,8
 1315 1038 1315 1038 1376.5 1012 c 128,-1,9
 1438 986 1438 986 1492 953 c 1,10,-1
 1492 976 l 2,11,12
 1492 1076 1492 1076 1466 1140.5 c 128,-1,13
 1440 1205 1440 1205 1384 1242 c 128,-1,14
 1328 1279 1328 1279 1240.5 1293 c 128,-1,15
 1153 1307 1153 1307 1029 1307 c 1,16,-1
 1029 1400 l 1,17,-1
 2391 1490 l 1,18,-1
 2391 468 l 2,19,20
 2391 403 2391 403 2395 350.5 c 128,-1,21
 2399 298 2399 298 2413 257.5 c 128,-1,22
 2427 217 2427 217 2453 187.5 c 128,-1,23
 2479 158 2479 158 2522.5 138 c 128,-1,24
 2566 118 2566 118 2629.5 106.5 c 128,-1,25
 2693 95 2693 95 2783 92 c 1,26,-1
 2783 -2 l 1,27,28
 2715 -2 2715 -2 2619 -3 c 128,-1,29
 2523 -4 2523 -4 2414.5 -6 c 128,-1,30
 2306 -8 2306 -8 2193 -10 c 128,-1,31
 2080 -12 2080 -12 1977.5 -14 c 128,-1,32
 1875 -16 1875 -16 1790 -17 c 128,-1,33
 1705 -18 1705 -18 1654 -18 c 0,34,35
 1632 -18 1632 -18 1610.5 -7 c 128,-1,36
 1589 4 1589 4 1570.5 22.5 c 128,-1,37
 1552 41 1552 41 1536 65.5 c 128,-1,38
 1520 90 1520 90 1510 117 c 1,39,40
 1473 83 1473 83 1422.5 53.5 c 128,-1,41
 1372 24 1372 24 1297.5 2 c 128,-1,42
 1223 -20 1223 -20 1118.5 -32.5 c 128,-1,43
 1014 -45 1014 -45 870 -45 c 0,44,45
 699 -45 699 -45 559 0.5 c 128,-1,46
 419 46 419 46 320 123.5 c 128,-1,47
 221 201 221 201 167 304 c 128,-1,48
 113 407 113 407 113 522 c 0,0,1
1085 526 m 0,49,50
 1085 433 1085 433 1092.5 359 c 128,-1,51
 1100 285 1100 285 1119 233 c 128,-1,52
 1138 181 1138 181 1169 153.5 c 128,-1,53
 1200 126 1200 126 1248 126 c 0,54,55
 1326 126 1326 126 1391 158.5 c 128,-1,56
 1456 191 1456 191 1492 246 c 1,57,-1
 1492 824 l 1,58,59
 1458 855 1458 855 1423 876.5 c 128,-1,60
 1388 898 1388 898 1354.5 911 c 128,-1,61
 1321 924 1321 924 1291 929.5 c 128,-1,62
 1261 935 1261 935 1236 935 c 0,63,64
 1156 935 1156 935 1120.5 834 c 128,-1,65
 1085 733 1085 733 1085 526 c 0,49,50
EndSplineSet
Validated: 1
EndChar

StartChar: h
Encoding: 104 104 15
Width: 3034
Flags: W
LayerCount: 2
Fore
SplineSet
75 94 m 1,0,1
 165 97 165 97 232 109 c 128,-1,2
 299 121 299 121 347 147 c 128,-1,3
 395 173 395 173 426 216 c 128,-1,4
 457 259 457 259 475.5 325.5 c 128,-1,5
 494 392 494 392 501 485.5 c 128,-1,6
 508 579 508 579 508 704 c 0,7,8
 508 894 508 894 482 1012 c 128,-1,9
 456 1130 456 1130 400 1195.5 c 128,-1,10
 344 1261 344 1261 256.5 1284 c 128,-1,11
 169 1307 169 1307 45 1307 c 1,12,-1
 45 1400 l 1,13,-1
 1387 1490 l 1,14,-1
 1387 900 l 1,15,16
 1477 940 1477 940 1571.5 975 c 128,-1,17
 1666 1010 1666 1010 1764.5 1036 c 128,-1,18
 1863 1062 1863 1062 1965 1077 c 128,-1,19
 2067 1092 2067 1092 2174 1092 c 0,20,21
 2229 1092 2229 1092 2286 1088 c 128,-1,22
 2343 1084 2343 1084 2397.5 1068.5 c 128,-1,23
 2452 1053 2452 1053 2500 1022.5 c 128,-1,24
 2548 992 2548 992 2583.5 938.5 c 128,-1,25
 2619 885 2619 885 2640 805 c 128,-1,26
 2661 725 2661 725 2661 612 c 0,27,28
 2661 574 2661 574 2658.5 534.5 c 128,-1,29
 2656 495 2656 495 2656 448 c 0,30,31
 2656 389 2656 389 2658.5 340 c 128,-1,32
 2661 291 2661 291 2672 251.5 c 128,-1,33
 2683 212 2683 212 2705.5 182.5 c 128,-1,34
 2728 153 2728 153 2768.5 133.5 c 128,-1,35
 2809 114 2809 114 2870 104 c 128,-1,36
 2931 94 2931 94 3019 94 c 1,37,-1
 3019 0 l 1,38,-1
 1623 0 l 1,39,-1
 1623 76 l 1,40,41
 1655 97 1655 97 1677 131.5 c 128,-1,42
 1699 166 1699 166 1712.5 216 c 128,-1,43
 1726 266 1726 266 1732 333.5 c 128,-1,44
 1738 401 1738 401 1738 488 c 0,45,46
 1738 599 1738 599 1722.5 665 c 128,-1,47
 1707 731 1707 731 1680 765.5 c 128,-1,48
 1653 800 1653 800 1616.5 810 c 128,-1,49
 1580 820 1580 820 1538 820 c 0,50,51
 1503 820 1503 820 1464.5 812.5 c 128,-1,52
 1426 805 1426 805 1387 792 c 1,53,-1
 1387 470 l 2,54,55
 1387 383 1387 383 1393 318.5 c 128,-1,56
 1399 254 1399 254 1412.5 207 c 128,-1,57
 1426 160 1426 160 1448 128.5 c 128,-1,58
 1470 97 1470 97 1502 76 c 1,59,-1
 1502 0 l 1,60,-1
 75 0 l 1,61,-1
 75 94 l 1,0,1
EndSplineSet
Validated: 1
EndChar

StartChar: s
Encoding: 115 115 16
Width: 2443
Flags: W
LayerCount: 2
Fore
SplineSet
238 -56 m 1,0,1
 227 -32 227 -32 217.5 13 c 128,-1,2
 208 58 208 58 201.5 107 c 128,-1,3
 195 156 195 156 191 201.5 c 128,-1,4
 187 247 187 247 187 271 c 1,5,-1
 310 271 l 1,6,7
 337 226 337 226 413 189 c 128,-1,8
 489 152 489 152 604 126 c 128,-1,9
 719 100 719 100 868 86 c 128,-1,10
 1017 72 1017 72 1189 72 c 0,11,12
 1288 72 1288 72 1345 98 c 128,-1,13
 1402 124 1402 124 1402 163 c 0,14,15
 1402 197 1402 197 1366.5 217.5 c 128,-1,16
 1331 238 1331 238 1270 250.5 c 128,-1,17
 1209 263 1209 263 1128 269.5 c 128,-1,18
 1047 276 1047 276 955.5 282 c 128,-1,19
 864 288 864 288 767.5 296.5 c 128,-1,20
 671 305 671 305 579.5 320.5 c 128,-1,21
 488 336 488 336 407 361.5 c 128,-1,22
 326 387 326 387 265 427.5 c 128,-1,23
 204 468 204 468 168.5 526.5 c 128,-1,24
 133 585 133 585 133 667 c 0,25,26
 133 743 133 743 163 804 c 128,-1,27
 193 865 193 865 248 912 c 128,-1,28
 303 959 303 959 379.5 993 c 128,-1,29
 456 1027 456 1027 548.5 1049 c 128,-1,30
 641 1071 641 1071 747 1081.5 c 128,-1,31
 853 1092 853 1092 966 1092 c 0,32,33
 1052 1092 1052 1092 1142.5 1088.5 c 128,-1,34
 1233 1085 1233 1085 1322 1079.5 c 128,-1,35
 1411 1074 1411 1074 1495 1068 c 128,-1,36
 1579 1062 1579 1062 1652 1056.5 c 128,-1,37
 1725 1051 1725 1051 1784 1047.5 c 128,-1,38
 1843 1044 1843 1044 1881 1044 c 0,39,40
 1917 1044 1917 1044 1956 1046.5 c 128,-1,41
 1995 1049 1995 1049 2032.5 1055 c 128,-1,42
 2070 1061 2070 1061 2102.5 1070 c 128,-1,43
 2135 1079 2135 1079 2158 1093 c 1,44,45
 2169 1069 2169 1069 2178.5 1028.5 c 128,-1,46
 2188 988 2188 988 2194.5 943.5 c 128,-1,47
 2201 899 2201 899 2205 858 c 128,-1,48
 2209 817 2209 817 2209 791 c 1,49,-1
 2089 791 l 1,50,51
 2069 824 2069 824 1996.5 859.5 c 128,-1,52
 1924 895 1924 895 1812 923.5 c 128,-1,53
 1700 952 1700 952 1556.5 970.5 c 128,-1,54
 1413 989 1413 989 1252 989 c 0,55,56
 1235 989 1235 989 1208.5 986.5 c 128,-1,57
 1182 984 1182 984 1157.5 975.5 c 128,-1,58
 1133 967 1133 967 1115 950.5 c 128,-1,59
 1097 934 1097 934 1097 907 c 0,60,61
 1097 874 1097 874 1131 853 c 128,-1,62
 1165 832 1165 832 1224 818 c 128,-1,63
 1283 804 1283 804 1361 794.5 c 128,-1,64
 1439 785 1439 785 1527 775.5 c 128,-1,65
 1615 766 1615 766 1708 753.5 c 128,-1,66
 1801 741 1801 741 1889 721.5 c 128,-1,67
 1977 702 1977 702 2055 673 c 128,-1,68
 2133 644 2133 644 2192 600.5 c 128,-1,69
 2251 557 2251 557 2285 496.5 c 128,-1,70
 2319 436 2319 436 2319 355 c 0,71,72
 2319 268 2319 268 2260.5 195 c 128,-1,73
 2202 122 2202 122 2097 68.5 c 128,-1,74
 1992 15 1992 15 1848 -15 c 128,-1,75
 1704 -45 1704 -45 1533 -45 c 0,76,77
 1393 -45 1393 -45 1256.5 -38 c 128,-1,78
 1120 -31 1120 -31 990 -22 c 128,-1,79
 860 -13 860 -13 737 -6 c 128,-1,80
 614 1 614 1 502 1 c 0,81,82
 467 1 467 1 429.5 -2 c 128,-1,83
 392 -5 392 -5 357 -12 c 128,-1,84
 322 -19 322 -19 291 -29.5 c 128,-1,85
 260 -40 260 -40 238 -56 c 1,0,1
EndSplineSet
Validated: 1
EndChar

StartChar: l
Encoding: 108 108 17
Width: 1807
Flags: W
LayerCount: 2
Fore
SplineSet
75 94 m 1,0,1
 165 97 165 97 232 107.5 c 128,-1,2
 299 118 299 118 347 142.5 c 128,-1,3
 395 167 395 167 426 208.5 c 128,-1,4
 457 250 457 250 475.5 317 c 128,-1,5
 494 384 494 384 501 479 c 128,-1,6
 508 574 508 574 508 704 c 0,7,8
 508 831 508 831 498 925 c 128,-1,9
 488 1019 488 1019 465.5 1086 c 128,-1,10
 443 1153 443 1153 407.5 1196 c 128,-1,11
 372 1239 372 1239 320.5 1263.5 c 128,-1,12
 269 1288 269 1288 200.5 1297.5 c 128,-1,13
 132 1307 132 1307 45 1307 c 1,14,-1
 45 1400 l 1,15,-1
 1387 1490 l 1,16,-1
 1387 470 l 2,17,18
 1387 372 1387 372 1405.5 303 c 128,-1,19
 1424 234 1424 234 1470 189.5 c 128,-1,20
 1516 145 1516 145 1594 122 c 128,-1,21
 1672 99 1672 99 1792 94 c 1,22,-1
 1792 0 l 1,23,-1
 75 0 l 1,24,-1
 75 94 l 1,0,1
EndSplineSet
Validated: 1
EndChar

StartChar: r
Encoding: 114 114 18
Width: 2526
Flags: W
LayerCount: 2
Fore
SplineSet
70 94 m 1,0,1
 204 99 204 99 293 129 c 128,-1,2
 382 159 382 159 435.5 212 c 128,-1,3
 489 265 489 265 511 341 c 128,-1,4
 533 417 533 417 533 515 c 0,5,6
 533 615 533 615 507 686.5 c 128,-1,7
 481 758 481 758 425 803.5 c 128,-1,8
 369 849 369 849 281.5 870 c 128,-1,9
 194 891 194 891 70 891 c 1,10,-1
 70 985 l 1,11,-1
 1412 1075 l 1,12,-1
 1412 927 l 1,13,14
 1468 966 1468 966 1538 996.5 c 128,-1,15
 1608 1027 1608 1027 1685 1048.5 c 128,-1,16
 1762 1070 1762 1070 1844 1081 c 128,-1,17
 1926 1092 1926 1092 2006 1092 c 0,18,19
 2130 1092 2130 1092 2220.5 1071 c 128,-1,20
 2311 1050 2311 1050 2370.5 1011.5 c 128,-1,21
 2430 973 2430 973 2458.5 919.5 c 128,-1,22
 2487 866 2487 866 2487 801 c 0,23,24
 2487 752 2487 752 2457 705 c 128,-1,25
 2427 658 2427 658 2370 620.5 c 128,-1,26
 2313 583 2313 583 2229.5 560 c 128,-1,27
 2146 537 2146 537 2039 537 c 0,28,29
 1942 537 1942 537 1863.5 552 c 128,-1,30
 1785 567 1785 567 1729 594.5 c 128,-1,31
 1673 622 1673 622 1642.5 660 c 128,-1,32
 1612 698 1612 698 1612 744 c 0,33,34
 1612 798 1612 798 1644.5 837.5 c 128,-1,35
 1677 877 1677 877 1728.5 902.5 c 128,-1,36
 1780 928 1780 928 1843 941 c 128,-1,37
 1906 954 1906 954 1967 955 c 1,38,39
 1875 955 1875 955 1799.5 947 c 128,-1,40
 1724 939 1724 939 1658 922.5 c 128,-1,41
 1592 906 1592 906 1532 879.5 c 128,-1,42
 1472 853 1472 853 1412 816 c 1,43,-1
 1412 524 l 2,44,45
 1412 417 1412 417 1437.5 338.5 c 128,-1,46
 1463 260 1463 260 1522 207.5 c 128,-1,47
 1581 155 1581 155 1678 127.5 c 128,-1,48
 1775 100 1775 100 1919 94 c 1,49,-1
 1919 0 l 1,50,-1
 70 0 l 1,51,-1
 70 94 l 1,0,1
EndSplineSet
Validated: 1
EndChar

StartChar: u
Encoding: 117 117 19
Width: 2835
Flags: W
LayerCount: 2
Fore
SplineSet
316 316 m 0,0,1
 316 347 316 347 318.5 386.5 c 128,-1,2
 321 426 321 426 324 467.5 c 128,-1,3
 327 509 327 509 329.5 549 c 128,-1,4
 332 589 332 589 332 622 c 0,5,6
 332 673 332 673 324.5 724.5 c 128,-1,7
 317 776 317 776 291 817.5 c 128,-1,8
 265 859 265 859 213.5 885 c 128,-1,9
 162 911 162 911 75 911 c 0,10,11
 44 911 44 911 8 908 c 1,12,-1
 8 1002 l 1,13,-1
 1240 1092 l 1,14,-1
 1240 505 l 2,15,16
 1240 430 1240 430 1248.5 374.5 c 128,-1,17
 1257 319 1257 319 1279.5 282.5 c 128,-1,18
 1302 246 1302 246 1341 227.5 c 128,-1,19
 1380 209 1380 209 1440 209 c 0,20,21
 1472 209 1472 209 1506.5 214.5 c 128,-1,22
 1541 220 1541 220 1576 231 c 1,23,-1
 1576 617 l 2,24,25
 1576 704 1576 704 1559.5 762 c 128,-1,26
 1543 820 1543 820 1515 856.5 c 128,-1,27
 1487 893 1487 893 1449.5 912.5 c 128,-1,28
 1412 932 1412 932 1370 943 c 1,29,-1
 1370 1020 l 1,30,-1
 2455 1110 l 1,31,-1
 2455 468 l 2,32,33
 2455 370 2455 370 2467 301 c 128,-1,34
 2479 232 2479 232 2517 187.5 c 128,-1,35
 2555 143 2555 143 2626.5 120 c 128,-1,36
 2698 97 2698 97 2817 92 c 1,37,-1
 2823 -2 l 1,38,39
 2755 -2 2755 -2 2666.5 -3 c 128,-1,40
 2578 -4 2578 -4 2481.5 -6 c 128,-1,41
 2385 -8 2385 -8 2285.5 -10 c 128,-1,42
 2186 -12 2186 -12 2094.5 -14 c 128,-1,43
 2003 -16 2003 -16 1926 -17 c 128,-1,44
 1849 -18 1849 -18 1798 -18 c 0,45,46
 1754 -18 1754 -18 1719.5 -5.5 c 128,-1,47
 1685 7 1685 7 1658.5 27.5 c 128,-1,48
 1632 48 1632 48 1614.5 74.5 c 128,-1,49
 1597 101 1597 101 1588 130 c 1,50,51
 1503 89 1503 89 1418.5 57 c 128,-1,52
 1334 25 1334 25 1245.5 2 c 128,-1,53
 1157 -21 1157 -21 1062 -33 c 128,-1,54
 967 -45 967 -45 862 -45 c 0,55,56
 809 -45 809 -45 748 -42.5 c 128,-1,57
 687 -40 687 -40 626.5 -29.5 c 128,-1,58
 566 -19 566 -19 509.5 3.5 c 128,-1,59
 453 26 453 26 410 66.5 c 128,-1,60
 367 107 367 107 341.5 167.5 c 128,-1,61
 316 228 316 228 316 316 c 0,0,1
EndSplineSet
Validated: 1
EndChar

StartChar: L
Encoding: 76 76 20
Width: 2777
Flags: W
LayerCount: 2
Fore
SplineSet
100 94 m 1,0,1
 250 99 250 99 349 129 c 128,-1,2
 448 159 448 159 507 225 c 128,-1,3
 566 291 566 291 590.5 398.5 c 128,-1,4
 615 506 615 506 615 668 c 0,5,6
 615 777 615 777 602.5 859 c 128,-1,7
 590 941 590 941 563.5 999.5 c 128,-1,8
 537 1058 537 1058 495.5 1096.5 c 128,-1,9
 454 1135 454 1135 397 1157 c 128,-1,10
 340 1179 340 1179 266 1188 c 128,-1,11
 192 1197 192 1197 100 1197 c 1,12,-1
 100 1291 l 1,13,-1
 2169 1291 l 1,14,-1
 2169 1197 l 1,15,16
 2031 1197 2031 1197 1933.5 1176 c 128,-1,17
 1836 1155 1836 1155 1774 1096.5 c 128,-1,18
 1712 1038 1712 1038 1683.5 935 c 128,-1,19
 1655 832 1655 832 1655 668 c 2,20,-1
 1655 99 l 1,21,22
 1786 99 1786 99 1909 126 c 128,-1,23
 2032 153 2032 153 2140.5 200 c 128,-1,24
 2249 247 2249 247 2340 309.5 c 128,-1,25
 2431 372 2431 372 2497.5 443.5 c 128,-1,26
 2564 515 2564 515 2603.5 591.5 c 128,-1,27
 2643 668 2643 668 2649 742 c 1,28,-1
 2754 742 l 1,29,30
 2754 702 2754 702 2752.5 644 c 128,-1,31
 2751 586 2751 586 2748.5 518 c 128,-1,32
 2746 450 2746 450 2742 377 c 128,-1,33
 2738 304 2738 304 2732.5 235 c 128,-1,34
 2727 166 2727 166 2719.5 105 c 128,-1,35
 2712 44 2712 44 2703 0 c 1,36,-1
 100 0 l 1,37,-1
 100 94 l 1,0,1
EndSplineSet
Validated: 1
EndChar

StartChar: T
Encoding: 84 84 21
Width: 2870
Flags: W
LayerCount: 2
Fore
SplineSet
400 94 m 1,0,1
 550 99 550 99 649 129 c 128,-1,2
 748 159 748 159 807 225 c 128,-1,3
 866 291 866 291 890.5 398.5 c 128,-1,4
 915 506 915 506 915 668 c 2,5,-1
 915 1169 l 1,6,7
 795 1147 795 1147 684 1099 c 128,-1,8
 573 1051 573 1051 481.5 980 c 128,-1,9
 390 909 390 909 322 818 c 128,-1,10
 254 727 254 727 221 619 c 1,11,-1
 116 619 l 1,12,13
 116 658 116 658 117.5 711.5 c 128,-1,14
 119 765 119 765 121.5 825.5 c 128,-1,15
 124 886 124 886 128.5 950.5 c 128,-1,16
 133 1015 133 1015 138.5 1076.5 c 128,-1,17
 144 1138 144 1138 151 1193 c 128,-1,18
 158 1248 158 1248 167 1291 c 1,19,-1
 2703 1291 l 1,20,21
 2712 1248 2712 1248 2719 1193 c 128,-1,22
 2726 1138 2726 1138 2731.5 1076.5 c 128,-1,23
 2737 1015 2737 1015 2741.5 950.5 c 128,-1,24
 2746 886 2746 886 2748.5 825.5 c 128,-1,25
 2751 765 2751 765 2752.5 711.5 c 128,-1,26
 2754 658 2754 658 2754 619 c 1,27,-1
 2649 619 l 1,28,29
 2613 720 2613 720 2541 810.5 c 128,-1,30
 2469 901 2469 901 2375.5 973.5 c 128,-1,31
 2282 1046 2282 1046 2173.5 1096.5 c 128,-1,32
 2065 1147 2065 1147 1955 1169 c 1,33,-1
 1955 636 l 1,34,35
 1957 484 1957 484 1983 382 c 128,-1,36
 2009 280 2009 280 2068 217.5 c 128,-1,37
 2127 155 2127 155 2224.5 127 c 128,-1,38
 2322 99 2322 99 2468 94 c 1,39,-1
 2468 0 l 1,40,-1
 400 0 l 1,41,-1
 400 94 l 1,0,1
EndSplineSet
Validated: 1
EndChar

StartChar: F
Encoding: 70 70 22
Width: 2986
Flags: W
LayerCount: 2
Fore
SplineSet
100 94 m 1,0,1
 250 99 250 99 349 129 c 128,-1,2
 448 159 448 159 507 225 c 128,-1,3
 566 291 566 291 590.5 398.5 c 128,-1,4
 615 506 615 506 615 668 c 0,5,6
 615 777 615 777 602.5 859 c 128,-1,7
 590 941 590 941 563.5 999.5 c 128,-1,8
 537 1058 537 1058 495.5 1096.5 c 128,-1,9
 454 1135 454 1135 397 1157 c 128,-1,10
 340 1179 340 1179 266 1188 c 128,-1,11
 192 1197 192 1197 100 1197 c 1,12,-1
 100 1291 l 1,13,-1
 2903 1291 l 1,14,15
 2916 1227 2916 1227 2925.5 1156.5 c 128,-1,16
 2935 1086 2935 1086 2941.5 1015.5 c 128,-1,17
 2948 945 2948 945 2951 876.5 c 128,-1,18
 2954 808 2954 808 2954 749 c 1,19,-1
 2849 749 l 1,20,21
 2801 823 2801 823 2725.5 885 c 128,-1,22
 2650 947 2650 947 2555 996.5 c 128,-1,23
 2460 1046 2460 1046 2349.5 1082.5 c 128,-1,24
 2239 1119 2239 1119 2122.5 1143.5 c 128,-1,25
 2006 1168 2006 1168 1887 1180 c 128,-1,26
 1768 1192 1768 1192 1655 1192 c 1,27,-1
 1655 686 l 1,28,29
 1701 696 1701 696 1766.5 718.5 c 128,-1,30
 1832 741 1832 741 1904 769 c 128,-1,31
 1976 797 1976 797 2050 828.5 c 128,-1,32
 2124 860 2124 860 2187 888.5 c 128,-1,33
 2250 917 2250 917 2296 940.5 c 128,-1,34
 2342 964 2342 964 2360 976 c 1,35,36
 2368 941 2368 941 2373.5 897.5 c 128,-1,37
 2379 854 2379 854 2382.5 808 c 128,-1,38
 2386 762 2386 762 2387.5 717 c 128,-1,39
 2389 672 2389 672 2389 634 c 0,40,41
 2389 599 2389 599 2387 554 c 128,-1,42
 2385 509 2385 509 2381.5 463.5 c 128,-1,43
 2378 418 2378 418 2372.5 375.5 c 128,-1,44
 2367 333 2367 333 2360 302 c 1,45,46
 2340 314 2340 314 2293 337 c 128,-1,47
 2246 360 2246 360 2182.5 389 c 128,-1,48
 2119 418 2119 418 2046 449.5 c 128,-1,49
 1973 481 1973 481 1901.5 509 c 128,-1,50
 1830 537 1830 537 1766 560 c 128,-1,51
 1702 583 1702 583 1658 594 c 1,52,53
 1668 454 1668 454 1719 358 c 128,-1,54
 1770 262 1770 262 1864.5 203.5 c 128,-1,55
 1959 145 1959 145 2098 119.5 c 128,-1,56
 2237 94 2237 94 2425 94 c 1,57,-1
 2425 0 l 1,58,-1
 100 0 l 1,59,-1
 100 94 l 1,0,1
EndSplineSet
Validated: 1
EndChar

StartChar: C
Encoding: 67 67 23
Width: 2858
Flags: W
LayerCount: 2
Fore
SplineSet
115 652 m 0,0,1
 115 809 115 809 200.5 937 c 128,-1,2
 286 1065 286 1065 443.5 1156 c 128,-1,3
 601 1247 601 1247 824 1296.5 c 128,-1,4
 1047 1346 1047 1346 1322 1346 c 0,5,6
 1469 1346 1469 1346 1600 1334 c 128,-1,7
 1731 1322 1731 1322 1844 1308 c 128,-1,8
 1957 1294 1957 1294 2051.5 1282 c 128,-1,9
 2146 1270 2146 1270 2222 1270 c 0,10,11
 2240 1270 2240 1270 2262.5 1276 c 128,-1,12
 2285 1282 2285 1282 2307 1292.5 c 128,-1,13
 2329 1303 2329 1303 2348 1318 c 128,-1,14
 2367 1333 2367 1333 2378 1352 c 1,15,-1
 2598 1352 l 1,16,17
 2628 1300 2628 1300 2653 1227.5 c 128,-1,18
 2678 1155 2678 1155 2695.5 1077 c 128,-1,19
 2713 999 2713 999 2723 922.5 c 128,-1,20
 2733 846 2733 846 2733 786 c 1,21,-1
 2583 786 l 1,22,23
 2564 855 2564 855 2523.5 911.5 c 128,-1,24
 2483 968 2483 968 2427 1012 c 128,-1,25
 2371 1056 2371 1056 2304 1089 c 128,-1,26
 2237 1122 2237 1122 2165.5 1143 c 128,-1,27
 2094 1164 2094 1164 2022 1174.5 c 128,-1,28
 1950 1185 1950 1185 1885 1185 c 0,29,30
 1776 1185 1776 1185 1676.5 1157 c 128,-1,31
 1577 1129 1577 1129 1501 1064 c 128,-1,32
 1425 999 1425 999 1379.5 892.5 c 128,-1,33
 1334 786 1334 786 1334 629 c 0,34,35
 1334 496 1334 496 1383.5 397 c 128,-1,36
 1433 298 1433 298 1515.5 232.5 c 128,-1,37
 1598 167 1598 167 1705 134.5 c 128,-1,38
 1812 102 1812 102 1928 102 c 0,39,40
 1999 102 1999 102 2074 114 c 128,-1,41
 2149 126 2149 126 2220.5 150 c 128,-1,42
 2292 174 2292 174 2356.5 210.5 c 128,-1,43
 2421 247 2421 247 2471 297 c 128,-1,44
 2521 347 2521 347 2553.5 410.5 c 128,-1,45
 2586 474 2586 474 2594 551 c 1,46,-1
 2743 551 l 1,47,48
 2743 411 2743 411 2670 298.5 c 128,-1,49
 2597 186 2597 186 2452.5 107 c 128,-1,50
 2308 28 2308 28 2093.5 -14.5 c 128,-1,51
 1879 -57 1879 -57 1596 -57 c 0,52,53
 1375 -57 1375 -57 1179.5 -43 c 128,-1,54
 984 -29 984 -29 819.5 3 c 128,-1,55
 655 35 655 35 524.5 88.5 c 128,-1,56
 394 142 394 142 303 220.5 c 128,-1,57
 212 299 212 299 163.5 406 c 128,-1,58
 115 513 115 513 115 652 c 0,0,1
EndSplineSet
Validated: 1
EndChar

StartChar: m
Encoding: 109 109 24
Width: 4197
Flags: W
LayerCount: 2
Fore
SplineSet
75 94 m 1,0,1
 200 99 200 99 288 126 c 128,-1,2
 376 153 376 153 431.5 203 c 128,-1,3
 487 253 487 253 512.5 326 c 128,-1,4
 538 399 538 399 538 497 c 0,5,6
 538 620 538 620 512 695.5 c 128,-1,7
 486 771 486 771 430 812 c 128,-1,8
 374 853 374 853 286.5 867 c 128,-1,9
 199 881 199 881 75 881 c 1,10,-1
 75 975 l 1,11,-1
 1381 1065 l 1,12,-1
 1381 903 l 1,13,14
 1471 943 1471 943 1564 977.5 c 128,-1,15
 1657 1012 1657 1012 1754.5 1037.5 c 128,-1,16
 1852 1063 1852 1063 1953.5 1077.5 c 128,-1,17
 2055 1092 2055 1092 2160 1092 c 0,18,19
 2220 1092 2220 1092 2279.5 1087 c 128,-1,20
 2339 1082 2339 1082 2392 1062.5 c 128,-1,21
 2445 1043 2445 1043 2489.5 1004 c 128,-1,22
 2534 965 2534 965 2564 897 c 1,23,24
 2653 938 2653 938 2743 973.5 c 128,-1,25
 2833 1009 2833 1009 2926.5 1035.5 c 128,-1,26
 3020 1062 3020 1062 3119.5 1077 c 128,-1,27
 3219 1092 3219 1092 3327 1092 c 0,28,29
 3382 1092 3382 1092 3439 1088 c 128,-1,30
 3496 1084 3496 1084 3550.5 1068.5 c 128,-1,31
 3605 1053 3605 1053 3653 1022.5 c 128,-1,32
 3701 992 3701 992 3736.5 938.5 c 128,-1,33
 3772 885 3772 885 3793 805 c 128,-1,34
 3814 725 3814 725 3814 612 c 0,35,36
 3814 574 3814 574 3811.5 534.5 c 128,-1,37
 3809 495 3809 495 3809 448 c 0,38,39
 3809 360 3809 360 3825 293.5 c 128,-1,40
 3841 227 3841 227 3882.5 183 c 128,-1,41
 3924 139 3924 139 3996.5 116.5 c 128,-1,42
 4069 94 4069 94 4182 94 c 1,43,-1
 4182 0 l 1,44,-1
 2812 0 l 1,45,-1
 2812 76 l 1,46,47
 2844 97 2844 97 2866 131.5 c 128,-1,48
 2888 166 2888 166 2901.5 216 c 128,-1,49
 2915 266 2915 266 2921 333.5 c 128,-1,50
 2927 401 2927 401 2927 488 c 0,51,52
 2927 599 2927 599 2911.5 665 c 128,-1,53
 2896 731 2896 731 2869 765.5 c 128,-1,54
 2842 800 2842 800 2805.5 810 c 128,-1,55
 2769 820 2769 820 2727 820 c 0,56,57
 2695 820 2695 820 2661.5 815 c 128,-1,58
 2628 810 2628 810 2593 802 c 1,59,60
 2601 762 2601 762 2606 715 c 128,-1,61
 2611 668 2611 668 2611 612 c 0,62,63
 2611 574 2611 574 2608.5 524 c 128,-1,64
 2606 474 2606 474 2606 427 c 0,65,66
 2606 339 2606 339 2610 273 c 128,-1,67
 2614 207 2614 207 2625 163.5 c 128,-1,68
 2636 120 2636 120 2655.5 98 c 128,-1,69
 2675 76 2675 76 2705 76 c 1,70,-1
 2705 0 l 1,71,-1
 1609 0 l 1,72,-1
 1609 76 l 1,73,74
 1641 97 1641 97 1663 131.5 c 128,-1,75
 1685 166 1685 166 1698.5 216 c 128,-1,76
 1712 266 1712 266 1718 333.5 c 128,-1,77
 1724 401 1724 401 1724 488 c 0,78,79
 1724 599 1724 599 1708.5 665 c 128,-1,80
 1693 731 1693 731 1666 765.5 c 128,-1,81
 1639 800 1639 800 1602.5 810 c 128,-1,82
 1566 820 1566 820 1524 820 c 0,83,84
 1490 820 1490 820 1454 813 c 128,-1,85
 1418 806 1418 806 1381 795 c 1,86,-1
 1381 470 l 2,87,88
 1381 383 1381 383 1387 318.5 c 128,-1,89
 1393 254 1393 254 1406.5 207 c 128,-1,90
 1420 160 1420 160 1442 128.5 c 128,-1,91
 1464 97 1464 97 1496 76 c 1,92,-1
 1496 0 l 1,93,-1
 75 0 l 1,94,-1
 75 94 l 1,0,1
EndSplineSet
Validated: 1
EndChar

StartChar: f
Encoding: 102 102 25
Width: 2231
Flags: W
LayerCount: 2
Fore
SplineSet
60 94 m 1,0,1
 194 99 194 99 283 122 c 128,-1,2
 372 145 372 145 425.5 189.5 c 128,-1,3
 479 234 479 234 501 303 c 128,-1,4
 523 372 523 372 523 470 c 2,5,-1
 523 740 l 1,6,-1
 90 740 l 1,7,-1
 90 834 l 1,8,-1
 523 864 l 1,9,-1
 523 1083 l 2,10,11
 523 1184 523 1184 562.5 1260.5 c 128,-1,12
 602 1337 602 1337 674 1392.5 c 128,-1,13
 746 1448 746 1448 848 1484 c 128,-1,14
 950 1520 950 1520 1075 1541.5 c 128,-1,15
 1200 1563 1200 1563 1344 1571.5 c 128,-1,16
 1488 1580 1488 1580 1646 1580 c 0,17,18
 1847 1580 1847 1580 1991 1558.5 c 128,-1,19
 2135 1537 2135 1537 2227 1498.5 c 128,-1,20
 2319 1460 2319 1460 2362.5 1406 c 128,-1,21
 2406 1352 2406 1352 2406 1286 c 0,22,23
 2406 1236 2406 1236 2376 1192.5 c 128,-1,24
 2346 1149 2346 1149 2289 1116.5 c 128,-1,25
 2232 1084 2232 1084 2149 1065.5 c 128,-1,26
 2066 1047 2066 1047 1959 1047 c 0,27,28
 1862 1047 1862 1047 1777.5 1063 c 128,-1,29
 1693 1079 1693 1079 1630 1106 c 128,-1,30
 1567 1133 1567 1133 1531 1168.5 c 128,-1,31
 1495 1204 1495 1204 1495 1244 c 0,32,33
 1495 1283 1495 1283 1520 1317 c 128,-1,34
 1545 1351 1545 1351 1594.5 1376.5 c 128,-1,35
 1644 1402 1644 1402 1719 1416.5 c 128,-1,36
 1794 1431 1794 1431 1893 1431 c 1,37,38
 1857 1446 1857 1446 1812 1454.5 c 128,-1,39
 1767 1463 1767 1463 1718 1463 c 0,40,41
 1611 1463 1611 1463 1545 1444 c 128,-1,42
 1479 1425 1479 1425 1441.5 1391.5 c 128,-1,43
 1404 1358 1404 1358 1391 1312 c 128,-1,44
 1378 1266 1378 1266 1378 1211 c 0,45,46
 1378 1145 1378 1145 1381.5 1090 c 128,-1,47
 1385 1035 1385 1035 1389.5 993 c 128,-1,48
 1394 951 1394 951 1398 923.5 c 128,-1,49
 1402 896 1402 896 1402 884 c 2,50,-1
 1402 878 l 1,51,-1
 2041 878 l 1,52,-1
 2041 740 l 1,53,-1
 1402 740 l 1,54,-1
 1402 470 l 2,55,56
 1402 363 1402 363 1439 293 c 128,-1,57
 1476 223 1476 223 1549.5 180.5 c 128,-1,58
 1623 138 1623 138 1732 119 c 128,-1,59
 1841 100 1841 100 1985 94 c 1,60,-1
 1985 0 l 1,61,-1
 60 0 l 1,62,-1
 60 94 l 1,0,1
EndSplineSet
Validated: 1
EndChar

StartChar: p
Encoding: 112 112 26
Width: 2869
Flags: W
LayerCount: 2
Fore
SplineSet
15 -368 m 1,0,1
 105 -365 105 -365 174 -351.5 c 128,-1,2
 243 -338 243 -338 294.5 -309 c 128,-1,3
 346 -280 346 -280 381 -234 c 128,-1,4
 416 -188 416 -188 437.5 -119 c 128,-1,5
 459 -50 459 -50 468.5 45 c 128,-1,6
 478 140 478 140 478 265 c 0,7,8
 478 392 478 392 466.5 487.5 c 128,-1,9
 455 583 455 583 431 652.5 c 128,-1,10
 407 722 407 722 370 768 c 128,-1,11
 333 814 333 814 281.5 841 c 128,-1,12
 230 868 230 868 163.5 879 c 128,-1,13
 97 890 97 890 15 890 c 1,14,-1
 15 984 l 1,15,-1
 1357 1074 l 1,16,-1
 1357 940 l 1,17,18
 1399 972 1399 972 1456.5 999.5 c 128,-1,19
 1514 1027 1514 1027 1590 1047.5 c 128,-1,20
 1666 1068 1666 1068 1762.5 1080 c 128,-1,21
 1859 1092 1859 1092 1979 1092 c 0,22,23
 2199 1092 2199 1092 2348 1049.5 c 128,-1,24
 2497 1007 2497 1007 2587.5 933 c 128,-1,25
 2678 859 2678 859 2717 759 c 128,-1,26
 2756 659 2756 659 2756 544 c 0,27,28
 2756 397 2756 397 2697 286.5 c 128,-1,29
 2638 176 2638 176 2534 102.5 c 128,-1,30
 2430 29 2430 29 2289 -8 c 128,-1,31
 2148 -45 2148 -45 1985 -45 c 0,32,33
 1900 -45 1900 -45 1814 -35.5 c 128,-1,34
 1728 -26 1728 -26 1647 -8 c 128,-1,35
 1566 10 1566 10 1492 36 c 128,-1,36
 1418 62 1418 62 1357 96 c 1,37,-1
 1357 8 l 2,38,39
 1357 -90 1357 -90 1381 -159 c 128,-1,40
 1405 -228 1405 -228 1463.5 -272.5 c 128,-1,41
 1522 -317 1522 -317 1620.5 -340 c 128,-1,42
 1719 -363 1719 -363 1869 -368 c 1,43,-1
 1869 -462 l 1,44,-1
 15 -462 l 1,45,-1
 15 -368 l 1,0,1
1357 237 m 1,46,47
 1426 174 1426 174 1494.5 144.5 c 128,-1,48
 1563 115 1563 115 1613 115 c 0,49,50
 1693 115 1693 115 1728.5 214.5 c 128,-1,51
 1764 314 1764 314 1764 520 c 0,52,53
 1764 613 1764 613 1756.5 686.5 c 128,-1,54
 1749 760 1749 760 1730 811 c 128,-1,55
 1711 862 1711 862 1680 889 c 128,-1,56
 1649 916 1649 916 1601 916 c 0,57,58
 1562 916 1562 916 1525.5 906.5 c 128,-1,59
 1489 897 1489 897 1457.5 880.5 c 128,-1,60
 1426 864 1426 864 1400.5 840.5 c 128,-1,61
 1375 817 1375 817 1357 790 c 1,62,-1
 1357 237 l 1,46,47
EndSplineSet
Validated: 1
EndChar

StartChar: j
Encoding: 106 106 27
Width: 1627
Flags: W
LayerCount: 2
Fore
SplineSet
832 1209 m 0,0,1
 727 1209 727 1209 633.5 1228 c 128,-1,2
 540 1247 540 1247 470.5 1280 c 128,-1,3
 401 1313 401 1313 360.5 1357 c 128,-1,4
 320 1401 320 1401 320 1451 c 0,5,6
 320 1502 320 1502 360.5 1546.5 c 128,-1,7
 401 1591 401 1591 470.5 1624 c 128,-1,8
 540 1657 540 1657 633.5 1676 c 128,-1,9
 727 1695 727 1695 832 1695 c 0,10,11
 938 1695 938 1695 1031.5 1676 c 128,-1,12
 1125 1657 1125 1657 1195 1624 c 128,-1,13
 1265 1591 1265 1591 1305 1546.5 c 128,-1,14
 1345 1502 1345 1502 1345 1451 c 0,15,16
 1345 1401 1345 1401 1305 1357 c 128,-1,17
 1265 1313 1265 1313 1195 1280 c 128,-1,18
 1125 1247 1125 1247 1031.5 1228 c 128,-1,19
 938 1209 938 1209 832 1209 c 0,0,1
15 -287 m 1,20,21
 74 -294 74 -294 121.5 -297.5 c 128,-1,22
 169 -301 169 -301 208 -301 c 0,23,24
 287 -301 287 -301 334 -273 c 128,-1,25
 381 -245 381 -245 405.5 -196 c 128,-1,26
 430 -147 430 -147 437.5 -79.5 c 128,-1,27
 445 -12 445 -12 445 67 c 2,28,-1
 445 472 l 2,29,30
 445 572 445 572 419 650.5 c 128,-1,31
 393 729 393 729 337 782 c 128,-1,32
 281 835 281 835 193.5 863 c 128,-1,33
 106 891 106 891 -18 891 c 1,34,-1
 -18 985 l 1,35,-1
 1336 1075 l 1,36,37
 1336 1002 1336 1002 1335.5 897 c 128,-1,38
 1335 792 1335 792 1335 677 c 0,39,40
 1335 582 1335 582 1337 490.5 c 128,-1,41
 1339 399 1339 399 1341.5 315.5 c 128,-1,42
 1344 232 1344 232 1346 158.5 c 128,-1,43
 1348 85 1348 85 1348 27 c 0,44,45
 1348 -71 1348 -71 1321.5 -145.5 c 128,-1,46
 1295 -220 1295 -220 1247 -274.5 c 128,-1,47
 1199 -329 1199 -329 1133 -365 c 128,-1,48
 1067 -401 1067 -401 988.5 -422.5 c 128,-1,49
 910 -444 910 -444 821.5 -453 c 128,-1,50
 733 -462 733 -462 641 -462 c 0,51,52
 562 -462 562 -462 479.5 -457 c 128,-1,53
 397 -452 397 -452 316 -443.5 c 128,-1,54
 235 -435 235 -435 158.5 -425 c 128,-1,55
 82 -415 82 -415 15 -406 c 1,56,-1
 15 -287 l 1,20,21
EndSplineSet
Validated: 1
EndChar

StartChar: J
Encoding: 74 74 28
Width: 2318
Flags: W
LayerCount: 2
Fore
SplineSet
138 89 m 1,0,1
 199 77 199 77 246.5 68.5 c 128,-1,2
 294 60 294 60 334.5 54.5 c 128,-1,3
 375 49 375 49 411.5 46.5 c 128,-1,4
 448 44 448 44 489 44 c 0,5,6
 572 44 572 44 628.5 71.5 c 128,-1,7
 685 99 685 99 719 166 c 128,-1,8
 753 233 753 233 767.5 343.5 c 128,-1,9
 782 454 782 454 782 621 c 0,10,11
 782 744 782 744 765 835 c 128,-1,12
 748 926 748 926 714.5 990 c 128,-1,13
 681 1054 681 1054 632 1094.5 c 128,-1,14
 583 1135 583 1135 519 1157.5 c 128,-1,15
 455 1180 455 1180 377 1188.5 c 128,-1,16
 299 1197 299 1197 207 1197 c 1,17,-1
 207 1291 l 1,18,-1
 2275 1291 l 1,19,-1
 2275 1197 l 1,20,21
 2177 1197 2177 1197 2106 1188 c 128,-1,22
 2035 1179 2035 1179 1985.5 1158 c 128,-1,23
 1936 1137 1936 1137 1905 1101.5 c 128,-1,24
 1874 1066 1874 1066 1857 1012 c 128,-1,25
 1840 958 1840 958 1834 885 c 128,-1,26
 1828 812 1828 812 1828 715 c 0,27,28
 1828 661 1828 661 1832 607 c 128,-1,29
 1836 553 1836 553 1841.5 498 c 128,-1,30
 1847 443 1847 443 1851 387 c 128,-1,31
 1855 331 1855 331 1855 273 c 0,32,33
 1855 185 1855 185 1828 119.5 c 128,-1,34
 1801 54 1801 54 1751.5 7 c 128,-1,35
 1702 -40 1702 -40 1632 -70 c 128,-1,36
 1562 -100 1562 -100 1476 -117.5 c 128,-1,37
 1390 -135 1390 -135 1290 -141.5 c 128,-1,38
 1190 -148 1190 -148 1081 -148 c 0,39,40
 912 -148 912 -148 773 -137 c 128,-1,41
 634 -126 634 -126 518 -107.5 c 128,-1,42
 402 -89 402 -89 304 -64.5 c 128,-1,43
 206 -40 206 -40 120 -14 c 1,44,-1
 138 89 l 1,0,1
EndSplineSet
Validated: 1
EndChar

StartChar: b
Encoding: 98 98 29
Width: 2666
Flags: W
LayerCount: 2
Fore
SplineSet
230 27 m 1,0,1
 240 47 240 47 247 72 c 128,-1,2
 254 97 254 97 259 133.5 c 128,-1,3
 264 170 264 170 267.5 219.5 c 128,-1,4
 271 269 271 269 272.5 338 c 128,-1,5
 274 407 274 407 274.5 497 c 128,-1,6
 275 587 275 587 275 704 c 0,7,8
 275 894 275 894 249 1012 c 128,-1,9
 223 1130 223 1130 167 1195.5 c 128,-1,10
 111 1261 111 1261 23.5 1284 c 128,-1,11
 -64 1307 -64 1307 -188 1307 c 1,12,-1
 -188 1400 l 1,13,-1
 1154 1490 l 1,14,-1
 1154 940 l 1,15,16
 1196 972 1196 972 1253 999.5 c 128,-1,17
 1310 1027 1310 1027 1386 1047.5 c 128,-1,18
 1462 1068 1462 1068 1558.5 1080 c 128,-1,19
 1655 1092 1655 1092 1776 1092 c 0,20,21
 1951 1092 1951 1092 2094.5 1054 c 128,-1,22
 2238 1016 2238 1016 2340 944 c 128,-1,23
 2442 872 2442 872 2497.5 769 c 128,-1,24
 2553 666 2553 666 2553 536 c 0,25,26
 2553 391 2553 391 2494 282 c 128,-1,27
 2435 173 2435 173 2324 100.5 c 128,-1,28
 2213 28 2213 28 2053 -8.5 c 128,-1,29
 1893 -45 1893 -45 1692 -45 c 0,30,31
 1550 -45 1550 -45 1432 -34 c 128,-1,32
 1314 -23 1314 -23 1206 -9.5 c 128,-1,33
 1098 4 1098 4 992.5 15 c 128,-1,34
 887 26 887 26 770 26 c 0,35,36
 608 26 608 26 497 16.5 c 128,-1,37
 386 7 386 7 314 -18 c 1,38,-1
 230 27 l 1,0,1
1154 125 m 1,39,40
 1205 105 1205 105 1257.5 94 c 128,-1,41
 1310 83 1310 83 1367 83 c 0,42,43
 1423 83 1423 83 1460.5 105.5 c 128,-1,44
 1498 128 1498 128 1520.5 178 c 128,-1,45
 1543 228 1543 228 1552 308 c 128,-1,46
 1561 388 1561 388 1561 502 c 0,47,48
 1561 595 1561 595 1553.5 671 c 128,-1,49
 1546 747 1546 747 1527 800 c 128,-1,50
 1508 853 1508 853 1477 882 c 128,-1,51
 1446 911 1446 911 1398 911 c 0,52,53
 1359 911 1359 911 1322.5 901.5 c 128,-1,54
 1286 892 1286 892 1254.5 875.5 c 128,-1,55
 1223 859 1223 859 1197.5 835.5 c 128,-1,56
 1172 812 1172 812 1154 785 c 1,57,-1
 1154 125 l 1,39,40
EndSplineSet
Validated: 1
EndChar

StartChar: q
Encoding: 113 113 30
Width: 2731
Flags: W
LayerCount: 2
Fore
SplineSet
113 526 m 0,0,1
 113 627 113 627 142.5 708 c 128,-1,2
 172 789 172 789 224 852 c 128,-1,3
 276 915 276 915 347.5 960.5 c 128,-1,4
 419 1006 419 1006 503 1035 c 128,-1,5
 587 1064 587 1064 680.5 1078 c 128,-1,6
 774 1092 774 1092 870 1092 c 0,7,8
 1005 1092 1005 1092 1133 1080.5 c 128,-1,9
 1261 1069 1261 1069 1385 1055.5 c 128,-1,10
 1509 1042 1509 1042 1631.5 1031 c 128,-1,11
 1754 1020 1754 1020 1878 1020 c 0,12,13
 1993 1020 1993 1020 2106.5 1029.5 c 128,-1,14
 2220 1039 2220 1039 2332 1065 c 1,15,-1
 2415 1020 l 1,16,17
 2404 949 2404 949 2395.5 861.5 c 128,-1,18
 2387 774 2387 774 2381.5 681 c 128,-1,19
 2376 588 2376 588 2373 493.5 c 128,-1,20
 2370 399 2370 399 2370 314 c 0,21,22
 2370 187 2370 187 2376.5 88 c 128,-1,23
 2383 -11 2383 -11 2400 -86 c 128,-1,24
 2417 -161 2417 -161 2447 -213 c 128,-1,25
 2477 -265 2477 -265 2524.5 -298 c 128,-1,26
 2572 -331 2572 -331 2638 -347.5 c 128,-1,27
 2704 -364 2704 -364 2794 -368 c 1,28,-1
 2794 -462 l 1,29,-1
 989 -462 l 1,30,-1
 989 -368 l 1,31,32
 1124 -363 1124 -363 1219 -333 c 128,-1,33
 1314 -303 1314 -303 1375 -250 c 128,-1,34
 1436 -197 1436 -197 1464 -121 c 128,-1,35
 1492 -45 1492 -45 1492 53 c 2,36,-1
 1492 106 l 1,37,38
 1450 74 1450 74 1392.5 46.5 c 128,-1,39
 1335 19 1335 19 1259 -1 c 128,-1,40
 1183 -21 1183 -21 1086.5 -33 c 128,-1,41
 990 -45 990 -45 870 -45 c 0,42,43
 699 -45 699 -45 559 -1.5 c 128,-1,44
 419 42 419 42 320 119 c 128,-1,45
 221 196 221 196 167 300 c 128,-1,46
 113 404 113 404 113 526 c 0,0,1
1085 545 m 0,47,48
 1085 452 1085 452 1092.5 372.5 c 128,-1,49
 1100 293 1100 293 1119 235.5 c 128,-1,50
 1138 178 1138 178 1169 145 c 128,-1,51
 1200 112 1200 112 1248 112 c 0,52,53
 1287 112 1287 112 1323 121.5 c 128,-1,54
 1359 131 1359 131 1390.5 147.5 c 128,-1,55
 1422 164 1422 164 1448 187.5 c 128,-1,56
 1474 211 1474 211 1492 238 c 1,57,-1
 1492 910 l 1,58,59
 1458 927 1458 927 1423 938 c 128,-1,60
 1388 949 1388 949 1354.5 955.5 c 128,-1,61
 1321 962 1321 962 1290.5 964.5 c 128,-1,62
 1260 967 1260 967 1235 967 c 0,63,64
 1156 967 1156 967 1120.5 859.5 c 128,-1,65
 1085 752 1085 752 1085 545 c 0,47,48
EndSplineSet
Validated: 1
EndChar

StartChar: c
Encoding: 99 99 31
Width: 2486
Flags: W
LayerCount: 2
Fore
SplineSet
123 514 m 0,0,1
 123 619 123 619 172.5 702.5 c 128,-1,2
 222 786 222 786 310.5 850.5 c 128,-1,3
 399 915 399 915 521 960.5 c 128,-1,4
 643 1006 643 1006 789 1035.5 c 128,-1,5
 935 1065 935 1065 1099.5 1078.5 c 128,-1,6
 1264 1092 1264 1092 1436 1092 c 0,7,8
 1554 1092 1554 1092 1668.5 1083 c 128,-1,9
 1783 1074 1783 1074 1885 1056.5 c 128,-1,10
 1987 1039 1987 1039 2073.5 1013 c 128,-1,11
 2160 987 2160 987 2223 954 c 128,-1,12
 2286 921 2286 921 2321.5 880.5 c 128,-1,13
 2357 840 2357 840 2357 793 c 0,14,15
 2357 744 2357 744 2327 698.5 c 128,-1,16
 2297 653 2297 653 2240 617.5 c 128,-1,17
 2183 582 2183 582 2099.5 560.5 c 128,-1,18
 2016 539 2016 539 1909 539 c 0,19,20
 1808 539 1808 539 1719.5 555 c 128,-1,21
 1631 571 1631 571 1566 599 c 128,-1,22
 1501 627 1501 627 1463.5 665.5 c 128,-1,23
 1426 704 1426 704 1426 750 c 0,24,25
 1426 789 1426 789 1451.5 826.5 c 128,-1,26
 1477 864 1477 864 1527.5 893.5 c 128,-1,27
 1578 923 1578 923 1653 941 c 128,-1,28
 1728 959 1728 959 1828 959 c 1,29,30
 1771 975 1771 975 1709.5 982 c 128,-1,31
 1648 989 1648 989 1585 989 c 0,32,33
 1494 989 1494 989 1408.5 968.5 c 128,-1,34
 1323 948 1323 948 1256.5 899.5 c 128,-1,35
 1190 851 1190 851 1150 770.5 c 128,-1,36
 1110 690 1110 690 1110 570 c 0,37,38
 1110 492 1110 492 1132.5 428.5 c 128,-1,39
 1155 365 1155 365 1195 315 c 128,-1,40
 1235 265 1235 265 1289.5 228 c 128,-1,41
 1344 191 1344 191 1407.5 167 c 128,-1,42
 1471 143 1471 143 1541.5 131 c 128,-1,43
 1612 119 1612 119 1683 119 c 0,44,45
 1798 119 1798 119 1905 139 c 128,-1,46
 2012 159 2012 159 2094 193.5 c 128,-1,47
 2176 228 2176 228 2225 273.5 c 128,-1,48
 2274 319 2274 319 2274 371 c 1,49,-1
 2397 371 l 1,50,51
 2397 301 2397 301 2361.5 243 c 128,-1,52
 2326 185 2326 185 2262 139 c 128,-1,53
 2198 93 2198 93 2109.5 58.5 c 128,-1,54
 2021 24 2021 24 1915.5 1 c 128,-1,55
 1810 -22 1810 -22 1690.5 -33.5 c 128,-1,56
 1571 -45 1571 -45 1445 -45 c 0,57,58
 1264 -45 1264 -45 1096 -34 c 128,-1,59
 928 -23 928 -23 781 2.5 c 128,-1,60
 634 28 634 28 513 70 c 128,-1,61
 392 112 392 112 305.5 174 c 128,-1,62
 219 236 219 236 171 320 c 128,-1,63
 123 404 123 404 123 514 c 0,0,1
EndSplineSet
Validated: 1
EndChar

StartChar: t
Encoding: 116 116 32
Width: 2049
Flags: W
LayerCount: 2
Fore
SplineSet
330 909 m 1,0,-1
 58 909 l 1,1,-1
 58 1003 l 1,2,3
 174 1003 174 1003 290 1016 c 128,-1,4
 406 1029 406 1029 512.5 1055.5 c 128,-1,5
 619 1082 619 1082 712.5 1122.5 c 128,-1,6
 806 1163 806 1163 878 1218 c 128,-1,7
 950 1273 950 1273 995.5 1342.5 c 128,-1,8
 1041 1412 1041 1412 1053 1497 c 1,9,-1
 1265 1497 l 1,10,-1
 1265 1047 l 1,11,-1
 1892 1047 l 1,12,-1
 1892 909 l 1,13,-1
 1265 909 l 1,14,-1
 1265 597 l 2,15,16
 1265 460 1265 460 1276.5 364.5 c 128,-1,17
 1288 269 1288 269 1319.5 209.5 c 128,-1,18
 1351 150 1351 150 1406 123 c 128,-1,19
 1461 96 1461 96 1548 96 c 0,20,21
 1617 96 1617 96 1682 109.5 c 128,-1,22
 1747 123 1747 123 1797 155.5 c 128,-1,23
 1847 188 1847 188 1877.5 242.5 c 128,-1,24
 1908 297 1908 297 1908 380 c 1,25,-1
 2029 380 l 1,26,27
 2029 312 2029 312 2013.5 254 c 128,-1,28
 1998 196 1998 196 1959.5 148.5 c 128,-1,29
 1921 101 1921 101 1857 65 c 128,-1,30
 1793 29 1793 29 1695.5 4.5 c 128,-1,31
 1598 -20 1598 -20 1464 -32.5 c 128,-1,32
 1330 -45 1330 -45 1153 -45 c 0,33,34
 1034 -45 1034 -45 927 -37.5 c 128,-1,35
 820 -30 820 -30 728.5 -9 c 128,-1,36
 637 12 637 12 563.5 49 c 128,-1,37
 490 86 490 86 438 144.5 c 128,-1,38
 386 203 386 203 358 286.5 c 128,-1,39
 330 370 330 370 330 484 c 2,40,-1
 330 909 l 1,0,-1
EndSplineSet
Validated: 1
EndChar

StartChar: Y
Encoding: 89 89 33
Width: 3178
Flags: W
LayerCount: 2
Fore
SplineSet
497 94 m 1,0,1
 642 97 642 97 745.5 129.5 c 128,-1,2
 849 162 849 162 915 208.5 c 128,-1,3
 981 255 981 255 1011.5 307.5 c 128,-1,4
 1042 360 1042 360 1042 404 c 2,5,-1
 1042 542 l 1,6,7
 982 633 982 633 910.5 717 c 128,-1,8
 839 801 839 801 760.5 874 c 128,-1,9
 682 947 682 947 598 1006.5 c 128,-1,10
 514 1066 514 1066 429 1108.5 c 128,-1,11
 344 1151 344 1151 260.5 1174 c 128,-1,12
 177 1197 177 1197 100 1197 c 1,13,-1
 100 1291 l 1,14,-1
 1898 1291 l 1,15,-1
 1898 1197 l 1,16,17
 1810 1197 1810 1197 1763 1161 c 128,-1,18
 1716 1125 1716 1125 1716 1063 c 0,19,20
 1716 1031 1716 1031 1736.5 983.5 c 128,-1,21
 1757 936 1757 936 1796 873.5 c 128,-1,22
 1835 811 1835 811 1891 733.5 c 128,-1,23
 1947 656 1947 656 2017 564 c 1,24,25
 2056 621 2056 621 2103 691.5 c 128,-1,26
 2150 762 2150 762 2190.5 831.5 c 128,-1,27
 2231 901 2231 901 2258 961.5 c 128,-1,28
 2285 1022 2285 1022 2285 1058 c 0,29,30
 2285 1084 2285 1084 2276 1109 c 128,-1,31
 2267 1134 2267 1134 2244.5 1153.5 c 128,-1,32
 2222 1173 2222 1173 2183 1185 c 128,-1,33
 2144 1197 2144 1197 2083 1197 c 1,34,-1
 2083 1291 l 1,35,-1
 3123 1291 l 1,36,-1
 3123 1197 l 1,37,38
 2988 1194 2988 1194 2864 1151 c 128,-1,39
 2740 1108 2740 1108 2632.5 1040 c 128,-1,40
 2525 972 2525 972 2436.5 887.5 c 128,-1,41
 2348 803 2348 803 2285 718 c 128,-1,42
 2222 633 2222 633 2187.5 555 c 128,-1,43
 2153 477 2153 477 2153 422 c 0,44,45
 2153 333 2153 333 2199.5 270.5 c 128,-1,46
 2246 208 2246 208 2325.5 169 c 128,-1,47
 2405 130 2405 130 2512 112 c 128,-1,48
 2619 94 2619 94 2740 94 c 1,49,-1
 2740 0 l 1,50,-1
 497 0 l 1,51,-1
 497 94 l 1,0,1
EndSplineSet
Validated: 1
EndChar

StartChar: P
Encoding: 80 80 34
Width: 3210
Flags: W
LayerCount: 2
Fore
SplineSet
100 94 m 1,0,1
 250 99 250 99 349 129 c 128,-1,2
 448 159 448 159 507 225 c 128,-1,3
 566 291 566 291 590.5 398.5 c 128,-1,4
 615 506 615 506 615 668 c 0,5,6
 615 777 615 777 602.5 859 c 128,-1,7
 590 941 590 941 563.5 999.5 c 128,-1,8
 537 1058 537 1058 495.5 1096.5 c 128,-1,9
 454 1135 454 1135 397 1157 c 128,-1,10
 340 1179 340 1179 266 1188 c 128,-1,11
 192 1197 192 1197 100 1197 c 1,12,-1
 100 1291 l 1,13,-1
 1720 1291 l 2,14,15
 2095 1291 2095 1291 2363 1273.5 c 128,-1,16
 2631 1256 2631 1256 2802.5 1207 c 128,-1,17
 2974 1158 2974 1158 3054.5 1070.5 c 128,-1,18
 3135 983 3135 983 3135 843 c 0,19,20
 3135 755 3135 755 3106 689.5 c 128,-1,21
 3077 624 3077 624 3024.5 577.5 c 128,-1,22
 2972 531 2972 531 2898.5 501 c 128,-1,23
 2825 471 2825 471 2736.5 453.5 c 128,-1,24
 2648 436 2648 436 2547.5 429.5 c 128,-1,25
 2447 423 2447 423 2339 423 c 0,26,27
 2248 423 2248 423 2162.5 426.5 c 128,-1,28
 2077 430 2077 430 1995 434.5 c 128,-1,29
 1913 439 1913 439 1832 443 c 128,-1,30
 1751 447 1751 447 1669 449 c 1,31,32
 1685 352 1685 352 1723 286.5 c 128,-1,33
 1761 221 1761 221 1830.5 180 c 128,-1,34
 1900 139 1900 139 2004.5 119 c 128,-1,35
 2109 99 2109 99 2259 94 c 1,36,-1
 2259 0 l 1,37,-1
 100 0 l 1,38,-1
 100 94 l 1,0,1
1657 573 m 1,39,40
 1746 579 1746 579 1820.5 597.5 c 128,-1,41
 1895 616 1895 616 1948.5 651.5 c 128,-1,42
 2002 687 2002 687 2031.5 741 c 128,-1,43
 2061 795 2061 795 2061 873 c 0,44,45
 2061 959 2061 959 2033 1014.5 c 128,-1,46
 2005 1070 2005 1070 1952.5 1103.5 c 128,-1,47
 1900 1137 1900 1137 1824.5 1151.5 c 128,-1,48
 1749 1166 1749 1166 1655 1170 c 1,49,-1
 1655 668 l 2,50,51
 1655 642 1655 642 1655 619 c 128,-1,52
 1655 596 1655 596 1657 573 c 1,39,40
EndSplineSet
Validated: 1
EndChar

StartChar: Q
Encoding: 81 81 35
Width: 3023
Flags: W
LayerCount: 2
Fore
SplineSet
105 645 m 0,0,1
 105 792 105 792 161.5 901 c 128,-1,2
 218 1010 218 1010 316.5 1088 c 128,-1,3
 415 1166 415 1166 549.5 1216 c 128,-1,4
 684 1266 684 1266 840 1295.5 c 128,-1,5
 996 1325 996 1325 1167.5 1336 c 128,-1,6
 1339 1347 1339 1347 1511 1347 c 256,7,8
 1683 1347 1683 1347 1854.5 1336 c 128,-1,9
 2026 1325 2026 1325 2182.5 1295.5 c 128,-1,10
 2339 1266 2339 1266 2473.5 1216 c 128,-1,11
 2608 1166 2608 1166 2706.5 1088 c 128,-1,12
 2805 1010 2805 1010 2861.5 901 c 128,-1,13
 2918 792 2918 792 2918 645 c 0,14,15
 2918 507 2918 507 2868.5 402.5 c 128,-1,16
 2819 298 2819 298 2730.5 221.5 c 128,-1,17
 2642 145 2642 145 2521.5 93.5 c 128,-1,18
 2401 42 2401 42 2258.5 10 c 128,-1,19
 2116 -22 2116 -22 1958.5 -36.5 c 128,-1,20
 1801 -51 1801 -51 1639 -55 c 1,21,22
 1637 -64 1637 -64 1637 -73 c 128,-1,23
 1637 -82 1637 -82 1637 -90 c 0,24,25
 1637 -137 1637 -137 1656 -173.5 c 128,-1,26
 1675 -210 1675 -210 1709 -238.5 c 128,-1,27
 1743 -267 1743 -267 1789 -287 c 128,-1,28
 1835 -307 1835 -307 1889 -319.5 c 128,-1,29
 1943 -332 1943 -332 2003 -338 c 128,-1,30
 2063 -344 2063 -344 2124 -344 c 0,31,32
 2149 -344 2149 -344 2174 -342 c 128,-1,33
 2199 -340 2199 -340 2224 -337 c 1,34,-1
 2224 -419 l 1,35,36
 2157 -434 2157 -434 2098 -447.5 c 128,-1,37
 2039 -461 2039 -461 1975 -470.5 c 128,-1,38
 1911 -480 1911 -480 1835 -485.5 c 128,-1,39
 1759 -491 1759 -491 1657 -491 c 0,40,41
 1564 -491 1564 -491 1474.5 -481 c 128,-1,42
 1385 -471 1385 -471 1315.5 -446.5 c 128,-1,43
 1246 -422 1246 -422 1203 -380.5 c 128,-1,44
 1160 -339 1160 -339 1160 -276 c 0,45,46
 1160 -245 1160 -245 1171 -214 c 128,-1,47
 1182 -183 1182 -183 1201.5 -154.5 c 128,-1,48
 1221 -126 1221 -126 1248 -100 c 128,-1,49
 1275 -74 1275 -74 1307 -53 c 1,50,51
 1152 -47 1152 -47 1003 -30 c 128,-1,52
 854 -13 854 -13 720.5 20.5 c 128,-1,53
 587 54 587 54 474 106 c 128,-1,54
 361 158 361 158 279 233.5 c 128,-1,55
 197 309 197 309 151 411 c 128,-1,56
 105 513 105 513 105 645 c 0,0,1
1270 645 m 0,57,58
 1270 519 1270 519 1279.5 411 c 128,-1,59
 1289 303 1289 303 1315 224.5 c 128,-1,60
 1341 146 1341 146 1387 101 c 128,-1,61
 1433 56 1433 56 1506 56 c 256,62,63
 1579 56 1579 56 1626.5 101 c 128,-1,64
 1674 146 1674 146 1702 224.5 c 128,-1,65
 1730 303 1730 303 1741.5 411 c 128,-1,66
 1753 519 1753 519 1753 645 c 256,67,68
 1753 771 1753 771 1741.5 879 c 128,-1,69
 1730 987 1730 987 1702 1066 c 128,-1,70
 1674 1145 1674 1145 1626.5 1189.5 c 128,-1,71
 1579 1234 1579 1234 1506 1234 c 0,72,73
 1457 1234 1457 1234 1420.5 1211 c 128,-1,74
 1384 1188 1384 1188 1358 1147.5 c 128,-1,75
 1332 1107 1332 1107 1315 1051 c 128,-1,76
 1298 995 1298 995 1288 929.5 c 128,-1,77
 1278 864 1278 864 1274 791.5 c 128,-1,78
 1270 719 1270 719 1270 645 c 0,57,58
EndSplineSet
Validated: 1
EndChar

StartChar: R
Encoding: 82 82 36
Width: 3399
Flags: W
LayerCount: 2
Fore
SplineSet
100 94 m 1,0,1
 250 99 250 99 349 129 c 128,-1,2
 448 159 448 159 507 225 c 128,-1,3
 566 291 566 291 590.5 398.5 c 128,-1,4
 615 506 615 506 615 668 c 0,5,6
 615 777 615 777 602.5 859 c 128,-1,7
 590 941 590 941 563.5 999.5 c 128,-1,8
 537 1058 537 1058 495.5 1096.5 c 128,-1,9
 454 1135 454 1135 397 1157 c 128,-1,10
 340 1179 340 1179 266 1188 c 128,-1,11
 192 1197 192 1197 100 1197 c 1,12,-1
 100 1291 l 1,13,-1
 1720 1291 l 2,14,15
 1980 1291 1980 1291 2185 1287 c 128,-1,16
 2390 1283 2390 1283 2545 1271.5 c 128,-1,17
 2700 1260 2700 1260 2809 1239 c 128,-1,18
 2918 1218 2918 1218 2986.5 1183 c 128,-1,19
 3055 1148 3055 1148 3086 1097 c 128,-1,20
 3117 1046 3117 1046 3117 976 c 256,21,22
 3117 906 3117 906 3078 852.5 c 128,-1,23
 3039 799 3039 799 2968 760 c 128,-1,24
 2897 721 2897 721 2797.5 694.5 c 128,-1,25
 2698 668 2698 668 2577 652 c 128,-1,26
 2456 636 2456 636 2317.5 629 c 128,-1,27
 2179 622 2179 622 2029 621 c 1,28,-1
 2454 621 l 2,29,30
 2588 621 2588 621 2686 611.5 c 128,-1,31
 2784 602 2784 602 2854 581.5 c 128,-1,32
 2924 561 2924 561 2971 529.5 c 128,-1,33
 3018 498 3018 498 3049 454.5 c 128,-1,34
 3080 411 3080 411 3100 355 c 128,-1,35
 3120 299 3120 299 3137 230 c 0,36,37
 3147 190 3147 190 3160.5 164 c 128,-1,38
 3174 138 3174 138 3197 122.5 c 128,-1,39
 3220 107 3220 107 3255 101 c 128,-1,40
 3290 95 3290 95 3344 95 c 1,41,-1
 3344 -6 l 1,42,43
 3231 -19 3231 -19 3135.5 -28.5 c 128,-1,44
 3040 -38 3040 -38 2957.5 -44.5 c 128,-1,45
 2875 -51 2875 -51 2804 -54 c 128,-1,46
 2733 -57 2733 -57 2669 -57 c 0,47,48
 2524 -57 2524 -57 2421.5 -51.5 c 128,-1,49
 2319 -46 2319 -46 2248.5 -31.5 c 128,-1,50
 2178 -17 2178 -17 2135.5 6.5 c 128,-1,51
 2093 30 2093 30 2068.5 66.5 c 128,-1,52
 2044 103 2044 103 2032.5 153.5 c 128,-1,53
 2021 204 2021 204 2014 271 c 0,54,55
 2005 352 2005 352 1987 407.5 c 128,-1,56
 1969 463 1969 463 1930.5 499 c 128,-1,57
 1892 535 1892 535 1826.5 553.5 c 128,-1,58
 1761 572 1761 572 1656 578 c 1,59,60
 1659 443 1659 443 1672.5 350.5 c 128,-1,61
 1686 258 1686 258 1714.5 201 c 128,-1,62
 1743 144 1743 144 1788 119 c 128,-1,63
 1833 94 1833 94 1899 94 c 1,64,-1
 1899 0 l 1,65,-1
 100 0 l 1,66,-1
 100 94 l 1,0,1
1655 688 m 1,67,68
 1752 692 1752 692 1835 705.5 c 128,-1,69
 1918 719 1918 719 1978 746.5 c 128,-1,70
 2038 774 2038 774 2072 819 c 128,-1,71
 2106 864 2106 864 2106 932 c 0,72,73
 2106 1003 2106 1003 2073.5 1048 c 128,-1,74
 2041 1093 2041 1093 1981.5 1119.5 c 128,-1,75
 1922 1146 1922 1146 1839 1157 c 128,-1,76
 1756 1168 1756 1168 1655 1171 c 1,77,-1
 1655 688 l 1,67,68
EndSplineSet
Validated: 1
EndChar

StartChar: M
Encoding: 77 77 37
Width: 3645
Flags: W
LayerCount: 2
Fore
SplineSet
100 94 m 1,0,1
 250 99 250 99 349 129 c 128,-1,2
 448 159 448 159 507 225 c 128,-1,3
 566 291 566 291 590.5 398.5 c 128,-1,4
 615 506 615 506 615 668 c 0,5,6
 615 832 615 832 584 935 c 128,-1,7
 553 1038 553 1038 488.5 1096.5 c 128,-1,8
 424 1155 424 1155 324 1176 c 128,-1,9
 224 1197 224 1197 86 1197 c 1,10,-1
 86 1291 l 1,11,-1
 1558 1291 l 1,12,-1
 1892 907 l 1,13,-1
 2126 1291 l 1,14,-1
 3590 1291 l 1,15,-1
 3590 1197 l 1,16,17
 3452 1197 3452 1197 3354.5 1176 c 128,-1,18
 3257 1155 3257 1155 3195 1096.5 c 128,-1,19
 3133 1038 3133 1038 3104.5 935 c 128,-1,20
 3076 832 3076 832 3076 668 c 0,21,22
 3076 506 3076 506 3100 398.5 c 128,-1,23
 3124 291 3124 291 3183 225 c 128,-1,24
 3242 159 3242 159 3341 129 c 128,-1,25
 3440 99 3440 99 3590 94 c 1,26,-1
 3590 0 l 1,27,-1
 1702 0 l 1,28,-1
 1702 94 l 1,29,30
 1801 97 1801 97 1871.5 119 c 128,-1,31
 1942 141 1942 141 1989 179 c 128,-1,32
 2036 217 2036 217 2063.5 269 c 128,-1,33
 2091 321 2091 321 2104.5 383.5 c 128,-1,34
 2118 446 2118 446 2122 518 c 128,-1,35
 2126 590 2126 590 2126 668 c 2,36,-1
 2126 1045 l 1,37,-1
 1449 -36 l 1,38,-1
 736 848 l 1,39,-1
 736 668 l 2,40,41
 736 590 736 590 739.5 518 c 128,-1,42
 743 446 743 446 757 383.5 c 128,-1,43
 771 321 771 321 798.5 269 c 128,-1,44
 826 217 826 217 873 179.5 c 128,-1,45
 920 142 920 142 990 119.5 c 128,-1,46
 1060 97 1060 97 1160 94 c 1,47,-1
 1160 0 l 1,48,-1
 100 0 l 1,49,-1
 100 94 l 1,0,1
EndSplineSet
Validated: 1
EndChar

StartChar: B
Encoding: 66 66 38
Width: 3300
Flags: W
LayerCount: 2
Fore
SplineSet
100 94 m 1,0,1
 250 99 250 99 349 129 c 128,-1,2
 448 159 448 159 507 225 c 128,-1,3
 566 291 566 291 590.5 398.5 c 128,-1,4
 615 506 615 506 615 668 c 0,5,6
 615 777 615 777 602.5 859 c 128,-1,7
 590 941 590 941 563.5 999.5 c 128,-1,8
 537 1058 537 1058 495.5 1096.5 c 128,-1,9
 454 1135 454 1135 397 1157 c 128,-1,10
 340 1179 340 1179 266 1188 c 128,-1,11
 192 1197 192 1197 100 1197 c 1,12,-1
 100 1291 l 1,13,-1
 1770 1291 l 2,14,15
 2035 1291 2035 1291 2234.5 1285 c 128,-1,16
 2434 1279 2434 1279 2579 1265 c 128,-1,17
 2724 1251 2724 1251 2819.5 1228 c 128,-1,18
 2915 1205 2915 1205 2971.5 1171 c 128,-1,19
 3028 1137 3028 1137 3051 1091 c 128,-1,20
 3074 1045 3074 1045 3074 986 c 0,21,22
 3074 918 3074 918 3030.5 869 c 128,-1,23
 2987 820 2987 820 2911 786.5 c 128,-1,24
 2835 753 2835 753 2731.5 732 c 128,-1,25
 2628 711 2628 711 2507.5 699.5 c 128,-1,26
 2387 688 2387 688 2256 684 c 128,-1,27
 2125 680 2125 680 1993 679 c 1,28,29
 2156 678 2156 678 2313 674.5 c 128,-1,30
 2470 671 2470 671 2610 659 c 128,-1,31
 2750 647 2750 647 2869 625 c 128,-1,32
 2988 603 2988 603 3074 565.5 c 128,-1,33
 3160 528 3160 528 3208.5 473 c 128,-1,34
 3257 418 3257 418 3257 341 c 0,35,36
 3257 226 3257 226 3164.5 158.5 c 128,-1,37
 3072 91 3072 91 2890 55.5 c 128,-1,38
 2708 20 2708 20 2438.5 10 c 128,-1,39
 2169 0 2169 0 1815 0 c 2,40,-1
 100 0 l 1,41,-1
 100 94 l 1,0,1
1684 751 m 1,42,-1
 1687 750 l 1,43,44
 1785 752 1785 752 1862.5 761.5 c 128,-1,45
 1940 771 1940 771 1994 794.5 c 128,-1,46
 2048 818 2048 818 2077 858.5 c 128,-1,47
 2106 899 2106 899 2106 963 c 0,48,49
 2106 1028 2106 1028 2074.5 1068.5 c 128,-1,50
 2043 1109 2043 1109 1984.5 1131.5 c 128,-1,51
 1926 1154 1926 1154 1842.5 1162 c 128,-1,52
 1759 1170 1759 1170 1655 1171 c 1,53,-1
 1655 751 l 1,54,-1
 1684 751 l 1,42,-1
1655 128 m 1,55,56
 1751 128 1751 128 1840.5 135 c 128,-1,57
 1930 142 1930 142 1999 168 c 128,-1,58
 2068 194 2068 194 2109.5 244.5 c 128,-1,59
 2151 295 2151 295 2151 382 c 256,60,61
 2151 469 2151 469 2111 519 c 128,-1,62
 2071 569 2071 569 2002.5 594 c 128,-1,63
 1934 619 1934 619 1844 625.5 c 128,-1,64
 1754 632 1754 632 1655 632 c 1,65,-1
 1655 128 l 1,55,56
EndSplineSet
Validated: 1
EndChar

StartChar: U
Encoding: 85 85 39
Width: 3450
Flags: W
LayerCount: 2
Fore
SplineSet
605 678 m 2,0,1
 605 841 605 841 574.5 942.5 c 128,-1,2
 544 1044 544 1044 481 1100.5 c 128,-1,3
 418 1157 418 1157 321 1177 c 128,-1,4
 224 1197 224 1197 90 1197 c 1,5,-1
 90 1291 l 1,6,-1
 2113 1291 l 1,7,-1
 2113 1197 l 1,8,9
 2020 1197 2020 1197 1949 1170 c 128,-1,10
 1878 1143 1878 1143 1830.5 1081 c 128,-1,11
 1783 1019 1783 1019 1758.5 916.5 c 128,-1,12
 1734 814 1734 814 1734 663 c 0,13,14
 1734 528 1734 528 1778.5 426 c 128,-1,15
 1823 324 1823 324 1896 255.5 c 128,-1,16
 1969 187 1969 187 2063.5 153 c 128,-1,17
 2158 119 2158 119 2257 119 c 0,18,19
 2364 119 2364 119 2454.5 151 c 128,-1,20
 2545 183 2545 183 2611 249 c 128,-1,21
 2677 315 2677 315 2714 416 c 128,-1,22
 2751 517 2751 517 2751 654 c 0,23,24
 2751 809 2751 809 2727 913 c 128,-1,25
 2703 1017 2703 1017 2655.5 1080 c 128,-1,26
 2608 1143 2608 1143 2536.5 1170 c 128,-1,27
 2465 1197 2465 1197 2371 1197 c 1,28,-1
 2371 1291 l 1,29,-1
 3423 1291 l 1,30,-1
 3423 1197 l 1,31,32
 3285 1197 3285 1197 3184.5 1178 c 128,-1,33
 3084 1159 3084 1159 3019 1103.5 c 128,-1,34
 2954 1048 2954 1048 2922.5 946.5 c 128,-1,35
 2891 845 2891 845 2891 681 c 0,36,37
 2891 522 2891 522 2859 405.5 c 128,-1,38
 2827 289 2827 289 2766 207 c 128,-1,39
 2705 125 2705 125 2617.5 73.5 c 128,-1,40
 2530 22 2530 22 2419 -7 c 128,-1,41
 2308 -36 2308 -36 2176 -46.5 c 128,-1,42
 2044 -57 2044 -57 1894 -57 c 0,43,44
 1733 -57 1733 -57 1574.5 -51.5 c 128,-1,45
 1416 -46 1416 -46 1273 -24 c 128,-1,46
 1130 -2 1130 -2 1007.5 40.5 c 128,-1,47
 885 83 885 83 795.5 158 c 128,-1,48
 706 233 706 233 655.5 344.5 c 128,-1,49
 605 456 605 456 605 615 c 2,50,-1
 605 678 l 2,0,1
EndSplineSet
Validated: 1
EndChar

StartChar: V
Encoding: 86 86 40
Width: 3110
Flags: W
LayerCount: 2
Fore
SplineSet
982 0 m 1,0,1
 857 273 857 273 740 494.5 c 128,-1,2
 623 716 623 716 513.5 872 c 128,-1,3
 404 1028 404 1028 301 1112.5 c 128,-1,4
 198 1197 198 1197 100 1197 c 1,5,-1
 100 1291 l 1,6,-1
 1875 1291 l 1,7,-1
 1875 1197 l 1,8,9
 1823 1197 1823 1197 1777.5 1191 c 128,-1,10
 1732 1185 1732 1185 1698.5 1170 c 128,-1,11
 1665 1155 1665 1155 1646 1129 c 128,-1,12
 1627 1103 1627 1103 1627 1063 c 0,13,14
 1627 1039 1627 1039 1642.5 988 c 128,-1,15
 1658 937 1658 937 1685.5 867 c 128,-1,16
 1713 797 1713 797 1749.5 712.5 c 128,-1,17
 1786 628 1786 628 1828.5 537.5 c 128,-1,18
 1871 447 1871 447 1917.5 354.5 c 128,-1,19
 1964 262 1964 262 2010 177 c 1,20,21
 2029 206 2029 206 2056 255 c 128,-1,22
 2083 304 2083 304 2114 365.5 c 128,-1,23
 2145 427 2145 427 2178.5 496.5 c 128,-1,24
 2212 566 2212 566 2243.5 636.5 c 128,-1,25
 2275 707 2275 707 2303.5 774 c 128,-1,26
 2332 841 2332 841 2353.5 897.5 c 128,-1,27
 2375 954 2375 954 2387.5 996 c 128,-1,28
 2400 1038 2400 1038 2400 1058 c 0,29,30
 2400 1093 2400 1093 2387.5 1119 c 128,-1,31
 2375 1145 2375 1145 2346 1162.5 c 128,-1,32
 2317 1180 2317 1180 2270 1188.5 c 128,-1,33
 2223 1197 2223 1197 2153 1197 c 1,34,-1
 2153 1291 l 1,35,-1
 3055 1291 l 1,36,-1
 3055 1197 l 1,37,38
 2958 1197 2958 1197 2873.5 1163.5 c 128,-1,39
 2789 1130 2789 1130 2712 1063 c 128,-1,40
 2635 996 2635 996 2563 895.5 c 128,-1,41
 2491 795 2491 795 2418.5 662 c 128,-1,42
 2346 529 2346 529 2270.5 363.5 c 128,-1,43
 2195 198 2195 198 2112 0 c 1,44,-1
 982 0 l 1,0,1
EndSplineSet
Validated: 1
EndChar

StartChar: W
Encoding: 87 87 41
Width: 4266
Flags: W
LayerCount: 2
Fore
SplineSet
823 0 m 1,0,1
 782 162 782 162 736.5 315 c 128,-1,2
 691 468 691 468 647 596.5 c 128,-1,3
 603 725 603 725 564 822 c 128,-1,4
 525 919 525 919 497 970 c 0,5,6
 462 1033 462 1033 417 1076 c 128,-1,7
 372 1119 372 1119 320.5 1146 c 128,-1,8
 269 1173 269 1173 213 1185 c 128,-1,9
 157 1197 157 1197 100 1197 c 1,10,-1
 100 1291 l 1,11,-1
 1687 1291 l 1,12,-1
 1687 1194 l 1,13,14
 1625 1194 1625 1194 1594 1157.5 c 128,-1,15
 1563 1121 1563 1121 1563 1063 c 0,16,17
 1563 1039 1563 1039 1569.5 993.5 c 128,-1,18
 1576 948 1576 948 1588.5 887 c 128,-1,19
 1601 826 1601 826 1620.5 752 c 128,-1,20
 1640 678 1640 678 1666 596.5 c 128,-1,21
 1692 515 1692 515 1724.5 430 c 128,-1,22
 1757 345 1757 345 1797 262 c 1,23,24
 1837 379 1837 379 1875 489.5 c 128,-1,25
 1913 600 1913 600 1942.5 698 c 128,-1,26
 1972 796 1972 796 1990 879.5 c 128,-1,27
 2008 963 2008 963 2008 1027 c 0,28,29
 2008 1104 2008 1104 1977 1147.5 c 128,-1,30
 1946 1191 1946 1191 1873 1191 c 1,31,-1
 1873 1291 l 1,32,-1
 3250 1291 l 1,33,-1
 3250 1195 l 1,34,35
 3216 1195 3216 1195 3191 1184 c 128,-1,36
 3166 1173 3166 1173 3149.5 1154.5 c 128,-1,37
 3133 1136 3133 1136 3124.5 1112 c 128,-1,38
 3116 1088 3116 1088 3116 1063 c 0,39,40
 3116 1027 3116 1027 3128.5 943 c 128,-1,41
 3141 859 3141 859 3168.5 747.5 c 128,-1,42
 3196 636 3196 636 3239 507 c 128,-1,43
 3282 378 3282 378 3342 252 c 1,44,45
 3366 310 3366 310 3391.5 380 c 128,-1,46
 3417 450 3417 450 3440.5 525 c 128,-1,47
 3464 600 3464 600 3485.5 676.5 c 128,-1,48
 3507 753 3507 753 3522.5 823 c 128,-1,49
 3538 893 3538 893 3547.5 953.5 c 128,-1,50
 3557 1014 3557 1014 3557 1058 c 0,51,52
 3557 1081 3557 1081 3548.5 1105.5 c 128,-1,53
 3540 1130 3540 1130 3522.5 1150 c 128,-1,54
 3505 1170 3505 1170 3478 1183 c 128,-1,55
 3451 1196 3451 1196 3414 1196 c 1,56,-1
 3414 1291 l 1,57,-1
 4211 1291 l 1,58,-1
 4211 1197 l 1,59,60
 4108 1197 4108 1197 4027.5 1163.5 c 128,-1,61
 3947 1130 3947 1130 3881.5 1063 c 128,-1,62
 3816 996 3816 996 3760.5 895.5 c 128,-1,63
 3705 795 3705 795 3652.5 662 c 128,-1,64
 3600 529 3600 529 3546.5 363.5 c 128,-1,65
 3493 198 3493 198 3431 0 c 1,66,-1
 2390 0 l 1,67,68
 2318 239 2318 239 2257.5 425.5 c 128,-1,69
 2197 612 2197 612 2145 757 c 1,70,71
 2085 613 2085 613 2026 424 c 128,-1,72
 1967 235 1967 235 1891 0 c 1,73,-1
 823 0 l 1,0,1
EndSplineSet
Validated: 1
EndChar

StartChar: Z
Encoding: 90 90 42
Width: 2742
Flags: W
LayerCount: 2
Fore
SplineSet
95 108 m 1,0,1
 133 108 133 108 175.5 125.5 c 128,-1,2
 218 143 218 143 276 188.5 c 128,-1,3
 334 234 334 234 413 311.5 c 128,-1,4
 492 389 492 389 603.5 509 c 128,-1,5
 715 629 715 629 865.5 795.5 c 128,-1,6
 1016 962 1016 962 1216 1186 c 1,7,8
 1038 1185 1038 1185 901 1178 c 128,-1,9
 764 1171 764 1171 662.5 1154.5 c 128,-1,10
 561 1138 561 1138 491.5 1109.5 c 128,-1,11
 422 1081 422 1081 380 1037 c 128,-1,12
 338 993 338 993 319.5 930.5 c 128,-1,13
 301 868 301 868 301 784 c 1,14,15
 300 784 300 784 285.5 783.5 c 128,-1,16
 271 783 271 783 253 783 c 2,17,-1
 205 783 l 1,18,-1
 205 1291 l 1,19,-1
 2673 1291 l 1,20,-1
 2673 1197 l 1,21,22
 2632 1197 2632 1197 2592.5 1178.5 c 128,-1,23
 2553 1160 2553 1160 2501 1114 c 128,-1,24
 2449 1068 2449 1068 2377 989.5 c 128,-1,25
 2305 911 2305 911 2200 790.5 c 128,-1,26
 2095 670 2095 670 1949.5 503 c 128,-1,27
 1804 336 1804 336 1604 113 c 1,28,29
 1869 116 1869 116 2055.5 131.5 c 128,-1,30
 2242 147 2242 147 2359.5 189.5 c 128,-1,31
 2477 232 2477 232 2530.5 308 c 128,-1,32
 2584 384 2584 384 2584 507 c 1,33,-1
 2631 507 l 2,34,35
 2651 507 2651 507 2677 508 c 1,36,-1
 2677 0 l 1,37,-1
 95 0 l 1,38,-1
 95 108 l 1,0,1
EndSplineSet
Validated: 1
EndChar

StartChar: X
Encoding: 88 88 43
Width: 3209
Flags: W
LayerCount: 2
Fore
SplineSet
100 94 m 1,0,1
 144 94 144 94 205.5 115 c 128,-1,2
 267 136 267 136 340 174 c 128,-1,3
 413 212 413 212 495.5 265 c 128,-1,4
 578 318 578 318 665.5 381 c 128,-1,5
 753 444 753 444 842.5 516 c 128,-1,6
 932 588 932 588 1019 664 c 1,7,8
 962 731 962 731 901.5 797 c 128,-1,9
 841 863 841 863 782.5 920.5 c 128,-1,10
 724 978 724 978 668.5 1024 c 128,-1,11
 613 1070 613 1070 566 1098 c 0,12,13
 521 1124 521 1124 465 1143 c 128,-1,14
 409 1162 409 1162 351.5 1174 c 128,-1,15
 294 1186 294 1186 238 1191.5 c 128,-1,16
 182 1197 182 1197 137 1197 c 1,17,-1
 137 1291 l 1,18,-1
 2060 1291 l 1,19,-1
 2060 1197 l 1,20,21
 2026 1197 2026 1197 1996 1191.5 c 128,-1,22
 1966 1186 1966 1186 1944 1175 c 128,-1,23
 1922 1164 1922 1164 1909.5 1146.5 c 128,-1,24
 1897 1129 1897 1129 1897 1105 c 0,25,26
 1897 1097 1897 1097 1913.5 1070 c 128,-1,27
 1930 1043 1930 1043 1960 1001 c 128,-1,28
 1990 959 1990 959 2031 905.5 c 128,-1,29
 2072 852 2072 852 2121 792 c 1,30,31
 2179 834 2179 834 2232.5 877 c 128,-1,32
 2286 920 2286 920 2326.5 960 c 128,-1,33
 2367 1000 2367 1000 2391.5 1033.5 c 128,-1,34
 2416 1067 2416 1067 2416 1090 c 0,35,36
 2416 1197 2416 1197 2244 1197 c 1,37,-1
 2244 1291 l 1,38,-1
 3061 1291 l 1,39,-1
 3061 1197 l 1,40,41
 3019 1197 3019 1197 2979.5 1187.5 c 128,-1,42
 2940 1178 2940 1178 2897.5 1160 c 128,-1,43
 2855 1142 2855 1142 2807 1115.5 c 128,-1,44
 2759 1089 2759 1089 2699 1055 c 0,45,46
 2559 974 2559 974 2434 888 c 128,-1,47
 2309 802 2309 802 2188 711 c 1,48,49
 2249 639 2249 639 2315.5 565.5 c 128,-1,50
 2382 492 2382 492 2447.5 426.5 c 128,-1,51
 2513 361 2513 361 2575.5 307.5 c 128,-1,52
 2638 254 2638 254 2691 222 c 0,53,54
 2750 186 2750 186 2811 161.5 c 128,-1,55
 2872 137 2872 137 2932 122 c 128,-1,56
 2992 107 2992 107 3048.5 100.5 c 128,-1,57
 3105 94 3105 94 3154 94 c 1,58,-1
 3154 0 l 1,59,-1
 1147 0 l 1,60,-1
 1147 94 l 1,61,62
 1186 94 1186 94 1222.5 99.5 c 128,-1,63
 1259 105 1259 105 1288 117.5 c 128,-1,64
 1317 130 1317 130 1334.5 151.5 c 128,-1,65
 1352 173 1352 173 1352 205 c 0,66,67
 1352 215 1352 215 1332 248.5 c 128,-1,68
 1312 282 1312 282 1277 332 c 128,-1,69
 1242 382 1242 382 1194 445 c 128,-1,70
 1146 508 1146 508 1091 577 c 1,71,72
 1029 527 1029 527 967 472 c 128,-1,73
 905 417 905 417 855.5 365.5 c 128,-1,74
 806 314 806 314 775 270.5 c 128,-1,75
 744 227 744 227 744 201 c 0,76,77
 744 94 744 94 952 94 c 1,78,-1
 952 0 l 1,79,-1
 100 0 l 1,80,-1
 100 94 l 1,0,1
EndSplineSet
Validated: 1
EndChar

StartChar: g
Encoding: 103 103 44
Width: 2602
Flags: W
LayerCount: 2
Fore
SplineSet
2 -275 m 0,0,1
 2 -234 2 -234 41 -201.5 c 128,-1,2
 80 -169 80 -169 146.5 -145 c 128,-1,3
 213 -121 213 -121 300 -103.5 c 128,-1,4
 387 -86 387 -86 483 -75 c 1,5,6
 401 -40 401 -40 350.5 9.5 c 128,-1,7
 300 59 300 59 300 122 c 0,8,9
 300 166 300 166 326 203.5 c 128,-1,10
 352 241 352 241 396.5 272 c 128,-1,11
 441 303 441 303 500.5 326.5 c 128,-1,12
 560 350 560 350 628 365 c 1,13,14
 520 383 520 383 430 411.5 c 128,-1,15
 340 440 340 440 275 480 c 128,-1,16
 210 520 210 520 174 572.5 c 128,-1,17
 138 625 138 625 138 692 c 0,18,19
 138 763 138 763 179 820.5 c 128,-1,20
 220 878 220 878 292.5 922.5 c 128,-1,21
 365 967 365 967 465 999 c 128,-1,22
 565 1031 565 1031 683.5 1051.5 c 128,-1,23
 802 1072 802 1072 934.5 1082 c 128,-1,24
 1067 1092 1067 1092 1204 1092 c 0,25,26
 1378 1092 1378 1092 1540.5 1076.5 c 128,-1,27
 1703 1061 1703 1061 1841 1027 c 1,28,29
 1875 1106 1875 1106 1932.5 1149.5 c 128,-1,30
 1990 1193 1990 1193 2060 1213.5 c 128,-1,31
 2130 1234 2130 1234 2207 1238 c 128,-1,32
 2284 1242 2284 1242 2358 1242 c 0,33,34
 2381 1242 2381 1242 2405 1242 c 128,-1,35
 2429 1242 2429 1242 2456 1241 c 128,-1,36
 2483 1240 2483 1240 2515 1239 c 128,-1,37
 2547 1238 2547 1238 2585 1236 c 1,38,39
 2583 1226 2583 1226 2581 1206.5 c 128,-1,40
 2579 1187 2579 1187 2575 1163 c 128,-1,41
 2571 1139 2571 1139 2565 1115 c 128,-1,42
 2559 1091 2559 1091 2549 1072 c 0,43,44
 2538 1051 2538 1051 2515.5 1037 c 128,-1,45
 2493 1023 2493 1023 2464.5 1014 c 128,-1,46
 2436 1005 2436 1005 2404.5 1001.5 c 128,-1,47
 2373 998 2373 998 2345 998 c 2,48,-1
 2113 998 l 2,49,50
 2075 998 2075 998 2039.5 996.5 c 128,-1,51
 2004 995 2004 995 1973 988 c 1,52,53
 2041 964 2041 964 2096 933.5 c 128,-1,54
 2151 903 2151 903 2189.5 866.5 c 128,-1,55
 2228 830 2228 830 2249 786.5 c 128,-1,56
 2270 743 2270 743 2270 692 c 0,57,58
 2270 621 2270 621 2229.5 566 c 128,-1,59
 2189 511 2189 511 2116.5 470 c 128,-1,60
 2044 429 2044 429 1944 401.5 c 128,-1,61
 1844 374 1844 374 1725.5 357 c 128,-1,62
 1607 340 1607 340 1474.5 332.5 c 128,-1,63
 1342 325 1342 325 1204 325 c 0,64,65
 1092 325 1092 325 984 329.5 c 128,-1,66
 876 334 876 334 775 345 c 1,67,-1
 776 340 l 1,68,69
 761 340 761 340 746 335 c 128,-1,70
 731 330 731 330 719 322 c 128,-1,71
 707 314 707 314 699.5 302 c 128,-1,72
 692 290 692 290 692 277 c 0,73,74
 692 253 692 253 718 236 c 128,-1,75
 744 219 744 219 787.5 209 c 128,-1,76
 831 199 831 199 888 194.5 c 128,-1,77
 945 190 945 190 1007 190 c 2,78,-1
 1537 190 l 2,79,80
 1655 190 1655 190 1772 190 c 128,-1,81
 1889 190 1889 190 1996 183.5 c 128,-1,82
 2103 177 2103 177 2194.5 161 c 128,-1,83
 2286 145 2286 145 2353 113 c 128,-1,84
 2420 81 2420 81 2458.5 29.5 c 128,-1,85
 2497 -22 2497 -22 2497 -99 c 0,86,87
 2497 -171 2497 -171 2464 -226.5 c 128,-1,88
 2431 -282 2431 -282 2372 -324 c 128,-1,89
 2313 -366 2313 -366 2231.5 -395.5 c 128,-1,90
 2150 -425 2150 -425 2054.5 -445 c 128,-1,91
 1959 -465 1959 -465 1852 -477 c 128,-1,92
 1745 -489 1745 -489 1634.5 -495 c 128,-1,93
 1524 -501 1524 -501 1413 -503 c 128,-1,94
 1302 -505 1302 -505 1199 -505 c 0,95,96
 1055 -505 1055 -505 910 -502.5 c 128,-1,97
 765 -500 765 -500 632 -491.5 c 128,-1,98
 499 -483 499 -483 384 -467.5 c 128,-1,99
 269 -452 269 -452 184 -426.5 c 128,-1,100
 99 -401 99 -401 50.5 -364 c 128,-1,101
 2 -327 2 -327 2 -275 c 0,0,1
1001 708 m 0,102,103
 1001 654 1001 654 1012 605 c 128,-1,104
 1023 556 1023 556 1047 518 c 128,-1,105
 1071 480 1071 480 1109.5 457.5 c 128,-1,106
 1148 435 1148 435 1203 435 c 256,107,108
 1258 435 1258 435 1297 457.5 c 128,-1,109
 1336 480 1336 480 1360.5 518 c 128,-1,110
 1385 556 1385 556 1396 605 c 128,-1,111
 1407 654 1407 654 1407 708 c 0,112,113
 1407 765 1407 765 1396 815 c 128,-1,114
 1385 865 1385 865 1360.5 902.5 c 128,-1,115
 1336 940 1336 940 1297 961.5 c 128,-1,116
 1258 983 1258 983 1203 983 c 256,117,118
 1148 983 1148 983 1109.5 961.5 c 128,-1,119
 1071 940 1071 940 1047 902.5 c 128,-1,120
 1023 865 1023 865 1012 815 c 128,-1,121
 1001 765 1001 765 1001 708 c 0,102,103
719 -268 m 0,122,123
 719 -308 719 -308 756.5 -333.5 c 128,-1,124
 794 -359 794 -359 863 -373 c 128,-1,125
 932 -387 932 -387 1029 -392.5 c 128,-1,126
 1126 -398 1126 -398 1245 -398 c 0,127,128
 1307 -398 1307 -398 1372 -396.5 c 128,-1,129
 1437 -395 1437 -395 1499 -391 c 128,-1,130
 1561 -387 1561 -387 1616 -378.5 c 128,-1,131
 1671 -370 1671 -370 1712 -357 c 128,-1,132
 1753 -344 1753 -344 1777 -324.5 c 128,-1,133
 1801 -305 1801 -305 1801 -278 c 0,134,135
 1801 -248 1801 -248 1770 -227 c 128,-1,136
 1739 -206 1739 -206 1681.5 -192.5 c 128,-1,137
 1624 -179 1624 -179 1543 -171 c 128,-1,138
 1462 -163 1462 -163 1362 -159.5 c 128,-1,139
 1262 -156 1262 -156 1146.5 -155 c 128,-1,140
 1031 -154 1031 -154 904 -154 c 0,141,142
 874 -154 874 -154 843.5 -152 c 128,-1,143
 813 -150 813 -150 783 -147 c 1,144,145
 719 -192 719 -192 719 -268 c 0,122,123
EndSplineSet
Validated: 1
EndChar

StartChar: v
Encoding: 118 118 45
Width: 2622
Flags: W
LayerCount: 2
Fore
SplineSet
820 0 m 1,0,1
 774 74 774 74 726.5 154.5 c 128,-1,2
 679 235 679 235 632 315 c 128,-1,3
 585 395 585 395 539 472.5 c 128,-1,4
 493 550 493 550 451 617.5 c 128,-1,5
 409 685 409 685 370.5 741 c 128,-1,6
 332 797 332 797 300 834 c 0,7,8
 272 866 272 866 233.5 888.5 c 128,-1,9
 195 911 195 911 154.5 925.5 c 128,-1,10
 114 940 114 940 75.5 946.5 c 128,-1,11
 37 953 37 953 10 953 c 1,12,-1
 10 1047 l 1,13,-1
 1636 1047 l 1,14,-1
 1636 953 l 1,15,16
 1600 953 1600 953 1553 949.5 c 128,-1,17
 1506 946 1506 946 1464.5 936 c 128,-1,18
 1423 926 1423 926 1394.5 909 c 128,-1,19
 1366 892 1366 892 1366 865 c 0,20,21
 1366 847 1366 847 1383.5 803 c 128,-1,22
 1401 759 1401 759 1430.5 698.5 c 128,-1,23
 1460 638 1460 638 1499 565 c 128,-1,24
 1538 492 1538 492 1581.5 416.5 c 128,-1,25
 1625 341 1625 341 1669.5 267 c 128,-1,26
 1714 193 1714 193 1755 130 c 1,27,28
 1774 155 1774 155 1807.5 213.5 c 128,-1,29
 1841 272 1841 272 1880 347 c 128,-1,30
 1919 422 1919 422 1960 504 c 128,-1,31
 2001 586 2001 586 2034 659 c 128,-1,32
 2067 732 2067 732 2088 786.5 c 128,-1,33
 2109 841 2109 841 2109 861 c 0,34,35
 2109 886 2109 886 2085 903.5 c 128,-1,36
 2061 921 2061 921 2022.5 932 c 128,-1,37
 1984 943 1984 943 1936 948 c 128,-1,38
 1888 953 1888 953 1839 953 c 1,39,-1
 1839 1047 l 1,40,-1
 2612 1047 l 1,41,-1
 2612 953 l 1,42,43
 2570 953 2570 953 2524 947.5 c 128,-1,44
 2478 942 2478 942 2434.5 927.5 c 128,-1,45
 2391 913 2391 913 2352 886.5 c 128,-1,46
 2313 860 2313 860 2283 818 c 0,47,48
 2252 774 2252 774 2218.5 717 c 128,-1,49
 2185 660 2185 660 2150 593 c 128,-1,50
 2115 526 2115 526 2078 452.5 c 128,-1,51
 2041 379 2041 379 2002.5 303 c 128,-1,52
 1964 227 1964 227 1924 150 c 128,-1,53
 1884 73 1884 73 1844 0 c 1,54,-1
 820 0 l 1,0,1
EndSplineSet
Validated: 1
EndChar

StartChar: z
Encoding: 122 122 46
Width: 2459
Flags: W
LayerCount: 2
Fore
SplineSet
136 104 m 1,0,1
 157 104 157 104 175 110.5 c 128,-1,2
 193 117 193 117 216 134 c 128,-1,3
 239 151 239 151 269.5 180.5 c 128,-1,4
 300 210 300 210 346 256 c 128,-1,5
 392 302 392 302 456 366 c 128,-1,6
 520 430 520 430 609.5 517 c 128,-1,7
 699 604 699 604 817.5 714.5 c 128,-1,8
 936 825 936 825 1090 964 c 1,9,10
 885 960 885 960 736 944.5 c 128,-1,11
 587 929 587 929 490 894.5 c 128,-1,12
 393 860 393 860 346.5 803.5 c 128,-1,13
 300 747 300 747 300 660 c 1,14,-1
 187 660 l 1,15,-1
 187 1047 l 1,16,-1
 2345 1047 l 1,17,-1
 2345 953 l 1,18,19
 2331 953 2331 953 2318.5 947 c 128,-1,20
 2306 941 2306 941 2287.5 925 c 128,-1,21
 2269 909 2269 909 2241 880.5 c 128,-1,22
 2213 852 2213 852 2168.5 806.5 c 128,-1,23
 2124 761 2124 761 2059.5 696.5 c 128,-1,24
 1995 632 1995 632 1903.5 544.5 c 128,-1,25
 1812 457 1812 457 1690 344 c 128,-1,26
 1568 231 1568 231 1408 88 c 1,27,28
 1610 91 1610 91 1762.5 104.5 c 128,-1,29
 1915 118 1915 118 2016.5 151 c 128,-1,30
 2118 184 2118 184 2169 241 c 128,-1,31
 2220 298 2220 298 2220 387 c 1,32,-1
 2333 387 l 1,33,-1
 2333 0 l 1,34,-1
 136 0 l 1,35,-1
 136 104 l 1,0,1
EndSplineSet
Validated: 1
EndChar

StartChar: x
Encoding: 120 120 47
Width: 2741
Flags: W
LayerCount: 2
Fore
SplineSet
75 94 m 1,0,1
 117 94 117 94 159 107 c 128,-1,2
 201 120 201 120 242.5 142 c 128,-1,3
 284 164 284 164 325.5 193.5 c 128,-1,4
 367 223 367 223 408 256 c 0,5,6
 526 350 526 350 620.5 427.5 c 128,-1,7
 715 505 715 505 791 573 c 1,8,9
 720 642 720 642 642 709 c 128,-1,10
 564 776 564 776 485 834 c 0,11,12
 461 851 461 851 427 866.5 c 128,-1,13
 393 882 393 882 354.5 895.5 c 128,-1,14
 316 909 316 909 274.5 919.5 c 128,-1,15
 233 930 233 930 195.5 937.5 c 128,-1,16
 158 945 158 945 126.5 949 c 128,-1,17
 95 953 95 953 75 953 c 1,18,-1
 75 1047 l 1,19,-1
 1861 1047 l 1,20,-1
 1861 953 l 1,21,22
 1825 953 1825 953 1795 949.5 c 128,-1,23
 1765 946 1765 946 1743.5 936 c 128,-1,24
 1722 926 1722 926 1710 909 c 128,-1,25
 1698 892 1698 892 1698 865 c 0,26,27
 1698 854 1698 854 1712.5 828.5 c 128,-1,28
 1727 803 1727 803 1754 768 c 128,-1,29
 1781 733 1781 733 1818 689 c 128,-1,30
 1855 645 1855 645 1900 596 c 1,31,32
 1954 633 1954 633 2007 670.5 c 128,-1,33
 2060 708 2060 708 2102.5 743 c 128,-1,34
 2145 778 2145 778 2171.5 808 c 128,-1,35
 2198 838 2198 838 2198 861 c 0,36,37
 2198 877 2198 877 2190.5 893 c 128,-1,38
 2183 909 2183 909 2166 922.5 c 128,-1,39
 2149 936 2149 936 2121.5 944.5 c 128,-1,40
 2094 953 2094 953 2054 953 c 1,41,-1
 2054 1047 l 1,42,-1
 2730 1047 l 1,43,-1
 2730 953 l 1,44,45
 2695 953 2695 953 2654.5 944 c 128,-1,46
 2614 935 2614 935 2571 918 c 128,-1,47
 2528 901 2528 901 2484 876 c 128,-1,48
 2440 851 2440 851 2399 818 c 0,49,50
 2287 729 2287 729 2184 648.5 c 128,-1,51
 2081 568 2081 568 1996 497 c 1,52,53
 2072 422 2072 422 2157 348 c 128,-1,54
 2242 274 2242 274 2329 212 c 0,55,56
 2364 187 2364 187 2419.5 165.5 c 128,-1,57
 2475 144 2475 144 2533 128 c 128,-1,58
 2591 112 2591 112 2643.5 103 c 128,-1,59
 2696 94 2696 94 2726 94 c 1,60,-1
 2726 0 l 1,61,-1
 953 0 l 1,62,-1
 953 94 l 1,63,64
 989 94 989 94 1019 97.5 c 128,-1,65
 1049 101 1049 101 1070.5 111 c 128,-1,66
 1092 121 1092 121 1104 138 c 128,-1,67
 1116 155 1116 155 1116 182 c 0,68,69
 1116 194 1116 194 1099 222 c 128,-1,70
 1082 250 1082 250 1052 289 c 128,-1,71
 1022 328 1022 328 980 376 c 128,-1,72
 938 424 938 424 887 477 c 1,73,74
 833 440 833 440 778.5 398.5 c 128,-1,75
 724 357 724 357 680.5 317.5 c 128,-1,76
 637 278 637 278 609.5 243.5 c 128,-1,77
 582 209 582 209 582 185 c 0,78,79
 582 170 582 170 589.5 153.5 c 128,-1,80
 597 137 597 137 614 124 c 128,-1,81
 631 111 631 111 658.5 102.5 c 128,-1,82
 686 94 686 94 726 94 c 1,83,-1
 726 0 l 1,84,-1
 75 0 l 1,85,-1
 75 94 l 1,0,1
EndSplineSet
Validated: 1
EndChar

StartChar: w
Encoding: 119 119 48
Width: 3837
Flags: W
LayerCount: 2
Fore
SplineSet
722 0 m 1,0,1
 698 52 698 52 667.5 123.5 c 128,-1,2
 637 195 637 195 602.5 275.5 c 128,-1,3
 568 356 568 356 530.5 439.5 c 128,-1,4
 493 523 493 523 455 598.5 c 128,-1,5
 417 674 417 674 380 735.5 c 128,-1,6
 343 797 343 797 310 834 c 1,7,8
 280 866 280 866 240.5 888.5 c 128,-1,9
 201 911 201 911 160 925.5 c 128,-1,10
 119 940 119 940 79.5 946.5 c 128,-1,11
 40 953 40 953 10 953 c 1,12,-1
 10 1047 l 1,13,-1
 1480 1047 l 1,14,-1
 1480 953 l 1,15,16
 1409 953 1409 953 1367.5 931.5 c 128,-1,17
 1326 910 1326 910 1326 874 c 0,18,19
 1326 855 1326 855 1336.5 811.5 c 128,-1,20
 1347 768 1347 768 1365.5 708.5 c 128,-1,21
 1384 649 1384 649 1408.5 577.5 c 128,-1,22
 1433 506 1433 506 1462 431.5 c 128,-1,23
 1491 357 1491 357 1523 283 c 128,-1,24
 1555 209 1555 209 1587 145 c 1,25,26
 1607 186 1607 186 1632 245.5 c 128,-1,27
 1657 305 1657 305 1682 372.5 c 128,-1,28
 1707 440 1707 440 1731 511 c 128,-1,29
 1755 582 1755 582 1773.5 646.5 c 128,-1,30
 1792 711 1792 711 1803.5 763.5 c 128,-1,31
 1815 816 1815 816 1815 848 c 0,32,33
 1815 883 1815 883 1804.5 903.5 c 128,-1,34
 1794 924 1794 924 1772 935 c 128,-1,35
 1750 946 1750 946 1717 949.5 c 128,-1,36
 1684 953 1684 953 1638 953 c 1,37,-1
 1638 1047 l 1,38,-1
 2986 1047 l 1,39,-1
 2986 953 l 1,40,41
 2895 953 2895 953 2850.5 927 c 128,-1,42
 2806 901 2806 901 2806 865 c 0,43,44
 2806 847 2806 847 2816.5 804 c 128,-1,45
 2827 761 2827 761 2846 701.5 c 128,-1,46
 2865 642 2865 642 2890 571 c 128,-1,47
 2915 500 2915 500 2945 425.5 c 128,-1,48
 2975 351 2975 351 3007.5 277.5 c 128,-1,49
 3040 204 3040 204 3073 141 c 1,50,51
 3092 178 3092 178 3118 240.5 c 128,-1,52
 3144 303 3144 303 3172 376.5 c 128,-1,53
 3200 450 3200 450 3227 528 c 128,-1,54
 3254 606 3254 606 3275.5 673.5 c 128,-1,55
 3297 741 3297 741 3310.5 791.5 c 128,-1,56
 3324 842 3324 842 3324 861 c 0,57,58
 3324 877 3324 877 3317.5 893 c 128,-1,59
 3311 909 3311 909 3292 922.5 c 128,-1,60
 3273 936 3273 936 3237.5 944.5 c 128,-1,61
 3202 953 3202 953 3144 953 c 1,62,-1
 3144 1047 l 1,63,-1
 3827 1047 l 1,64,-1
 3827 953 l 1,65,66
 3706 953 3706 953 3622.5 920.5 c 128,-1,67
 3539 888 3539 888 3498 818 c 0,68,69
 3474 776 3474 776 3443.5 711 c 128,-1,70
 3413 646 3413 646 3380 569.5 c 128,-1,71
 3347 493 3347 493 3314 410.5 c 128,-1,72
 3281 328 3281 328 3251 251 c 128,-1,73
 3221 174 3221 174 3197 108.5 c 128,-1,74
 3173 43 3173 43 3158 0 c 1,75,-1
 2208 0 l 1,76,77
 2194 33 2194 33 2175 82 c 128,-1,78
 2156 131 2156 131 2134 188.5 c 128,-1,79
 2112 246 2112 246 2087.5 309.5 c 128,-1,80
 2063 373 2063 373 2037.5 433.5 c 128,-1,81
 2012 494 2012 494 1987 549 c 128,-1,82
 1962 604 1962 604 1938 646 c 1,83,84
 1916 606 1916 606 1891 552.5 c 128,-1,85
 1866 499 1866 499 1840 438.5 c 128,-1,86
 1814 378 1814 378 1789 315 c 128,-1,87
 1764 252 1764 252 1741.5 193.5 c 128,-1,88
 1719 135 1719 135 1700.5 84.5 c 128,-1,89
 1682 34 1682 34 1670 0 c 1,90,-1
 722 0 l 1,0,1
EndSplineSet
Validated: 1
EndChar

StartChar: y
Encoding: 121 121 49
Width: 2611
Flags: W
LayerCount: 2
Fore
SplineSet
-23 -263 m 0,0,1
 -23 -212 -23 -212 10 -170 c 128,-1,2
 43 -128 43 -128 104 -97.5 c 128,-1,3
 165 -67 165 -67 251.5 -50 c 128,-1,4
 338 -33 338 -33 445 -33 c 0,5,6
 542 -33 542 -33 623 -48 c 128,-1,7
 704 -63 704 -63 763 -90 c 128,-1,8
 822 -117 822 -117 855 -154 c 128,-1,9
 888 -191 888 -191 888 -234 c 0,10,11
 888 -271 888 -271 862.5 -304 c 128,-1,12
 837 -337 837 -337 786.5 -361.5 c 128,-1,13
 736 -386 736 -386 661 -400 c 128,-1,14
 586 -414 586 -414 486 -414 c 1,15,16
 516 -419 516 -419 561.5 -424.5 c 128,-1,17
 607 -430 607 -430 655.5 -434 c 128,-1,18
 704 -438 704 -438 751 -440.5 c 128,-1,19
 798 -443 798 -443 832 -443 c 0,20,21
 953 -443 953 -443 1065.5 -426 c 128,-1,22
 1178 -409 1178 -409 1281.5 -368.5 c 128,-1,23
 1385 -328 1385 -328 1479 -259.5 c 128,-1,24
 1573 -191 1573 -191 1657 -89 c 1,25,-1
 895 -89 l 1,26,27
 808 77 808 77 725 219.5 c 128,-1,28
 642 362 642 362 566.5 478 c 128,-1,29
 491 594 491 594 424 681.5 c 128,-1,30
 357 769 357 769 301 826 c 0,31,32
 254 873 254 873 215.5 899 c 128,-1,33
 177 925 177 925 141 937 c 128,-1,34
 105 949 105 949 68.5 951 c 128,-1,35
 32 953 32 953 -10 953 c 1,36,-1
 -10 1047 l 1,37,-1
 1656 1047 l 1,38,-1
 1656 953 l 1,39,40
 1620 953 1620 953 1573.5 949.5 c 128,-1,41
 1527 946 1527 946 1485 936 c 128,-1,42
 1443 926 1443 926 1414 909 c 128,-1,43
 1385 892 1385 892 1385 864 c 0,44,45
 1385 844 1385 844 1404 799 c 128,-1,46
 1423 754 1423 754 1455 692.5 c 128,-1,47
 1487 631 1487 631 1528 557 c 128,-1,48
 1569 483 1569 483 1613 405.5 c 128,-1,49
 1657 328 1657 328 1700.5 251 c 128,-1,50
 1744 174 1744 174 1781 107 c 1,51,52
 1807 154 1807 154 1842 218.5 c 128,-1,53
 1877 283 1877 283 1914 355 c 128,-1,54
 1951 427 1951 427 1987 501 c 128,-1,55
 2023 575 2023 575 2051.5 641.5 c 128,-1,56
 2080 708 2080 708 2097.5 761 c 128,-1,57
 2115 814 2115 814 2115 844 c 0,58,59
 2115 878 2115 878 2093.5 899.5 c 128,-1,60
 2072 921 2072 921 2036 933 c 128,-1,61
 2000 945 2000 945 1954 949 c 128,-1,62
 1908 953 1908 953 1859 953 c 1,63,-1
 1859 1047 l 1,64,-1
 2622 1047 l 1,65,-1
 2622 953 l 1,66,67
 2563 953 2563 953 2518.5 947 c 128,-1,68
 2474 941 2474 941 2438.5 925 c 128,-1,69
 2403 909 2403 909 2372 882 c 128,-1,70
 2341 855 2341 855 2309 813 c 0,71,72
 2248 734 2248 734 2200 642.5 c 128,-1,73
 2152 551 2152 551 2103 449 c 128,-1,74
 2054 347 2054 347 1999 234.5 c 128,-1,75
 1944 122 1944 122 1870 0 c 1,76,77
 1773 -156 1773 -156 1658 -261 c 128,-1,78
 1543 -366 1543 -366 1414.5 -429.5 c 128,-1,79
 1286 -493 1286 -493 1147.5 -519.5 c 128,-1,80
 1009 -546 1009 -546 865 -546 c 0,81,82
 682 -546 682 -546 520.5 -528 c 128,-1,83
 359 -510 359 -510 238 -474.5 c 128,-1,84
 117 -439 117 -439 47 -386 c 128,-1,85
 -23 -333 -23 -333 -23 -263 c 0,0,1
EndSplineSet
Validated: 1
EndChar

StartChar: G
Encoding: 71 71 50
Width: 3078
Flags: W
LayerCount: 2
Fore
SplineSet
115 608 m 0,0,1
 115 776 115 776 192 912.5 c 128,-1,2
 269 1049 269 1049 416 1145.5 c 128,-1,3
 563 1242 563 1242 776 1294.5 c 128,-1,4
 989 1347 989 1347 1261 1347 c 0,5,6
 1392 1347 1392 1347 1498.5 1341 c 128,-1,7
 1605 1335 1605 1335 1692 1326.5 c 128,-1,8
 1779 1318 1779 1318 1849 1308 c 128,-1,9
 1919 1298 1919 1298 1979 1289.5 c 128,-1,10
 2039 1281 2039 1281 2091 1275 c 128,-1,11
 2143 1269 2143 1269 2194 1269 c 0,12,13
 2264 1269 2264 1269 2308 1288.5 c 128,-1,14
 2352 1308 2352 1308 2378 1352 c 1,15,-1
 2628 1352 l 1,16,17
 2658 1300 2658 1300 2678 1227.5 c 128,-1,18
 2698 1155 2698 1155 2710.5 1077 c 128,-1,19
 2723 999 2723 999 2728 922.5 c 128,-1,20
 2733 846 2733 846 2733 786 c 1,21,-1
 2583 786 l 1,22,23
 2564 855 2564 855 2523.5 911.5 c 128,-1,24
 2483 968 2483 968 2427 1012 c 128,-1,25
 2371 1056 2371 1056 2304 1089 c 128,-1,26
 2237 1122 2237 1122 2165.5 1143 c 128,-1,27
 2094 1164 2094 1164 2022 1174.5 c 128,-1,28
 1950 1185 1950 1185 1885 1185 c 0,29,30
 1812 1185 1812 1185 1740 1170.5 c 128,-1,31
 1668 1156 1668 1156 1601.5 1126 c 128,-1,32
 1535 1096 1535 1096 1477.5 1050.5 c 128,-1,33
 1420 1005 1420 1005 1377.5 943.5 c 128,-1,34
 1335 882 1335 882 1311 803.5 c 128,-1,35
 1287 725 1287 725 1287 630 c 0,36,37
 1287 507 1287 507 1328 403.5 c 128,-1,38
 1369 300 1369 300 1440.5 225 c 128,-1,39
 1512 150 1512 150 1609.5 108 c 128,-1,40
 1707 66 1707 66 1821 66 c 0,41,42
 1834 66 1834 66 1856 66.5 c 128,-1,43
 1878 67 1878 67 1901.5 68.5 c 128,-1,44
 1925 70 1925 70 1947 71.5 c 128,-1,45
 1969 73 1969 73 1983 76 c 1,46,47
 1983 180 1983 180 1980.5 254 c 128,-1,48
 1978 328 1978 328 1965.5 378 c 128,-1,49
 1953 428 1953 428 1926.5 457.5 c 128,-1,50
 1900 487 1900 487 1851 502.5 c 128,-1,51
 1802 518 1802 518 1727.5 522.5 c 128,-1,52
 1653 527 1653 527 1545 527 c 1,53,-1
 1545 621 l 1,54,-1
 3004 621 l 1,55,-1
 3004 527 l 1,56,57
 2947 527 2947 527 2907 519.5 c 128,-1,58
 2867 512 2867 512 2842.5 495.5 c 128,-1,59
 2818 479 2818 479 2807 452 c 128,-1,60
 2796 425 2796 425 2796 387 c 0,61,62
 2796 343 2796 343 2802.5 294 c 128,-1,63
 2809 245 2809 245 2822 196 c 128,-1,64
 2835 147 2835 147 2853.5 100.5 c 128,-1,65
 2872 54 2872 54 2895 14 c 1,66,67
 2713 -4 2713 -4 2537 -17 c 128,-1,68
 2361 -30 2361 -30 2186 -39 c 128,-1,69
 2011 -48 2011 -48 1835 -52.5 c 128,-1,70
 1659 -57 1659 -57 1477 -57 c 0,71,72
 1303 -57 1303 -57 1134.5 -46.5 c 128,-1,73
 966 -36 966 -36 814.5 -8 c 128,-1,74
 663 20 663 20 535 67.5 c 128,-1,75
 407 115 407 115 313.5 189 c 128,-1,76
 220 263 220 263 167.5 366 c 128,-1,77
 115 469 115 469 115 608 c 0,0,1
EndSplineSet
Validated: 1
EndChar

StartChar: K
Encoding: 75 75 51
Width: 3369
Flags: W
LayerCount: 2
Fore
SplineSet
100 94 m 1,0,1
 250 99 250 99 349 129 c 128,-1,2
 448 159 448 159 507 225 c 128,-1,3
 566 291 566 291 590.5 398.5 c 128,-1,4
 615 506 615 506 615 668 c 0,5,6
 615 777 615 777 602.5 859 c 128,-1,7
 590 941 590 941 563.5 999.5 c 128,-1,8
 537 1058 537 1058 495.5 1096.5 c 128,-1,9
 454 1135 454 1135 397 1157 c 128,-1,10
 340 1179 340 1179 266 1188 c 128,-1,11
 192 1197 192 1197 100 1197 c 1,12,-1
 100 1291 l 1,13,-1
 1890 1291 l 1,14,-1
 1890 1197 l 1,15,16
 1845 1197 1845 1197 1804 1170 c 128,-1,17
 1763 1143 1763 1143 1731 1081.5 c 128,-1,18
 1699 1020 1699 1020 1678.5 920 c 128,-1,19
 1658 820 1658 820 1655 674 c 1,20,21
 1720 708 1720 708 1793 747 c 128,-1,22
 1866 786 1866 786 1937.5 827.5 c 128,-1,23
 2009 869 2009 869 2074 911 c 128,-1,24
 2139 953 2139 953 2188 991.5 c 128,-1,25
 2237 1030 2237 1030 2266.5 1063.5 c 128,-1,26
 2296 1097 2296 1097 2296 1123 c 0,27,28
 2296 1157 2296 1157 2249.5 1177 c 128,-1,29
 2203 1197 2203 1197 2095 1197 c 1,30,-1
 2095 1291 l 1,31,-1
 3164 1291 l 1,32,-1
 3164 1197 l 1,33,34
 3107 1197 3107 1197 3019.5 1173.5 c 128,-1,35
 2932 1150 2932 1150 2824.5 1109.5 c 128,-1,36
 2717 1069 2717 1069 2595 1016.5 c 128,-1,37
 2473 964 2473 964 2348.5 906 c 128,-1,38
 2224 848 2224 848 2102.5 788.5 c 128,-1,39
 1981 729 1981 729 1874 676 c 1,40,41
 1996 691 1996 691 2087.5 704.5 c 128,-1,42
 2179 718 2179 718 2257.5 728.5 c 128,-1,43
 2336 739 2336 739 2411 745.5 c 128,-1,44
 2486 752 2486 752 2574 752 c 0,45,46
 2689 752 2689 752 2770.5 736.5 c 128,-1,47
 2852 721 2852 721 2908.5 692.5 c 128,-1,48
 2965 664 2965 664 3000.5 622 c 128,-1,49
 3036 580 3036 580 3059.5 526.5 c 128,-1,50
 3083 473 3083 473 3098 409.5 c 128,-1,51
 3113 346 3113 346 3128 273 c 0,52,53
 3139 220 3139 220 3151 186 c 128,-1,54
 3163 152 3163 152 3185 132 c 128,-1,55
 3207 112 3207 112 3244.5 104 c 128,-1,56
 3282 96 3282 96 3344 95 c 1,57,-1
 3344 -6 l 1,58,59
 3296 -17 3296 -17 3242.5 -26 c 128,-1,60
 3189 -35 3189 -35 3120.5 -42 c 128,-1,61
 3052 -49 3052 -49 2964 -53 c 128,-1,62
 2876 -57 2876 -57 2759 -57 c 0,63,64
 2614 -57 2614 -57 2506.5 -52.5 c 128,-1,65
 2399 -48 2399 -48 2320.5 -35 c 128,-1,66
 2242 -22 2242 -22 2189 1 c 128,-1,67
 2136 24 2136 24 2101.5 60.5 c 128,-1,68
 2067 97 2067 97 2047 149 c 128,-1,69
 2027 201 2027 201 2014 271 c 0,70,71
 2000 349 2000 349 1976 404.5 c 128,-1,72
 1952 460 1952 460 1911.5 496 c 128,-1,73
 1871 532 1871 532 1809 549 c 128,-1,74
 1747 566 1747 566 1656 568 c 1,75,76
 1659 436 1659 436 1673 345 c 128,-1,77
 1687 254 1687 254 1715.5 198.5 c 128,-1,78
 1744 143 1744 143 1789 118.5 c 128,-1,79
 1834 94 1834 94 1899 94 c 1,80,-1
 1899 0 l 1,81,-1
 100 0 l 1,82,-1
 100 94 l 1,0,1
EndSplineSet
Validated: 1
EndChar

StartChar: k
Encoding: 107 107 52
Width: 2904
Flags: W
LayerCount: 2
Fore
SplineSet
75 94 m 1,0,1
 165 97 165 97 234 109 c 128,-1,2
 303 121 303 121 354.5 147 c 128,-1,3
 406 173 406 173 441 216 c 128,-1,4
 476 259 476 259 497.5 325.5 c 128,-1,5
 519 392 519 392 528.5 485.5 c 128,-1,6
 538 579 538 579 538 704 c 0,7,8
 538 894 538 894 512 1012 c 128,-1,9
 486 1130 486 1130 430 1195.5 c 128,-1,10
 374 1261 374 1261 286.5 1284 c 128,-1,11
 199 1307 199 1307 75 1307 c 1,12,-1
 75 1400 l 1,13,-1
 1417 1490 l 1,14,-1
 1417 579 l 1,15,16
 1490 630 1490 630 1557 685.5 c 128,-1,17
 1624 741 1624 741 1675 789 c 128,-1,18
 1726 837 1726 837 1756.5 872.5 c 128,-1,19
 1787 908 1787 908 1787 920 c 0,20,21
 1787 940 1787 940 1744 946 c 128,-1,22
 1701 952 1701 952 1627 952 c 1,23,-1
 1627 1046 l 1,24,-1
 2739 1046 l 1,25,-1
 2739 952 l 1,26,27
 2620 952 2620 952 2478 924 c 128,-1,28
 2336 896 2336 896 2176.5 840 c 128,-1,29
 2017 784 2017 784 1843 699 c 128,-1,30
 1669 614 1669 614 1486 500 c 1,31,32
 1578 515 1578 515 1673 527 c 128,-1,33
 1768 539 1768 539 1860 547.5 c 128,-1,34
 1952 556 1952 556 2037.5 560.5 c 128,-1,35
 2123 565 2123 565 2196 565 c 0,36,37
 2300 565 2300 565 2380 553.5 c 128,-1,38
 2460 542 2460 542 2517 517 c 128,-1,39
 2574 492 2574 492 2610 452 c 128,-1,40
 2646 412 2646 412 2661 355 c 0,41,42
 2679 289 2679 289 2707.5 242 c 128,-1,43
 2736 195 2736 195 2768 164 c 128,-1,44
 2800 133 2800 133 2832.5 117.5 c 128,-1,45
 2865 102 2865 102 2889 99 c 1,46,-1
 2889 -6 l 1,47,48
 2863 -14 2863 -14 2803 -22.5 c 128,-1,49
 2743 -31 2743 -31 2658.5 -39 c 128,-1,50
 2574 -47 2574 -47 2470 -52 c 128,-1,51
 2366 -57 2366 -57 2252 -57 c 0,52,53
 2133 -57 2133 -57 2049 -51.5 c 128,-1,54
 1965 -46 1965 -46 1906.5 -33 c 128,-1,55
 1848 -20 1848 -20 1812 1 c 128,-1,56
 1776 22 1776 22 1754 54 c 128,-1,57
 1732 86 1732 86 1720 129 c 128,-1,58
 1708 172 1708 172 1698 228 c 0,59,60
 1690 269 1690 269 1679.5 306.5 c 128,-1,61
 1669 344 1669 344 1640.5 373 c 128,-1,62
 1612 402 1612 402 1559.5 419.5 c 128,-1,63
 1507 437 1507 437 1417 438 c 1,64,65
 1418 348 1418 348 1426.5 283 c 128,-1,66
 1435 218 1435 218 1454.5 176 c 128,-1,67
 1474 134 1474 134 1506.5 114 c 128,-1,68
 1539 94 1539 94 1589 94 c 1,69,-1
 1589 0 l 1,70,-1
 75 0 l 1,71,-1
 75 94 l 1,0,1
EndSplineSet
Validated: 1
EndChar

StartChar: period
Encoding: 46 46 53
Width: 1147
Flags: W
LayerCount: 2
Fore
SplineSet
117 240 m 0,0,1
 117 304 117 304 151.5 356.5 c 128,-1,2
 186 409 186 409 247 445.5 c 128,-1,3
 308 482 308 482 391.5 502 c 128,-1,4
 475 522 475 522 573 522 c 256,5,6
 671 522 671 522 755 502 c 128,-1,7
 839 482 839 482 900 445.5 c 128,-1,8
 961 409 961 409 995.5 356.5 c 128,-1,9
 1030 304 1030 304 1030 240 c 0,10,11
 1030 175 1030 175 995.5 122.5 c 128,-1,12
 961 70 961 70 900 33 c 128,-1,13
 839 -4 839 -4 755 -24.5 c 128,-1,14
 671 -45 671 -45 573 -45 c 256,15,16
 475 -45 475 -45 391.5 -24.5 c 128,-1,17
 308 -4 308 -4 247 33 c 128,-1,18
 186 70 186 70 151.5 122.5 c 128,-1,19
 117 175 117 175 117 240 c 0,0,1
EndSplineSet
Validated: 1
EndChar

StartChar: zero
Encoding: 48 48 54
Width: 3161
Flags: W
LayerCount: 2
Fore
SplineSet
141 646 m 256,0,1
 141 777 141 777 197 880.5 c 128,-1,2
 253 984 253 984 352 1061.5 c 128,-1,3
 451 1139 451 1139 586.5 1193.5 c 128,-1,4
 722 1248 722 1248 882 1282 c 128,-1,5
 1042 1316 1042 1316 1219.5 1331.5 c 128,-1,6
 1397 1347 1397 1347 1580 1347 c 256,7,8
 1763 1347 1763 1347 1941 1331.5 c 128,-1,9
 2119 1316 2119 1316 2279 1282 c 128,-1,10
 2439 1248 2439 1248 2574.5 1193.5 c 128,-1,11
 2710 1139 2710 1139 2809 1061.5 c 128,-1,12
 2908 984 2908 984 2964 880.5 c 128,-1,13
 3020 777 3020 777 3020 646 c 0,14,15
 3020 514 3020 514 2964 411 c 128,-1,16
 2908 308 2908 308 2809 230 c 128,-1,17
 2710 152 2710 152 2574.5 97.5 c 128,-1,18
 2439 43 2439 43 2279 8.5 c 128,-1,19
 2119 -26 2119 -26 1941 -41.5 c 128,-1,20
 1763 -57 1763 -57 1580 -57 c 256,21,22
 1397 -57 1397 -57 1219.5 -41.5 c 128,-1,23
 1042 -26 1042 -26 882 8.5 c 128,-1,24
 722 43 722 43 586.5 97.5 c 128,-1,25
 451 152 451 152 352 230 c 128,-1,26
 253 308 253 308 197 411.5 c 128,-1,27
 141 515 141 515 141 646 c 256,0,1
1324 643 m 0,28,29
 1324 588 1324 588 1328 523.5 c 128,-1,30
 1332 459 1332 459 1343 393.5 c 128,-1,31
 1354 328 1354 328 1372 267 c 128,-1,32
 1390 206 1390 206 1417.5 159.5 c 128,-1,33
 1445 113 1445 113 1483.5 84.5 c 128,-1,34
 1522 56 1522 56 1574 56 c 0,35,36
 1625 56 1625 56 1665 84.5 c 128,-1,37
 1705 113 1705 113 1734 159.5 c 128,-1,38
 1763 206 1763 206 1783 267 c 128,-1,39
 1803 328 1803 328 1815 393.5 c 128,-1,40
 1827 459 1827 459 1832 523.5 c 128,-1,41
 1837 588 1837 588 1837 643 c 256,42,43
 1837 698 1837 698 1832 763 c 128,-1,44
 1827 828 1827 828 1815 894 c 128,-1,45
 1803 960 1803 960 1783 1021 c 128,-1,46
 1763 1082 1763 1082 1734 1129.5 c 128,-1,47
 1705 1177 1705 1177 1665 1205.5 c 128,-1,48
 1625 1234 1625 1234 1574 1234 c 0,49,50
 1522 1234 1522 1234 1483.5 1203.5 c 128,-1,51
 1445 1173 1445 1173 1417.5 1123.5 c 128,-1,52
 1390 1074 1390 1074 1372 1011 c 128,-1,53
 1354 948 1354 948 1343 882.5 c 128,-1,54
 1332 817 1332 817 1328 754.5 c 128,-1,55
 1324 692 1324 692 1324 643 c 0,28,29
EndSplineSet
Validated: 1
EndChar

StartChar: one
Encoding: 49 49 55
Width: 2234
Flags: W
LayerCount: 2
Fore
SplineSet
70 94 m 1,0,1
 250 99 250 99 371.5 129 c 128,-1,2
 493 159 493 159 567.5 219.5 c 128,-1,3
 642 280 642 280 673.5 374 c 128,-1,4
 705 468 705 468 705 602 c 0,5,6
 705 698 705 698 680 779.5 c 128,-1,7
 655 861 655 861 590.5 920.5 c 128,-1,8
 526 980 526 980 415 1014 c 128,-1,9
 304 1048 304 1048 133 1050 c 1,10,-1
 133 1171 l 1,11,12
 193 1171 193 1171 275.5 1176 c 128,-1,13
 358 1181 358 1181 454 1189.5 c 128,-1,14
 550 1198 550 1198 655 1209.5 c 128,-1,15
 760 1221 760 1221 865.5 1234 c 128,-1,16
 971 1247 971 1247 1073 1262 c 128,-1,17
 1175 1277 1175 1277 1264 1291.5 c 128,-1,18
 1353 1306 1353 1306 1425.5 1320 c 128,-1,19
 1498 1334 1498 1334 1545 1347 c 1,20,-1
 1701 1302 l 1,21,-1
 1701 668 l 2,22,23
 1701 560 1701 560 1709.5 476.5 c 128,-1,24
 1718 393 1718 393 1739.5 330.5 c 128,-1,25
 1761 268 1761 268 1798 224.5 c 128,-1,26
 1835 181 1835 181 1891.5 153 c 128,-1,27
 1948 125 1948 125 2026.5 111 c 128,-1,28
 2105 97 2105 97 2209 94 c 1,29,-1
 2209 0 l 1,30,-1
 70 0 l 1,31,-1
 70 94 l 1,0,1
EndSplineSet
Validated: 1
EndChar

StartChar: two
Encoding: 50 50 56
Width: 3217
Flags: W
LayerCount: 2
Fore
SplineSet
225 181 m 0,0,1
 225 289 225 289 288.5 367.5 c 128,-1,2
 352 446 352 446 478 501.5 c 128,-1,3
 604 557 604 557 791 593.5 c 128,-1,4
 978 630 978 630 1225 655 c 0,5,6
 1378 670 1378 670 1494.5 693 c 128,-1,7
 1611 716 1611 716 1690.5 749.5 c 128,-1,8
 1770 783 1770 783 1810.5 829 c 128,-1,9
 1851 875 1851 875 1851 937 c 0,10,11
 1851 1000 1851 1000 1812 1051 c 128,-1,12
 1773 1102 1773 1102 1698.5 1137.5 c 128,-1,13
 1624 1173 1624 1173 1515.5 1192.5 c 128,-1,14
 1407 1212 1407 1212 1269 1212 c 0,15,16
 1227 1212 1227 1212 1177.5 1210 c 128,-1,17
 1128 1208 1128 1208 1079 1205 c 128,-1,18
 1030 1202 1030 1202 986.5 1198 c 128,-1,19
 943 1194 943 1194 913 1191 c 1,20,21
 1048 1186 1048 1186 1137.5 1165.5 c 128,-1,22
 1227 1145 1227 1145 1280 1115 c 128,-1,23
 1333 1085 1333 1085 1355 1047 c 128,-1,24
 1377 1009 1377 1009 1377 969 c 0,25,26
 1377 915 1377 915 1336.5 872 c 128,-1,27
 1296 829 1296 829 1226.5 798.5 c 128,-1,28
 1157 768 1157 768 1064.5 752 c 128,-1,29
 972 736 972 736 868 736 c 0,30,31
 770 736 770 736 676.5 751.5 c 128,-1,32
 583 767 583 767 510 800 c 128,-1,33
 437 833 437 833 392.5 884 c 128,-1,34
 348 935 348 935 348 1007 c 0,35,36
 348 1060 348 1060 393.5 1105.5 c 128,-1,37
 439 1151 439 1151 521 1189 c 128,-1,38
 603 1227 603 1227 717.5 1257 c 128,-1,39
 832 1287 832 1287 969 1307.5 c 128,-1,40
 1106 1328 1106 1328 1261.5 1338.5 c 128,-1,41
 1417 1349 1417 1349 1582 1349 c 0,42,43
 1629 1349 1629 1349 1712 1348 c 128,-1,44
 1795 1347 1795 1347 1899 1342.5 c 128,-1,45
 2003 1338 2003 1338 2121 1328 c 128,-1,46
 2239 1318 2239 1318 2354.5 1299.5 c 128,-1,47
 2470 1281 2470 1281 2576 1252.5 c 128,-1,48
 2682 1224 2682 1224 2763 1182.5 c 128,-1,49
 2844 1141 2844 1141 2892 1084.5 c 128,-1,50
 2940 1028 2940 1028 2940 954 c 0,51,52
 2940 839 2940 839 2844.5 760 c 128,-1,53
 2749 681 2749 681 2552.5 630 c 128,-1,54
 2356 579 2356 579 2054.5 551 c 128,-1,55
 1753 523 1753 523 1342 510 c 0,56,57
 1117 502 1117 502 960.5 478 c 128,-1,58
 804 454 804 454 706.5 418 c 128,-1,59
 609 382 609 382 565.5 335.5 c 128,-1,60
 522 289 522 289 522 237 c 0,61,62
 522 220 522 220 525 204 c 1,63,64
 649 307 649 307 933.5 350.5 c 128,-1,65
 1218 394 1218 394 1655 394 c 0,66,67
 1755 394 1755 394 1853 393 c 128,-1,68
 1951 392 1951 392 2046 392 c 0,69,70
 2200 392 2200 392 2337 404 c 128,-1,71
 2474 416 2474 416 2580.5 440 c 128,-1,72
 2687 464 2687 464 2755.5 499.5 c 128,-1,73
 2824 535 2824 535 2839 583 c 1,74,75
 2863 569 2863 569 2891.5 546 c 128,-1,76
 2920 523 2920 523 2944.5 490 c 128,-1,77
 2969 457 2969 457 2985.5 414.5 c 128,-1,78
 3002 372 3002 372 3002 320 c 0,79,80
 3002 200 3002 200 2952.5 122.5 c 128,-1,81
 2903 45 2903 45 2817.5 0 c 128,-1,82
 2732 -45 2732 -45 2617.5 -63 c 128,-1,83
 2503 -81 2503 -81 2372 -81 c 0,84,85
 2247 -81 2247 -81 2107.5 -66.5 c 128,-1,86
 1968 -52 1968 -52 1822.5 -30 c 128,-1,87
 1677 -8 1677 -8 1530.5 17 c 128,-1,88
 1384 42 1384 42 1244.5 64 c 128,-1,89
 1105 86 1105 86 977 100.5 c 128,-1,90
 849 115 849 115 741 115 c 2,91,-1
 717 115 l 1,92,93
 736 88 736 88 736 62 c 0,94,95
 736 35 736 35 720 10 c 128,-1,96
 704 -15 704 -15 677 -35 c 128,-1,97
 650 -55 650 -55 613.5 -67 c 128,-1,98
 577 -79 577 -79 535 -79 c 0,99,100
 473 -79 473 -79 417 -62.5 c 128,-1,101
 361 -46 361 -46 318 -13.5 c 128,-1,102
 275 19 275 19 250 67.5 c 128,-1,103
 225 116 225 116 225 181 c 0,0,1
EndSplineSet
Validated: 1
EndChar

StartChar: three
Encoding: 51 51 57
Width: 3248
Flags: W
LayerCount: 2
Fore
SplineSet
201 242 m 0,0,1
 201 284 201 284 223 318.5 c 128,-1,2
 245 353 245 353 284 380.5 c 128,-1,3
 323 408 323 408 375.5 429 c 128,-1,4
 428 450 428 450 489 463.5 c 128,-1,5
 550 477 550 477 616 484 c 128,-1,6
 682 491 682 491 748 491 c 0,7,8
 874 491 874 491 971 474 c 128,-1,9
 1068 457 1068 457 1133.5 429 c 128,-1,10
 1199 401 1199 401 1232.5 365.5 c 128,-1,11
 1266 330 1266 330 1266 293 c 0,12,13
 1266 258 1266 258 1235.5 224 c 128,-1,14
 1205 190 1205 190 1143 163 c 128,-1,15
 1081 136 1081 136 987 118.5 c 128,-1,16
 893 101 893 101 765 99 c 1,17,18
 809 96 809 96 867 91.5 c 128,-1,19
 925 87 925 87 992 83 c 128,-1,20
 1059 79 1059 79 1132.5 76 c 128,-1,21
 1206 73 1206 73 1281 73 c 0,22,23
 1357 73 1357 73 1432 77.5 c 128,-1,24
 1507 82 1507 82 1575 92.5 c 128,-1,25
 1643 103 1643 103 1701 121.5 c 128,-1,26
 1759 140 1759 140 1802 168 c 128,-1,27
 1845 196 1845 196 1869 234.5 c 128,-1,28
 1893 273 1893 273 1893 324 c 0,29,30
 1893 378 1893 378 1857 424.5 c 128,-1,31
 1821 471 1821 471 1744 505.5 c 128,-1,32
 1667 540 1667 540 1545 560.5 c 128,-1,33
 1423 581 1423 581 1252 582 c 1,34,-1
 1252 679 l 1,35,36
 1577 679 1577 679 1737 755.5 c 128,-1,37
 1897 832 1897 832 1897 964 c 0,38,39
 1897 1044 1897 1044 1851 1095 c 128,-1,40
 1805 1146 1805 1146 1730.5 1174.5 c 128,-1,41
 1656 1203 1656 1203 1561 1213.5 c 128,-1,42
 1466 1224 1466 1224 1368 1224 c 0,43,44
 1296 1224 1296 1224 1225.5 1220.5 c 128,-1,45
 1155 1217 1155 1217 1093.5 1212.5 c 128,-1,46
 1032 1208 1032 1208 981 1204 c 128,-1,47
 930 1200 930 1200 897 1199 c 1,48,49
 1032 1194 1032 1194 1121 1173.5 c 128,-1,50
 1210 1153 1210 1153 1263.5 1123 c 128,-1,51
 1317 1093 1317 1093 1338.5 1055 c 128,-1,52
 1360 1017 1360 1017 1360 977 c 0,53,54
 1360 923 1360 923 1319.5 880 c 128,-1,55
 1279 837 1279 837 1210 806.5 c 128,-1,56
 1141 776 1141 776 1048.5 760 c 128,-1,57
 956 744 956 744 851 744 c 0,58,59
 753 744 753 744 659.5 759.5 c 128,-1,60
 566 775 566 775 493 808 c 128,-1,61
 420 841 420 841 375.5 892 c 128,-1,62
 331 943 331 943 331 1015 c 0,63,64
 331 1068 331 1068 385.5 1113 c 128,-1,65
 440 1158 440 1158 535 1195 c 128,-1,66
 630 1232 630 1232 759.5 1260.5 c 128,-1,67
 889 1289 889 1289 1039.5 1308 c 128,-1,68
 1190 1327 1190 1327 1355 1337 c 128,-1,69
 1520 1347 1520 1347 1686 1347 c 0,70,71
 1845 1347 1845 1347 2000.5 1337.5 c 128,-1,72
 2156 1328 2156 1328 2296 1309 c 128,-1,73
 2436 1290 2436 1290 2555 1261 c 128,-1,74
 2674 1232 2674 1232 2761 1192.5 c 128,-1,75
 2848 1153 2848 1153 2897 1103 c 128,-1,76
 2946 1053 2946 1053 2946 992 c 0,77,78
 2946 908 2946 908 2891 846.5 c 128,-1,79
 2836 785 2836 785 2723 742.5 c 128,-1,80
 2610 700 2610 700 2437.5 674.5 c 128,-1,81
 2265 649 2265 649 2030 636 c 1,82,83
 2290 628 2290 628 2490 609.5 c 128,-1,84
 2690 591 2690 591 2826.5 554.5 c 128,-1,85
 2963 518 2963 518 3033.5 460 c 128,-1,86
 3104 402 3104 402 3104 317 c 0,87,88
 3104 239 3104 239 3048.5 181 c 128,-1,89
 2993 123 2993 123 2890.5 81.5 c 128,-1,90
 2788 40 2788 40 2643.5 13 c 128,-1,91
 2499 -14 2499 -14 2320.5 -29.5 c 128,-1,92
 2142 -45 2142 -45 1934 -51 c 128,-1,93
 1726 -57 1726 -57 1498 -57 c 0,94,95
 1333 -57 1333 -57 1173 -49 c 128,-1,96
 1013 -41 1013 -41 869 -25 c 128,-1,97
 725 -9 725 -9 602.5 15.5 c 128,-1,98
 480 40 480 40 391 73 c 128,-1,99
 302 106 302 106 251.5 148.5 c 128,-1,100
 201 191 201 191 201 242 c 0,0,1
EndSplineSet
Validated: 1
EndChar

StartChar: six
Encoding: 54 54 58
Width: 3267
Flags: W
LayerCount: 2
Fore
SplineSet
195 635 m 0,0,1
 195 731 195 731 231.5 813 c 128,-1,2
 268 895 268 895 334.5 963 c 128,-1,3
 401 1031 401 1031 493.5 1086 c 128,-1,4
 586 1141 586 1141 698.5 1183.5 c 128,-1,5
 811 1226 811 1226 939.5 1256.5 c 128,-1,6
 1068 1287 1068 1287 1206 1307 c 128,-1,7
 1344 1327 1344 1327 1488 1336.5 c 128,-1,8
 1632 1346 1632 1346 1776 1346 c 0,9,10
 1945 1346 1945 1346 2098.5 1336.5 c 128,-1,11
 2252 1327 2252 1327 2383.5 1309 c 128,-1,12
 2515 1291 2515 1291 2622 1265 c 128,-1,13
 2729 1239 2729 1239 2804.5 1206.5 c 128,-1,14
 2880 1174 2880 1174 2921 1135.5 c 128,-1,15
 2962 1097 2962 1097 2962 1053 c 0,16,17
 2962 1000 2962 1000 2917 961.5 c 128,-1,18
 2872 923 2872 923 2797 898 c 128,-1,19
 2722 873 2722 873 2625 861.5 c 128,-1,20
 2528 850 2528 850 2423 850 c 0,21,22
 2280 850 2280 850 2166.5 865 c 128,-1,23
 2053 880 2053 880 1974 905 c 128,-1,24
 1895 930 1895 930 1852.5 963 c 128,-1,25
 1810 996 1810 996 1810 1033 c 0,26,27
 1810 1068 1810 1068 1833 1100.5 c 128,-1,28
 1856 1133 1856 1133 1900.5 1158 c 128,-1,29
 1945 1183 1945 1183 2011.5 1198 c 128,-1,30
 2078 1213 2078 1213 2165 1213 c 1,31,32
 2135 1222 2135 1222 2102 1228 c 128,-1,33
 2069 1234 2069 1234 2035.5 1238.5 c 128,-1,34
 2002 1243 2002 1243 1970.5 1245 c 128,-1,35
 1939 1247 1939 1247 1913 1247 c 0,36,37
 1849 1247 1849 1247 1781.5 1240.5 c 128,-1,38
 1714 1234 1714 1234 1650 1213.5 c 128,-1,39
 1586 1193 1586 1193 1528.5 1154.5 c 128,-1,40
 1471 1116 1471 1116 1428 1051.5 c 128,-1,41
 1385 987 1385 987 1359.5 892 c 128,-1,42
 1334 797 1334 797 1333 665 c 1,43,44
 1411 690 1411 690 1495 710.5 c 128,-1,45
 1579 731 1579 731 1673 746 c 128,-1,46
 1767 761 1767 761 1873 769.5 c 128,-1,47
 1979 778 1979 778 2100 778 c 0,48,49
 2320 778 2320 778 2504.5 754 c 128,-1,50
 2689 730 2689 730 2821.5 681 c 128,-1,51
 2954 632 2954 632 3028 556.5 c 128,-1,52
 3102 481 3102 481 3102 378 c 0,53,54
 3102 303 3102 303 3050.5 242 c 128,-1,55
 2999 181 2999 181 2906 132.5 c 128,-1,56
 2813 84 2813 84 2683 48.5 c 128,-1,57
 2553 13 2553 13 2396 -10 c 128,-1,58
 2239 -33 2239 -33 2060 -44.5 c 128,-1,59
 1881 -56 1881 -56 1689 -56 c 0,60,61
 1513 -56 1513 -56 1334 -44.5 c 128,-1,62
 1155 -33 1155 -33 989 -3.5 c 128,-1,63
 823 26 823 26 678 76 c 128,-1,64
 533 126 533 126 426 202.5 c 128,-1,65
 319 279 319 279 257 386 c 128,-1,66
 195 493 195 493 195 635 c 0,0,1
1335 561 m 1,67,68
 1340 444 1340 444 1358 361.5 c 128,-1,69
 1376 279 1376 279 1403 223 c 128,-1,70
 1430 167 1430 167 1464.5 134 c 128,-1,71
 1499 101 1499 101 1537.5 84 c 128,-1,72
 1576 67 1576 67 1617 62 c 128,-1,73
 1658 57 1658 57 1699 57 c 0,74,75
 1747 57 1747 57 1804 68.5 c 128,-1,76
 1861 80 1861 80 1911 110.5 c 128,-1,77
 1961 141 1961 141 1994.5 193 c 128,-1,78
 2028 245 2028 245 2028 326 c 0,79,80
 2028 404 2028 404 1994 459.5 c 128,-1,81
 1960 515 1960 515 1904.5 550 c 128,-1,82
 1849 585 1849 585 1778 601 c 128,-1,83
 1707 617 1707 617 1632 617 c 0,84,85
 1550 617 1550 617 1474 600 c 128,-1,86
 1398 583 1398 583 1335 561 c 1,67,68
EndSplineSet
Validated: 1
EndChar

StartChar: nine
Encoding: 57 57 59
Width: 3267
Flags: W
LayerCount: 2
Fore
SplineSet
303 217 m 0,0,1
 303 270 303 270 351.5 308.5 c 128,-1,2
 400 347 400 347 479 371.5 c 128,-1,3
 558 396 558 396 658.5 408 c 128,-1,4
 759 420 759 420 864 420 c 0,5,6
 1007 420 1007 420 1120.5 406.5 c 128,-1,7
 1234 393 1234 393 1313.5 370 c 128,-1,8
 1393 347 1393 347 1435.5 315.5 c 128,-1,9
 1478 284 1478 284 1478 247 c 0,10,11
 1478 212 1478 212 1455 181 c 128,-1,12
 1432 150 1432 150 1387 127 c 128,-1,13
 1342 104 1342 104 1275.5 90.5 c 128,-1,14
 1209 77 1209 77 1122 77 c 1,15,16
 1152 68 1152 68 1186.5 62 c 128,-1,17
 1221 56 1221 56 1255.5 51.5 c 128,-1,18
 1290 47 1290 47 1322 45 c 128,-1,19
 1354 43 1354 43 1380 43 c 0,20,21
 1416 43 1416 43 1470.5 47.5 c 128,-1,22
 1525 52 1525 52 1586 70.5 c 128,-1,23
 1647 89 1647 89 1708 124.5 c 128,-1,24
 1769 160 1769 160 1818.5 221.5 c 128,-1,25
 1868 283 1868 283 1899.5 375.5 c 128,-1,26
 1931 468 1931 468 1933 599 c 1,27,28
 1860 575 1860 575 1779.5 555.5 c 128,-1,29
 1699 536 1699 536 1605.5 522 c 128,-1,30
 1512 508 1512 508 1404 500 c 128,-1,31
 1296 492 1296 492 1167 492 c 0,32,33
 947 492 947 492 763 519 c 128,-1,34
 579 546 579 546 446 599 c 128,-1,35
 313 652 313 652 239 730.5 c 128,-1,36
 165 809 165 809 165 912 c 0,37,38
 165 987 165 987 213.5 1048 c 128,-1,39
 262 1109 262 1109 351.5 1157.5 c 128,-1,40
 441 1206 441 1206 569 1241.5 c 128,-1,41
 697 1277 697 1277 855 1300 c 128,-1,42
 1013 1323 1013 1323 1198 1334.5 c 128,-1,43
 1383 1346 1383 1346 1588 1346 c 0,44,45
 1764 1346 1764 1346 1942.5 1334.5 c 128,-1,46
 2121 1323 2121 1323 2286 1293.5 c 128,-1,47
 2451 1264 2451 1264 2594.5 1214 c 128,-1,48
 2738 1164 2738 1164 2844 1087.5 c 128,-1,49
 2950 1011 2950 1011 3011 904 c 128,-1,50
 3072 797 3072 797 3072 655 c 0,51,52
 3072 526 3072 526 3013 423.5 c 128,-1,53
 2954 321 2954 321 2845 242 c 128,-1,54
 2736 163 2736 163 2582 106.5 c 128,-1,55
 2428 50 2428 50 2239 14 c 128,-1,56
 2050 -22 2050 -22 1830 -39 c 128,-1,57
 1610 -56 1610 -56 1369 -56 c 0,58,59
 1132 -56 1132 -56 936 -39.5 c 128,-1,60
 740 -23 740 -23 599 11 c 128,-1,61
 458 45 458 45 380.5 96.5 c 128,-1,62
 303 148 303 148 303 217 c 0,0,1
1239 944 m 0,63,64
 1239 866 1239 866 1273 810.5 c 128,-1,65
 1307 755 1307 755 1363 720 c 128,-1,66
 1419 685 1419 685 1490 669 c 128,-1,67
 1561 653 1561 653 1636 653 c 0,68,69
 1717 653 1717 653 1793 669.5 c 128,-1,70
 1869 686 1869 686 1932 708 c 1,71,72
 1926 876 1926 876 1896 979.5 c 128,-1,73
 1866 1083 1866 1083 1819 1139 c 128,-1,74
 1772 1195 1772 1195 1710.5 1214 c 128,-1,75
 1649 1233 1649 1233 1579 1233 c 0,76,77
 1531 1233 1531 1233 1472 1218 c 128,-1,78
 1413 1203 1413 1203 1361 1169.5 c 128,-1,79
 1309 1136 1309 1136 1274 1080.5 c 128,-1,80
 1239 1025 1239 1025 1239 944 c 0,63,64
EndSplineSet
Validated: 1
EndChar

StartChar: five
Encoding: 53 53 60
Width: 3120
Flags: W
LayerCount: 2
Fore
SplineSet
156 252 m 0,0,1
 156 307 156 307 196 349.5 c 128,-1,2
 236 392 236 392 306.5 421.5 c 128,-1,3
 377 451 377 451 473.5 466 c 128,-1,4
 570 481 570 481 683 481 c 0,5,6
 809 481 809 481 906 464 c 128,-1,7
 1003 447 1003 447 1069 419 c 128,-1,8
 1135 391 1135 391 1168.5 355.5 c 128,-1,9
 1202 320 1202 320 1202 283 c 0,10,11
 1202 248 1202 248 1171.5 214 c 128,-1,12
 1141 180 1141 180 1079 153 c 128,-1,13
 1017 126 1017 126 922.5 108.5 c 128,-1,14
 828 91 828 91 701 89 c 1,15,16
 732 86 732 86 767 81 c 128,-1,17
 802 76 802 76 840 71.5 c 128,-1,18
 878 67 878 67 918 63.5 c 128,-1,19
 958 60 958 60 999 60 c 0,20,21
 1096 60 1096 60 1193.5 68 c 128,-1,22
 1291 76 1291 76 1380.5 92.5 c 128,-1,23
 1470 109 1470 109 1548 133.5 c 128,-1,24
 1626 158 1626 158 1683.5 191.5 c 128,-1,25
 1741 225 1741 225 1774 267 c 128,-1,26
 1807 309 1807 309 1807 359 c 0,27,28
 1807 416 1807 416 1781.5 460 c 128,-1,29
 1756 504 1756 504 1709.5 536.5 c 128,-1,30
 1663 569 1663 569 1599.5 590.5 c 128,-1,31
 1536 612 1536 612 1460 625.5 c 128,-1,32
 1384 639 1384 639 1299 644.5 c 128,-1,33
 1214 650 1214 650 1124 650 c 0,34,35
 1033 650 1033 650 935 639.5 c 128,-1,36
 837 629 837 629 746.5 614 c 128,-1,37
 656 599 656 599 581 582 c 128,-1,38
 506 565 506 565 462 551 c 1,39,-1
 312 600 l 1,40,41
 330 665 330 665 343.5 755 c 128,-1,42
 357 845 357 845 365 940 c 128,-1,43
 373 1035 373 1035 377 1125.5 c 128,-1,44
 381 1216 381 1216 381 1283 c 1,45,46
 393 1286 393 1286 400 1288.5 c 128,-1,47
 407 1291 407 1291 412.5 1292.5 c 128,-1,48
 418 1294 418 1294 423 1295 c 128,-1,49
 428 1296 428 1296 437 1296 c 0,50,51
 475 1296 475 1296 499 1284 c 128,-1,52
 523 1272 523 1272 537 1253 c 128,-1,53
 551 1234 551 1234 556 1209 c 128,-1,54
 561 1184 561 1184 561 1159 c 0,55,56
 561 1156 561 1156 560.5 1152.5 c 128,-1,57
 560 1149 560 1149 560 1145 c 1,58,59
 605 1177 605 1177 662.5 1202 c 128,-1,60
 720 1227 720 1227 786.5 1246.5 c 128,-1,61
 853 1266 853 1266 925.5 1279.5 c 128,-1,62
 998 1293 998 1293 1072 1302 c 128,-1,63
 1146 1311 1146 1311 1220 1315 c 128,-1,64
 1294 1319 1294 1319 1364 1319 c 0,65,66
 1508 1319 1508 1319 1648 1313 c 128,-1,67
 1788 1307 1788 1307 1913.5 1300 c 128,-1,68
 2039 1293 2039 1293 2143 1287 c 128,-1,69
 2247 1281 2247 1281 2319 1281 c 0,70,71
 2374 1281 2374 1281 2435 1286 c 128,-1,72
 2496 1291 2496 1291 2554 1303 c 128,-1,73
 2612 1315 2612 1315 2663.5 1334.5 c 128,-1,74
 2715 1354 2715 1354 2751 1383 c 1,75,76
 2771 1335 2771 1335 2780 1291 c 128,-1,77
 2789 1247 2789 1247 2789 1205 c 0,78,79
 2789 1046 2789 1046 2680 965.5 c 128,-1,80
 2571 885 2571 885 2342 885 c 0,81,82
 2141 885 2141 885 1954 901.5 c 128,-1,83
 1767 918 1767 918 1591.5 938.5 c 128,-1,84
 1416 959 1416 959 1252 975.5 c 128,-1,85
 1088 992 1088 992 933 992 c 0,86,87
 890 992 890 992 840.5 990.5 c 128,-1,88
 791 989 791 989 740 983.5 c 128,-1,89
 689 978 689 978 639 968 c 128,-1,90
 589 958 589 958 545 941 c 1,91,92
 541 905 541 905 537 867.5 c 128,-1,93
 533 830 533 830 529 795.5 c 128,-1,94
 525 761 525 761 520.5 730 c 128,-1,95
 516 699 516 699 512 675 c 1,96,97
 636 711 636 711 779 735 c 128,-1,98
 922 759 922 759 1072.5 773 c 128,-1,99
 1223 787 1223 787 1375 792.5 c 128,-1,100
 1527 798 1527 798 1669 798 c 0,101,102
 2018 798 2018 798 2263.5 774.5 c 128,-1,103
 2509 751 2509 751 2664.5 703 c 128,-1,104
 2820 655 2820 655 2891.5 582 c 128,-1,105
 2963 509 2963 509 2963 410 c 0,106,107
 2963 332 2963 332 2912.5 267.5 c 128,-1,108
 2862 203 2862 203 2772.5 151 c 128,-1,109
 2683 99 2683 99 2559.5 60 c 128,-1,110
 2436 21 2436 21 2289.5 -5 c 128,-1,111
 2143 -31 2143 -31 1979 -44 c 128,-1,112
 1815 -57 1815 -57 1645 -57 c 0,113,114
 1459 -57 1459 -57 1277 -51.5 c 128,-1,115
 1095 -46 1095 -46 929.5 -32.5 c 128,-1,116
 764 -19 764 -19 622.5 3.5 c 128,-1,117
 481 26 481 26 377.5 60.5 c 128,-1,118
 274 95 274 95 215 142.5 c 128,-1,119
 156 190 156 190 156 252 c 0,0,1
EndSplineSet
Validated: 1
EndChar

StartChar: eight
Encoding: 56 56 61
Width: 3126
Flags: W
LayerCount: 2
Fore
SplineSet
249 224 m 0,0,1
 249 285 249 285 296 328 c 128,-1,2
 343 371 343 371 421.5 399.5 c 128,-1,3
 500 428 500 428 602 445.5 c 128,-1,4
 704 463 704 463 814 473 c 1,5,6
 708 503 708 503 613 542.5 c 128,-1,7
 518 582 518 582 446.5 634 c 128,-1,8
 375 686 375 686 333 751.5 c 128,-1,9
 291 817 291 817 291 898 c 0,10,11
 291 970 291 970 338 1029.5 c 128,-1,12
 385 1089 385 1089 469.5 1135.5 c 128,-1,13
 554 1182 554 1182 671 1216 c 128,-1,14
 788 1250 788 1250 928 1272 c 128,-1,15
 1068 1294 1068 1294 1226 1305 c 128,-1,16
 1384 1316 1384 1316 1551 1316 c 0,17,18
 1673 1316 1673 1316 1808 1311 c 128,-1,19
 1943 1306 1943 1306 2075 1294.5 c 128,-1,20
 2207 1283 2207 1283 2326.5 1264 c 128,-1,21
 2446 1245 2446 1245 2537 1217 c 128,-1,22
 2628 1189 2628 1189 2682 1151 c 128,-1,23
 2736 1113 2736 1113 2736 1064 c 0,24,25
 2736 1023 2736 1023 2698.5 986.5 c 128,-1,26
 2661 950 2661 950 2598 921 c 128,-1,27
 2535 892 2535 892 2452 871.5 c 128,-1,28
 2369 851 2369 851 2279 843 c 1,29,30
 2431 813 2431 813 2564 769.5 c 128,-1,31
 2697 726 2697 726 2795.5 667.5 c 128,-1,32
 2894 609 2894 609 2951 533.5 c 128,-1,33
 3008 458 3008 458 3008 364 c 0,34,35
 3008 278 3008 278 2921.5 201.5 c 128,-1,36
 2835 125 2835 125 2657.5 67.5 c 128,-1,37
 2480 10 2480 10 2209.5 -23.5 c 128,-1,38
 1939 -57 1939 -57 1571 -57 c 0,39,40
 1481 -57 1481 -57 1376 -54 c 128,-1,41
 1271 -51 1271 -51 1161.5 -44.5 c 128,-1,42
 1052 -38 1052 -38 941.5 -27.5 c 128,-1,43
 831 -17 831 -17 729.5 -1 c 128,-1,44
 628 15 628 15 540.5 36.5 c 128,-1,45
 453 58 453 58 388 85.5 c 128,-1,46
 323 113 323 113 286 147.5 c 128,-1,47
 249 182 249 182 249 224 c 0,0,1
1257 1130 m 1,48,49
 1257 1085 1257 1085 1307.5 1049.5 c 128,-1,50
 1358 1014 1358 1014 1454 985.5 c 128,-1,51
 1550 957 1550 957 1690 932.5 c 128,-1,52
 1830 908 1830 908 2010 886 c 0,53,54
 2044 881 2044 881 2077.5 876.5 c 128,-1,55
 2111 872 2111 872 2144 867 c 1,56,57
 2235 910 2235 910 2242 1019 c 1,58,59
 2242 1070 2242 1070 2197 1107 c 128,-1,60
 2152 1144 2152 1144 2068.5 1168 c 128,-1,61
 1985 1192 1985 1192 1866.5 1203.5 c 128,-1,62
 1748 1215 1748 1215 1602 1215 c 0,63,64
 1546 1215 1546 1215 1486 1213 c 128,-1,65
 1426 1211 1426 1211 1375.5 1203 c 128,-1,66
 1325 1195 1325 1195 1291.5 1178 c 128,-1,67
 1258 1161 1258 1161 1257 1130 c 1,48,49
800 262 m 1,68,69
 800 207 800 207 850.5 167 c 128,-1,70
 901 127 901 127 999.5 101 c 128,-1,71
 1098 75 1098 75 1243 62.5 c 128,-1,72
 1388 50 1388 50 1577 50 c 0,73,74
 1652 50 1652 50 1728.5 53.5 c 128,-1,75
 1805 57 1805 57 1867 68.5 c 128,-1,76
 1929 80 1929 80 1968.5 102 c 128,-1,77
 2008 124 2008 124 2010 162 c 1,78,79
 2010 198 2010 198 1957.5 227.5 c 128,-1,80
 1905 257 1905 257 1799.5 284 c 128,-1,81
 1694 311 1694 311 1536.5 338 c 128,-1,82
 1379 365 1379 365 1169 396 c 0,83,84
 1112 404 1112 404 1054.5 416 c 128,-1,85
 997 428 997 428 939 441 c 1,86,87
 915 433 915 433 890.5 417.5 c 128,-1,88
 866 402 866 402 846.5 378.5 c 128,-1,89
 827 355 827 355 814.5 325.5 c 128,-1,90
 802 296 802 296 800 262 c 1,68,69
EndSplineSet
Validated: 1
EndChar

StartChar: seven
Encoding: 55 55 62
Width: 2993
Flags: W
LayerCount: 2
Fore
SplineSet
322 625 m 1,0,1
 287 640 287 640 244.5 675.5 c 128,-1,2
 202 711 202 711 165 759 c 128,-1,3
 128 807 128 807 103 863 c 128,-1,4
 78 919 78 919 78 975 c 0,5,6
 78 1084 78 1084 115.5 1161 c 128,-1,7
 153 1238 153 1238 238.5 1287 c 128,-1,8
 324 1336 324 1336 463.5 1358.5 c 128,-1,9
 603 1381 603 1381 806 1381 c 0,10,11
 983 1381 983 1381 1147 1365 c 128,-1,12
 1311 1349 1311 1349 1473 1330.5 c 128,-1,13
 1635 1312 1635 1312 1800.5 1296 c 128,-1,14
 1966 1280 1966 1280 2145 1280 c 0,15,16
 2330 1280 2330 1280 2511.5 1302 c 128,-1,17
 2693 1324 2693 1324 2875 1355 c 1,18,-1
 2875 1160 l 2,19,20
 2875 1037 2875 1037 2842 949 c 128,-1,21
 2809 861 2809 861 2755 796.5 c 128,-1,22
 2701 732 2701 732 2631 686.5 c 128,-1,23
 2561 641 2561 641 2486.5 603.5 c 128,-1,24
 2412 566 2412 566 2339 532 c 128,-1,25
 2266 498 2266 498 2205.5 456.5 c 128,-1,26
 2145 415 2145 415 2103 361 c 128,-1,27
 2061 307 2061 307 2048 231 c 1,28,29
 2036 171 2036 171 1989 116.5 c 128,-1,30
 1942 62 1942 62 1863.5 20 c 128,-1,31
 1785 -22 1785 -22 1676 -47 c 128,-1,32
 1567 -72 1567 -72 1432 -72 c 0,33,34
 1353 -72 1353 -72 1276.5 -66 c 128,-1,35
 1200 -60 1200 -60 1131 -46 c 128,-1,36
 1062 -32 1062 -32 1003.5 -9 c 128,-1,37
 945 14 945 14 902 47.5 c 128,-1,38
 859 81 859 81 835 126 c 128,-1,39
 811 171 811 171 811 229 c 0,40,41
 811 317 811 317 860.5 379 c 128,-1,42
 910 441 910 441 996 485 c 128,-1,43
 1082 529 1082 529 1198 558 c 128,-1,44
 1314 587 1314 587 1445.5 609 c 128,-1,45
 1577 631 1577 631 1718 649 c 128,-1,46
 1859 667 1859 667 1996.5 688.5 c 128,-1,47
 2134 710 2134 710 2260 738.5 c 128,-1,48
 2386 767 2386 767 2488.5 809.5 c 128,-1,49
 2591 852 2591 852 2662.5 912.5 c 128,-1,50
 2734 973 2734 973 2761 1059 c 1,51,52
 2703 1035 2703 1035 2620 1015 c 128,-1,53
 2537 995 2537 995 2436 978.5 c 128,-1,54
 2335 962 2335 962 2220 949 c 128,-1,55
 2105 936 2105 936 1982.5 927.5 c 128,-1,56
 1860 919 1860 919 1733.5 914.5 c 128,-1,57
 1607 910 1607 910 1484 910 c 0,58,59
 1181 910 1181 910 975 895 c 128,-1,60
 769 880 769 880 642.5 846 c 128,-1,61
 516 812 516 812 461.5 758 c 128,-1,62
 407 704 407 704 407 625 c 1,63,-1
 322 625 l 1,0,1
EndSplineSet
Validated: 1
EndChar

StartChar: four
Encoding: 52 52 63
Width: 3208
Flags: W
LayerCount: 2
Fore
SplineSet
52 526 m 1,0,1
 92 548 92 548 163.5 589.5 c 128,-1,2
 235 631 235 631 325.5 686 c 128,-1,3
 416 741 416 741 518 804.5 c 128,-1,4
 620 868 620 868 720 933.5 c 128,-1,5
 820 999 820 999 912 1061.5 c 128,-1,6
 1004 1124 1004 1124 1074 1177 c 128,-1,7
 1144 1230 1144 1230 1186 1269 c 128,-1,8
 1228 1308 1228 1308 1228 1326 c 1,9,-1
 2443 1326 l 1,10,-1
 2443 526 l 1,11,-1
 3024 526 l 1,12,-1
 3024 399 l 1,13,-1
 2450 399 l 1,14,15
 2458 327 2458 327 2476 277.5 c 128,-1,16
 2494 228 2494 228 2524 195.5 c 128,-1,17
 2554 163 2554 163 2596.5 144 c 128,-1,18
 2639 125 2639 125 2697 115 c 128,-1,19
 2755 105 2755 105 2828.5 101 c 128,-1,20
 2902 97 2902 97 2993 94 c 1,21,-1
 2993 0 l 1,22,-1
 674 0 l 1,23,-1
 674 94 l 1,24,25
 796 98 796 98 898.5 113 c 128,-1,26
 1001 128 1001 128 1079.5 162.5 c 128,-1,27
 1158 197 1158 197 1211 254.5 c 128,-1,28
 1264 312 1264 312 1287 399 c 1,29,-1
 52 399 l 1,30,-1
 52 526 l 1,0,1
609 556 m 0,31,32
 609 543 609 543 619.5 535.5 c 128,-1,33
 630 528 630 528 654 526 c 1,34,-1
 1304 526 l 1,35,36
 1304 531 1304 531 1304.5 536 c 128,-1,37
 1305 541 1305 541 1305 546 c 2,38,-1
 1305 1103 l 2,39,40
 1305 1127 1305 1127 1272 1127 c 0,41,42
 1244 1127 1244 1127 1200.5 1108.5 c 128,-1,43
 1157 1090 1157 1090 1105 1058 c 128,-1,44
 1053 1026 1053 1026 996 984 c 128,-1,45
 939 942 939 942 884 895 c 128,-1,46
 829 848 829 848 779 799 c 128,-1,47
 729 750 729 750 691.5 705 c 128,-1,48
 654 660 654 660 631.5 621.5 c 128,-1,49
 609 583 609 583 609 556 c 0,31,32
EndSplineSet
Validated: 1
EndChar

StartChar: comma
Encoding: 44 44 64
Width: 1190
Flags: W
LayerCount: 2
Fore
SplineSet
194 -151 m 1,0,1
 225 -166 225 -166 264 -179 c 128,-1,2
 303 -192 303 -192 347 -201 c 128,-1,3
 391 -210 391 -210 438.5 -215 c 128,-1,4
 486 -220 486 -220 534 -220 c 0,5,6
 606 -220 606 -220 671 -206.5 c 128,-1,7
 736 -193 736 -193 786 -162 c 128,-1,8
 836 -131 836 -131 867 -80.5 c 128,-1,9
 898 -30 898 -30 903 44 c 1,10,11
 840 -6 840 -6 758 -22.5 c 128,-1,12
 676 -39 676 -39 573 -39 c 0,13,14
 478 -39 478 -39 395 -21.5 c 128,-1,15
 312 -4 312 -4 250.5 30.5 c 128,-1,16
 189 65 189 65 153 116.5 c 128,-1,17
 117 168 117 168 117 236 c 0,18,19
 117 300 117 300 153 352.5 c 128,-1,20
 189 405 189 405 250.5 441.5 c 128,-1,21
 312 478 312 478 395 498 c 128,-1,22
 478 518 478 518 573 518 c 0,23,24
 694 518 694 518 787.5 492.5 c 128,-1,25
 881 467 881 467 944.5 420.5 c 128,-1,26
 1008 374 1008 374 1040.5 307.5 c 128,-1,27
 1073 241 1073 241 1073 159 c 0,28,29
 1073 23 1073 23 1029.5 -70.5 c 128,-1,30
 986 -164 986 -164 912.5 -222 c 128,-1,31
 839 -280 839 -280 742.5 -305.5 c 128,-1,32
 646 -331 646 -331 540 -331 c 0,33,34
 442 -331 442 -331 343 -312.5 c 128,-1,35
 244 -294 244 -294 154 -257 c 1,36,-1
 194 -151 l 1,0,1
EndSplineSet
Validated: 1
EndChar

StartChar: exclam
Encoding: 33 33 65
Width: 1148
Flags: W
LayerCount: 2
Fore
SplineSet
458 739 m 0,0,1
 458 804 458 804 429.5 861.5 c 128,-1,2
 401 919 401 919 358 971.5 c 128,-1,3
 315 1024 315 1024 264.5 1073 c 128,-1,4
 214 1122 214 1122 171 1171 c 128,-1,5
 128 1220 128 1220 99.5 1270.5 c 128,-1,6
 71 1321 71 1321 71 1376 c 0,7,8
 71 1462 71 1462 112 1520 c 128,-1,9
 153 1578 153 1578 222.5 1613.5 c 128,-1,10
 292 1649 292 1649 383 1664.5 c 128,-1,11
 474 1680 474 1680 574 1680 c 256,12,13
 674 1680 674 1680 765 1664.5 c 128,-1,14
 856 1649 856 1649 925.5 1613.5 c 128,-1,15
 995 1578 995 1578 1036 1520 c 128,-1,16
 1077 1462 1077 1462 1077 1376 c 0,17,18
 1077 1321 1077 1321 1048.5 1270.5 c 128,-1,19
 1020 1220 1020 1220 977 1171 c 128,-1,20
 934 1122 934 1122 883.5 1073 c 128,-1,21
 833 1024 833 1024 790 971.5 c 128,-1,22
 747 919 747 919 718.5 861.5 c 128,-1,23
 690 804 690 804 690 739 c 0,24,25
 690 718 690 718 681 703.5 c 128,-1,26
 672 689 672 689 656.5 679.5 c 128,-1,27
 641 670 641 670 620 665.5 c 128,-1,28
 599 661 599 661 574 661 c 0,29,30
 524 661 524 661 491 679.5 c 128,-1,31
 458 698 458 698 458 739 c 0,0,1
118 230 m 256,32,33
 118 287 118 287 154 337.5 c 128,-1,34
 190 388 190 388 251.5 425.5 c 128,-1,35
 313 463 313 463 396 485 c 128,-1,36
 479 507 479 507 574 507 c 0,37,38
 668 507 668 507 751.5 485 c 128,-1,39
 835 463 835 463 897 425.5 c 128,-1,40
 959 388 959 388 995 337.5 c 128,-1,41
 1031 287 1031 287 1031 230 c 256,42,43
 1031 173 1031 173 995 123 c 128,-1,44
 959 73 959 73 897 35.5 c 128,-1,45
 835 -2 835 -2 751.5 -23.5 c 128,-1,46
 668 -45 668 -45 574 -45 c 0,47,48
 479 -45 479 -45 396 -23.5 c 128,-1,49
 313 -2 313 -2 251.5 35.5 c 128,-1,50
 190 73 190 73 154 123 c 128,-1,51
 118 173 118 173 118 230 c 256,32,33
EndSplineSet
Validated: 1
EndChar

StartChar: dollar
Encoding: 36 36 66
Width: 2889
Flags: W
LayerCount: 2
Fore
SplineSet
320 -57 m 1,0,1
 309 -36 309 -36 299 1.5 c 128,-1,2
 289 39 289 39 280.5 85 c 128,-1,3
 272 131 272 131 264.5 180.5 c 128,-1,4
 257 230 257 230 252 276.5 c 128,-1,5
 247 323 247 323 244.5 361.5 c 128,-1,6
 242 400 242 400 242 423 c 1,7,-1
 344 423 l 1,8,9
 377 356 377 356 431 304 c 128,-1,10
 485 252 485 252 554 213 c 128,-1,11
 623 174 623 174 704 147 c 128,-1,12
 785 120 785 120 872.5 103.5 c 128,-1,13
 960 87 960 87 1050.5 79.5 c 128,-1,14
 1141 72 1141 72 1229 72 c 0,15,16
 1373 72 1373 72 1469 84.5 c 128,-1,17
 1565 97 1565 97 1623 118.5 c 128,-1,18
 1681 140 1681 140 1705 169 c 128,-1,19
 1729 198 1729 198 1729 232 c 0,20,21
 1729 281 1729 281 1687 311.5 c 128,-1,22
 1645 342 1645 342 1572.5 360 c 128,-1,23
 1500 378 1500 378 1403.5 388 c 128,-1,24
 1307 398 1307 398 1198.5 406 c 128,-1,25
 1090 414 1090 414 976 423.5 c 128,-1,26
 862 433 862 433 753.5 451.5 c 128,-1,27
 645 470 645 470 548.5 500.5 c 128,-1,28
 452 531 452 531 379.5 580 c 128,-1,29
 307 629 307 629 265 700.5 c 128,-1,30
 223 772 223 772 223 873 c 0,31,32
 223 965 223 965 267 1035.5 c 128,-1,33
 311 1106 311 1106 389 1159 c 128,-1,34
 467 1212 467 1212 575 1248 c 128,-1,35
 683 1284 683 1284 810.5 1306 c 128,-1,36
 938 1328 938 1328 1080.5 1337.5 c 128,-1,37
 1223 1347 1223 1347 1371 1347 c 2,38,-1
 1417 1347 l 1,39,40
 1416 1374 1416 1374 1415 1402 c 128,-1,41
 1414 1430 1414 1430 1413 1455 c 128,-1,42
 1412 1480 1412 1480 1411 1501 c 128,-1,43
 1410 1522 1410 1522 1409 1537 c 1,44,45
 1422 1540 1422 1540 1437.5 1541.5 c 128,-1,46
 1453 1543 1453 1543 1469.5 1544.5 c 128,-1,47
 1486 1546 1486 1546 1502 1546.5 c 128,-1,48
 1518 1547 1518 1547 1531 1547 c 0,49,50
 1556 1547 1556 1547 1581.5 1544.5 c 128,-1,51
 1607 1542 1607 1542 1633 1537 c 1,52,53
 1631 1522 1631 1522 1630 1500 c 128,-1,54
 1629 1478 1629 1478 1627.5 1452 c 128,-1,55
 1626 1426 1626 1426 1624.5 1396.5 c 128,-1,56
 1623 1367 1623 1367 1622 1339 c 1,57,58
 1787 1329 1787 1329 1933.5 1316 c 128,-1,59
 2080 1303 2080 1303 2205 1303 c 0,60,61
 2259 1303 2259 1303 2299.5 1305 c 128,-1,62
 2340 1307 2340 1307 2378 1312 c 128,-1,63
 2416 1317 2416 1317 2455 1325.5 c 128,-1,64
 2494 1334 2494 1334 2545 1347 c 1,65,66
 2556 1325 2556 1325 2565.5 1291 c 128,-1,67
 2575 1257 2575 1257 2583.5 1216 c 128,-1,68
 2592 1175 2592 1175 2599 1131 c 128,-1,69
 2606 1087 2606 1087 2611 1046 c 128,-1,70
 2616 1005 2616 1005 2618.5 969.5 c 128,-1,71
 2621 934 2621 934 2621 911 c 1,72,-1
 2508 911 l 1,73,74
 2494 950 2494 950 2453.5 989 c 128,-1,75
 2413 1028 2413 1028 2350 1064 c 128,-1,76
 2287 1100 2287 1100 2205 1131 c 128,-1,77
 2123 1162 2123 1162 2026 1185 c 128,-1,78
 1929 1208 1929 1208 1820 1221 c 128,-1,79
 1711 1234 1711 1234 1595 1234 c 0,80,81
 1529 1234 1529 1234 1478.5 1222 c 128,-1,82
 1428 1210 1428 1210 1393 1190.5 c 128,-1,83
 1358 1171 1358 1171 1340 1145.5 c 128,-1,84
 1322 1120 1322 1120 1322 1093 c 0,85,86
 1322 1034 1322 1034 1362 996.5 c 128,-1,87
 1402 959 1402 959 1471 936.5 c 128,-1,88
 1540 914 1540 914 1631.5 902 c 128,-1,89
 1723 890 1723 890 1826.5 881 c 128,-1,90
 1930 872 1930 872 2038.5 862 c 128,-1,91
 2147 852 2147 852 2250.5 833.5 c 128,-1,92
 2354 815 2354 815 2445.5 784 c 128,-1,93
 2537 753 2537 753 2606 702 c 128,-1,94
 2675 651 2675 651 2715 575.5 c 128,-1,95
 2755 500 2755 500 2755 393 c 0,96,97
 2755 295 2755 295 2709 223.5 c 128,-1,98
 2663 152 2663 152 2582 102 c 128,-1,99
 2501 52 2501 52 2390.5 21 c 128,-1,100
 2280 -10 2280 -10 2151 -27.5 c 128,-1,101
 2022 -45 2022 -45 1880 -51 c 128,-1,102
 1738 -57 1738 -57 1595 -57 c 1,103,104
 1597 -118 1597 -118 1599.5 -170.5 c 128,-1,105
 1602 -223 1602 -223 1605 -262 c 1,106,107
 1598 -264 1598 -264 1583 -265.5 c 128,-1,108
 1568 -267 1568 -267 1551 -268.5 c 128,-1,109
 1534 -270 1534 -270 1518 -270.5 c 128,-1,110
 1502 -271 1502 -271 1493 -271 c 0,111,112
 1485 -271 1485 -271 1469.5 -270.5 c 128,-1,113
 1454 -270 1454 -270 1437.5 -268.5 c 128,-1,114
 1421 -267 1421 -267 1405.5 -265.5 c 128,-1,115
 1390 -264 1390 -264 1381 -262 c 1,116,117
 1383 -224 1383 -224 1385.5 -170.5 c 128,-1,118
 1388 -117 1388 -117 1390 -52 c 1,119,120
 1298 -48 1298 -48 1210.5 -41 c 128,-1,121
 1123 -34 1123 -34 1034.5 -28 c 128,-1,122
 946 -22 946 -22 853 -17.5 c 128,-1,123
 760 -13 760 -13 657 -13 c 0,124,125
 604 -13 604 -13 563.5 -15 c 128,-1,126
 523 -17 523 -17 485.5 -22 c 128,-1,127
 448 -27 448 -27 409 -35.5 c 128,-1,128
 370 -44 370 -44 320 -57 c 1,0,1
EndSplineSet
Validated: 1
EndChar

StartChar: colon
Encoding: 58 58 67
Width: 1147
Flags: W
LayerCount: 2
Fore
SplineSet
573 661 m 256,0,1
 475 661 475 661 391.5 681.5 c 128,-1,2
 308 702 308 702 247 739 c 128,-1,3
 186 776 186 776 151.5 828.5 c 128,-1,4
 117 881 117 881 117 946 c 0,5,6
 117 1010 117 1010 151.5 1062.5 c 128,-1,7
 186 1115 186 1115 247 1151.5 c 128,-1,8
 308 1188 308 1188 391.5 1208 c 128,-1,9
 475 1228 475 1228 573 1228 c 256,10,11
 671 1228 671 1228 755 1208 c 128,-1,12
 839 1188 839 1188 900 1151.5 c 128,-1,13
 961 1115 961 1115 995.5 1062.5 c 128,-1,14
 1030 1010 1030 1010 1030 946 c 0,15,16
 1030 881 1030 881 995.5 828.5 c 128,-1,17
 961 776 961 776 900 739 c 128,-1,18
 839 702 839 702 755 681.5 c 128,-1,19
 671 661 671 661 573 661 c 256,0,1
117 240 m 0,20,21
 117 304 117 304 151.5 356.5 c 128,-1,22
 186 409 186 409 247 445.5 c 128,-1,23
 308 482 308 482 391.5 502 c 128,-1,24
 475 522 475 522 573 522 c 256,25,26
 671 522 671 522 755 502 c 128,-1,27
 839 482 839 482 900 445.5 c 128,-1,28
 961 409 961 409 995.5 356.5 c 128,-1,29
 1030 304 1030 304 1030 240 c 0,30,31
 1030 175 1030 175 995.5 122.5 c 128,-1,32
 961 70 961 70 900 33 c 128,-1,33
 839 -4 839 -4 755 -24.5 c 128,-1,34
 671 -45 671 -45 573 -45 c 256,35,36
 475 -45 475 -45 391.5 -24.5 c 128,-1,37
 308 -4 308 -4 247 33 c 128,-1,38
 186 70 186 70 151.5 122.5 c 128,-1,39
 117 175 117 175 117 240 c 0,20,21
EndSplineSet
Validated: 1
EndChar

StartChar: semicolon
Encoding: 59 59 68
Width: 1190
Flags: W
LayerCount: 2
Fore
SplineSet
573 661 m 256,0,1
 475 661 475 661 391.5 681.5 c 128,-1,2
 308 702 308 702 247 739 c 128,-1,3
 186 776 186 776 151.5 828.5 c 128,-1,4
 117 881 117 881 117 946 c 0,5,6
 117 1010 117 1010 151.5 1062.5 c 128,-1,7
 186 1115 186 1115 247 1151.5 c 128,-1,8
 308 1188 308 1188 391.5 1208 c 128,-1,9
 475 1228 475 1228 573 1228 c 256,10,11
 671 1228 671 1228 755 1208 c 128,-1,12
 839 1188 839 1188 900 1151.5 c 128,-1,13
 961 1115 961 1115 995.5 1062.5 c 128,-1,14
 1030 1010 1030 1010 1030 946 c 0,15,16
 1030 881 1030 881 995.5 828.5 c 128,-1,17
 961 776 961 776 900 739 c 128,-1,18
 839 702 839 702 755 681.5 c 128,-1,19
 671 661 671 661 573 661 c 256,0,1
194 -151 m 1,20,21
 225 -166 225 -166 264 -179 c 128,-1,22
 303 -192 303 -192 347 -201 c 128,-1,23
 391 -210 391 -210 438.5 -215 c 128,-1,24
 486 -220 486 -220 534 -220 c 0,25,26
 606 -220 606 -220 671 -206.5 c 128,-1,27
 736 -193 736 -193 786 -162 c 128,-1,28
 836 -131 836 -131 867 -80.5 c 128,-1,29
 898 -30 898 -30 903 44 c 1,30,31
 840 -6 840 -6 758 -22.5 c 128,-1,32
 676 -39 676 -39 573 -39 c 0,33,34
 478 -39 478 -39 395 -21.5 c 128,-1,35
 312 -4 312 -4 250.5 30.5 c 128,-1,36
 189 65 189 65 153 116.5 c 128,-1,37
 117 168 117 168 117 236 c 0,38,39
 117 300 117 300 153 352.5 c 128,-1,40
 189 405 189 405 250.5 441.5 c 128,-1,41
 312 478 312 478 395 498 c 128,-1,42
 478 518 478 518 573 518 c 0,43,44
 694 518 694 518 787.5 492.5 c 128,-1,45
 881 467 881 467 944.5 420.5 c 128,-1,46
 1008 374 1008 374 1040.5 307.5 c 128,-1,47
 1073 241 1073 241 1073 159 c 0,48,49
 1073 23 1073 23 1029.5 -70.5 c 128,-1,50
 986 -164 986 -164 912.5 -222 c 128,-1,51
 839 -280 839 -280 742.5 -305.5 c 128,-1,52
 646 -331 646 -331 540 -331 c 0,53,54
 442 -331 442 -331 343 -312.5 c 128,-1,55
 244 -294 244 -294 154 -257 c 1,56,-1
 194 -151 l 1,20,21
EndSplineSet
Validated: 1
EndChar

StartChar: question
Encoding: 63 63 69
Width: 2637
Flags: W
LayerCount: 2
Fore
SplineSet
579 1017 m 0,0,1
 486 1017 486 1017 397.5 1032.5 c 128,-1,2
 309 1048 309 1048 240.5 1081 c 128,-1,3
 172 1114 172 1114 130 1165 c 128,-1,4
 88 1216 88 1216 88 1288 c 0,5,6
 88 1348 88 1348 139 1397 c 128,-1,7
 190 1446 190 1446 279.5 1484 c 128,-1,8
 369 1522 369 1522 490 1549.5 c 128,-1,9
 611 1577 611 1577 751 1595 c 128,-1,10
 891 1613 891 1613 1043 1621.5 c 128,-1,11
 1195 1630 1195 1630 1347 1630 c 0,12,13
 1408 1630 1408 1630 1492 1629 c 128,-1,14
 1576 1628 1576 1628 1671 1623 c 128,-1,15
 1766 1618 1766 1618 1867.5 1608 c 128,-1,16
 1969 1598 1969 1598 2065.5 1579.5 c 128,-1,17
 2162 1561 2162 1561 2248 1533.5 c 128,-1,18
 2334 1506 2334 1506 2398.5 1466.5 c 128,-1,19
 2463 1427 2463 1427 2501 1373.5 c 128,-1,20
 2539 1320 2539 1320 2539 1250 c 0,21,22
 2539 1171 2539 1171 2499 1120 c 128,-1,23
 2459 1069 2459 1069 2388 1033.5 c 128,-1,24
 2317 998 2317 998 2220 973 c 128,-1,25
 2123 948 2123 948 2009.5 920 c 128,-1,26
 1896 892 1896 892 1770.5 855.5 c 128,-1,27
 1645 819 1645 819 1518 762 c 0,28,29
 1486 748 1486 748 1467.5 733 c 128,-1,30
 1449 718 1449 718 1436.5 704 c 128,-1,31
 1424 690 1424 690 1413 677.5 c 128,-1,32
 1402 665 1402 665 1385 655.5 c 128,-1,33
 1368 646 1368 646 1341 640.5 c 128,-1,34
 1314 635 1314 635 1269 635 c 0,35,36
 1241 635 1241 635 1214.5 643.5 c 128,-1,37
 1188 652 1188 652 1167.5 668.5 c 128,-1,38
 1147 685 1147 685 1134.5 708.5 c 128,-1,39
 1122 732 1122 732 1122 762 c 0,40,41
 1122 815 1122 815 1152.5 856.5 c 128,-1,42
 1183 898 1183 898 1229 935 c 128,-1,43
 1275 972 1275 972 1329 1006.5 c 128,-1,44
 1383 1041 1383 1041 1429 1079 c 128,-1,45
 1475 1117 1475 1117 1505.5 1161.5 c 128,-1,46
 1536 1206 1536 1206 1536 1262 c 0,47,48
 1536 1333 1536 1333 1493 1378 c 128,-1,49
 1450 1423 1450 1423 1379 1449 c 128,-1,50
 1308 1475 1308 1475 1215 1484.5 c 128,-1,51
 1122 1494 1122 1494 1022 1494 c 0,52,53
 986 1494 986 1494 932 1492 c 128,-1,54
 878 1490 878 1490 820.5 1487 c 128,-1,55
 763 1484 763 1484 709.5 1480 c 128,-1,56
 656 1476 656 1476 621 1472 c 1,57,58
 748 1467 748 1467 832.5 1446.5 c 128,-1,59
 917 1426 917 1426 967.5 1396 c 128,-1,60
 1018 1366 1018 1366 1038.5 1328 c 128,-1,61
 1059 1290 1059 1290 1059 1250 c 0,62,63
 1059 1196 1059 1196 1021 1153 c 128,-1,64
 983 1110 983 1110 917.5 1079.5 c 128,-1,65
 852 1049 852 1049 764.5 1033 c 128,-1,66
 677 1017 677 1017 579 1017 c 0,0,1
850 230 m 256,67,68
 850 287 850 287 886 337.5 c 128,-1,69
 922 388 922 388 983.5 425.5 c 128,-1,70
 1045 463 1045 463 1128 485 c 128,-1,71
 1211 507 1211 507 1306 507 c 0,72,73
 1400 507 1400 507 1483.5 485 c 128,-1,74
 1567 463 1567 463 1629 425.5 c 128,-1,75
 1691 388 1691 388 1727 337.5 c 128,-1,76
 1763 287 1763 287 1763 230 c 256,77,78
 1763 173 1763 173 1727 123 c 128,-1,79
 1691 73 1691 73 1629 35.5 c 128,-1,80
 1567 -2 1567 -2 1483.5 -23.5 c 128,-1,81
 1400 -45 1400 -45 1306 -45 c 0,82,83
 1211 -45 1211 -45 1128 -23.5 c 128,-1,84
 1045 -2 1045 -2 983.5 35.5 c 128,-1,85
 922 73 922 73 886 123 c 128,-1,86
 850 173 850 173 850 230 c 256,67,68
EndSplineSet
Validated: 1
EndChar

StartChar: yen
Encoding: 165 165 70
Width: 2972
Flags: W
LayerCount: 2
Fore
SplineSet
407 94 m 1,0,1
 517 97 517 97 600 116.5 c 128,-1,2
 683 136 683 136 742.5 167 c 128,-1,3
 802 198 802 198 840 235.5 c 128,-1,4
 878 273 878 273 898 312 c 1,5,6
 809 311 809 311 723 309.5 c 128,-1,7
 637 308 637 308 562 305.5 c 128,-1,8
 487 303 487 303 426 301 c 128,-1,9
 365 299 365 299 328 296 c 1,10,11
 326 303 326 303 324.5 318 c 128,-1,12
 323 333 323 333 321.5 350 c 128,-1,13
 320 367 320 367 319.5 383 c 128,-1,14
 319 399 319 399 319 408 c 0,15,16
 319 416 319 416 319.5 428.5 c 128,-1,17
 320 441 320 441 321.5 454 c 128,-1,18
 323 467 323 467 324.5 479 c 128,-1,19
 326 491 326 491 328 500 c 1,20,21
 364 497 364 497 427 494.5 c 128,-1,22
 490 492 490 492 569 490 c 128,-1,23
 648 488 648 488 739 486.5 c 128,-1,24
 830 485 830 485 922 484 c 1,25,-1
 922 542 l 1,26,27
 908 563 908 563 893 584 c 128,-1,28
 878 605 878 605 863 626 c 1,29,30
 786 625 786 625 705 623.5 c 128,-1,31
 624 622 624 622 550.5 620 c 128,-1,32
 477 618 477 618 418.5 616 c 128,-1,33
 360 614 360 614 328 612 c 1,34,35
 326 619 326 619 324.5 632.5 c 128,-1,36
 323 646 323 646 321.5 661 c 128,-1,37
 320 676 320 676 319.5 690.5 c 128,-1,38
 319 705 319 705 319 714 c 0,39,40
 319 722 319 722 319.5 735 c 128,-1,41
 320 748 320 748 321.5 762 c 128,-1,42
 323 776 323 776 324.5 789 c 128,-1,43
 326 802 326 802 328 811 c 1,44,45
 352 809 352 809 394.5 805.5 c 128,-1,46
 437 802 437 802 491.5 797.5 c 128,-1,47
 546 793 546 793 609 788 c 128,-1,48
 672 783 672 783 736 779 c 1,49,50
 650 871 650 871 555 948 c 128,-1,51
 460 1025 460 1025 362 1080.5 c 128,-1,52
 264 1136 264 1136 167 1166.5 c 128,-1,53
 70 1197 70 1197 -20 1197 c 1,54,-1
 -20 1291 l 1,55,-1
 1768 1291 l 1,56,-1
 1768 1197 l 1,57,58
 1680 1197 1680 1197 1633 1161 c 128,-1,59
 1586 1125 1586 1125 1586 1063 c 0,60,61
 1586 1031 1586 1031 1606.5 983.5 c 128,-1,62
 1627 936 1627 936 1666 873.5 c 128,-1,63
 1705 811 1705 811 1761 733.5 c 128,-1,64
 1817 656 1817 656 1887 564 c 1,65,66
 1926 621 1926 621 1973 691.5 c 128,-1,67
 2020 762 2020 762 2060.5 831.5 c 128,-1,68
 2101 901 2101 901 2128 961.5 c 128,-1,69
 2155 1022 2155 1022 2155 1058 c 0,70,71
 2155 1084 2155 1084 2146 1109 c 128,-1,72
 2137 1134 2137 1134 2114.5 1153.5 c 128,-1,73
 2092 1173 2092 1173 2053 1185 c 128,-1,74
 2014 1197 2014 1197 1953 1197 c 1,75,-1
 1953 1291 l 1,76,-1
 2993 1291 l 1,77,-1
 2993 1197 l 1,78,79
 2874 1194 2874 1194 2763 1160 c 128,-1,80
 2652 1126 2652 1126 2553.5 1070.5 c 128,-1,81
 2455 1015 2455 1015 2370 944 c 128,-1,82
 2285 873 2285 873 2219 798 c 1,83,84
 2277 800 2277 800 2341.5 802.5 c 128,-1,85
 2406 805 2406 805 2463.5 807.5 c 128,-1,86
 2521 810 2521 810 2565 812 c 128,-1,87
 2609 814 2609 814 2627 816 c 1,88,89
 2637 767 2637 767 2637 714 c 0,90,91
 2637 689 2637 689 2634.5 663.5 c 128,-1,92
 2632 638 2632 638 2627 612 c 1,93,94
 2611 614 2611 614 2578.5 615.5 c 128,-1,95
 2546 617 2546 617 2502.5 618 c 128,-1,96
 2459 619 2459 619 2407 620.5 c 128,-1,97
 2355 622 2355 622 2301 623 c 128,-1,98
 2247 624 2247 624 2194 624.5 c 128,-1,99
 2141 625 2141 625 2094 626 c 1,100,101
 2071 588 2071 588 2055.5 552 c 128,-1,102
 2040 516 2040 516 2032 484 c 1,103,104
 2127 485 2127 485 2219.5 486.5 c 128,-1,105
 2312 488 2312 488 2391.5 490.5 c 128,-1,106
 2471 493 2471 493 2532.5 495 c 128,-1,107
 2594 497 2594 497 2627 500 c 1,108,109
 2632 474 2632 474 2634.5 454 c 128,-1,110
 2637 434 2637 434 2637 408 c 0,111,112
 2637 383 2637 383 2634.5 352.5 c 128,-1,113
 2632 322 2632 322 2627 296 c 1,114,115
 2595 299 2595 299 2535 302 c 128,-1,116
 2475 305 2475 305 2396 307 c 128,-1,117
 2317 309 2317 309 2225 310.5 c 128,-1,118
 2133 312 2133 312 2038 313 c 1,119,120
 2075 195 2075 195 2204.5 144.5 c 128,-1,121
 2334 94 2334 94 2560 94 c 1,122,-1
 2560 0 l 1,123,-1
 407 0 l 1,124,-1
 407 94 l 1,0,1
EndSplineSet
Validated: 1
EndChar

StartChar: Euro
Encoding: 8364 8364 71
Width: 3247
Flags: W
LayerCount: 2
Fore
SplineSet
115 336 m 1,0,1
 113 343 113 343 111.5 356.5 c 128,-1,2
 110 370 110 370 108.5 385 c 128,-1,3
 107 400 107 400 106.5 414.5 c 128,-1,4
 106 429 106 429 106 438 c 0,5,6
 106 446 106 446 106.5 460 c 128,-1,7
 107 474 107 474 108.5 489 c 128,-1,8
 110 504 110 504 111.5 517.5 c 128,-1,9
 113 531 113 531 115 540 c 1,10,11
 143 538 143 538 184 536 c 128,-1,12
 225 534 225 534 275.5 532.5 c 128,-1,13
 326 531 326 531 383.5 529.5 c 128,-1,14
 441 528 441 528 502 527 c 1,15,16
 497 556 497 556 494 587 c 128,-1,17
 491 618 491 618 491 652 c 0,18,19
 491 680 491 680 494 707 c 1,20,21
 403 705 403 705 328 702 c 128,-1,22
 253 699 253 699 205 696 c 1,23,24
 203 703 203 703 201.5 716.5 c 128,-1,25
 200 730 200 730 198.5 745 c 128,-1,26
 197 760 197 760 196.5 774.5 c 128,-1,27
 196 789 196 789 196 798 c 0,28,29
 196 806 196 806 196.5 820 c 128,-1,30
 197 834 197 834 198.5 849 c 128,-1,31
 200 864 200 864 201.5 877.5 c 128,-1,32
 203 891 203 891 205 900 c 1,33,34
 230 898 230 898 266.5 896 c 128,-1,35
 303 894 303 894 347 892.5 c 128,-1,36
 391 891 391 891 442 889.5 c 128,-1,37
 493 888 493 888 547 887 c 1,38,39
 602 993 602 993 706.5 1078.5 c 128,-1,40
 811 1164 811 1164 958 1223 c 128,-1,41
 1105 1282 1105 1282 1292 1314 c 128,-1,42
 1479 1346 1479 1346 1698 1346 c 0,43,44
 1845 1346 1845 1346 1987 1337 c 128,-1,45
 2129 1328 2129 1328 2252.5 1315.5 c 128,-1,46
 2376 1303 2376 1303 2475.5 1290 c 128,-1,47
 2575 1277 2575 1277 2638 1270 c 0,48,49
 2659 1267 2659 1267 2700 1258 c 128,-1,50
 2741 1249 2741 1249 2787 1249 c 0,51,52
 2821 1249 2821 1249 2852.5 1257.5 c 128,-1,53
 2884 1266 2884 1266 2907 1291 c 1,54,55
 2969 1249 2969 1249 3007.5 1202 c 128,-1,56
 3046 1155 3046 1155 3068 1104 c 128,-1,57
 3090 1053 3090 1053 3098 1000.5 c 128,-1,58
 3106 948 3106 948 3108 896 c 1,59,-1
 2916 896 l 1,60,61
 2869 973 2869 973 2793 1028 c 128,-1,62
 2717 1083 2717 1083 2627 1118 c 128,-1,63
 2537 1153 2537 1153 2441.5 1169 c 128,-1,64
 2346 1185 2346 1185 2261 1185 c 0,65,66
 2157 1185 2157 1185 2072 1169 c 128,-1,67
 1987 1153 1987 1153 1922 1117 c 128,-1,68
 1857 1081 1857 1081 1812 1023.5 c 128,-1,69
 1767 966 1767 966 1742 883 c 1,70,71
 1865 884 1865 884 1989.5 885.5 c 128,-1,72
 2114 887 2114 887 2222.5 889.5 c 128,-1,73
 2331 892 2331 892 2413 894.5 c 128,-1,74
 2495 897 2495 897 2533 900 c 1,75,76
 2543 851 2543 851 2543 798 c 0,77,78
 2543 773 2543 773 2540.5 747.5 c 128,-1,79
 2538 722 2538 722 2533 696 c 1,80,81
 2508 699 2508 699 2460.5 701 c 128,-1,82
 2413 703 2413 703 2350 705 c 128,-1,83
 2287 707 2287 707 2211 708 c 128,-1,84
 2135 709 2135 709 2052 710.5 c 128,-1,85
 1969 712 1969 712 1883 712.5 c 128,-1,86
 1797 713 1797 713 1713 714 c 1,87,88
 1710 673 1710 673 1710 629 c 0,89,90
 1710 601 1710 601 1711.5 575 c 128,-1,91
 1713 549 1713 549 1717 524 c 1,92,93
 1833 525 1833 525 1948 526.5 c 128,-1,94
 2063 528 2063 528 2161 530 c 128,-1,95
 2259 532 2259 532 2333.5 534.5 c 128,-1,96
 2408 537 2408 537 2443 540 c 1,97,98
 2453 491 2453 491 2453 438 c 0,99,100
 2453 413 2453 413 2450.5 387.5 c 128,-1,101
 2448 362 2448 362 2443 336 c 1,102,103
 2411 339 2411 339 2343 342 c 128,-1,104
 2275 345 2275 345 2184 347 c 128,-1,105
 2093 349 2093 349 1986 350.5 c 128,-1,106
 1879 352 1879 352 1769 353 c 1,107,108
 1835 225 1835 225 1970.5 163.5 c 128,-1,109
 2106 102 2106 102 2304 102 c 0,110,111
 2397 102 2397 102 2494.5 119 c 128,-1,112
 2592 136 2592 136 2679.5 173.5 c 128,-1,113
 2767 211 2767 211 2836 270.5 c 128,-1,114
 2905 330 2905 330 2941 416 c 1,115,-1
 3106 418 l 1,116,117
 3051 188 3051 188 2765 65.5 c 128,-1,118
 2479 -57 2479 -57 1972 -57 c 0,119,120
 1711 -57 1711 -57 1485 -37.5 c 128,-1,121
 1259 -18 1259 -18 1079 29 c 128,-1,122
 899 76 899 76 768.5 154.5 c 128,-1,123
 638 233 638 233 568 351 c 1,124,125
 499 349 499 349 432 347.5 c 128,-1,126
 365 346 365 346 306 344 c 128,-1,127
 247 342 247 342 198 340 c 128,-1,128
 149 338 149 338 115 336 c 1,0,1
EndSplineSet
Validated: 1
EndChar

StartChar: cent
Encoding: 162 162 72
Width: 2522
Flags: W
LayerCount: 2
Fore
SplineSet
133 690 m 0,0,1
 133 785 133 785 174 863 c 128,-1,2
 215 941 215 941 289.5 1002.5 c 128,-1,3
 364 1064 364 1064 467.5 1110 c 128,-1,4
 571 1156 571 1156 696.5 1188 c 128,-1,5
 822 1220 822 1220 965 1238.5 c 128,-1,6
 1108 1257 1108 1257 1261 1264 c 1,7,8
 1259 1326 1259 1326 1256 1379 c 128,-1,9
 1253 1432 1253 1432 1250 1473 c 1,10,11
 1276 1478 1276 1478 1304.5 1480.5 c 128,-1,12
 1333 1483 1333 1483 1359 1483 c 0,13,14
 1384 1483 1384 1483 1413.5 1480.5 c 128,-1,15
 1443 1478 1443 1478 1469 1473 c 1,16,17
 1464 1435 1464 1435 1461 1382.5 c 128,-1,18
 1458 1330 1458 1330 1456 1268 c 1,19,20
 1573 1267 1573 1267 1686 1258 c 128,-1,21
 1799 1249 1799 1249 1900.5 1231 c 128,-1,22
 2002 1213 2002 1213 2087.5 1187.5 c 128,-1,23
 2173 1162 2173 1162 2235 1129 c 128,-1,24
 2297 1096 2297 1096 2332 1055.5 c 128,-1,25
 2367 1015 2367 1015 2367 969 c 0,26,27
 2367 920 2367 920 2337 874.5 c 128,-1,28
 2307 829 2307 829 2250 793.5 c 128,-1,29
 2193 758 2193 758 2109.5 736.5 c 128,-1,30
 2026 715 2026 715 1919 715 c 0,31,32
 1818 715 1818 715 1729.5 731 c 128,-1,33
 1641 747 1641 747 1576 775 c 128,-1,34
 1511 803 1511 803 1473.5 841.5 c 128,-1,35
 1436 880 1436 880 1436 926 c 0,36,37
 1436 965 1436 965 1461.5 1002.5 c 128,-1,38
 1487 1040 1487 1040 1537.5 1069.5 c 128,-1,39
 1588 1099 1588 1099 1663 1117 c 128,-1,40
 1738 1135 1738 1135 1838 1135 c 1,41,42
 1781 1151 1781 1151 1719.5 1158 c 128,-1,43
 1658 1165 1658 1165 1595 1165 c 0,44,45
 1504 1165 1504 1165 1418.5 1144.5 c 128,-1,46
 1333 1124 1333 1124 1266.5 1075.5 c 128,-1,47
 1200 1027 1200 1027 1160 946.5 c 128,-1,48
 1120 866 1120 866 1120 746 c 0,49,50
 1120 668 1120 668 1142.5 604.5 c 128,-1,51
 1165 541 1165 541 1205 491 c 128,-1,52
 1245 441 1245 441 1299.5 404 c 128,-1,53
 1354 367 1354 367 1417.5 343 c 128,-1,54
 1481 319 1481 319 1551.5 307 c 128,-1,55
 1622 295 1622 295 1693 295 c 0,56,57
 1808 295 1808 295 1915 315 c 128,-1,58
 2022 335 2022 335 2104 369.5 c 128,-1,59
 2186 404 2186 404 2235 449.5 c 128,-1,60
 2284 495 2284 495 2284 547 c 1,61,-1
 2407 547 l 1,62,63
 2407 477 2407 477 2371.5 419 c 128,-1,64
 2336 361 2336 361 2272 315 c 128,-1,65
 2208 269 2208 269 2119.5 234.5 c 128,-1,66
 2031 200 2031 200 1925.5 177 c 128,-1,67
 1820 154 1820 154 1700.5 142.5 c 128,-1,68
 1581 131 1581 131 1455 131 c 2,69,-1
 1419 131 l 1,70,71
 1421 68 1421 68 1424 13.5 c 128,-1,72
 1427 -41 1427 -41 1430 -86 c 1,73,74
 1423 -88 1423 -88 1409 -89.5 c 128,-1,75
 1395 -91 1395 -91 1378.5 -92.5 c 128,-1,76
 1362 -94 1362 -94 1346.5 -94.5 c 128,-1,77
 1331 -95 1331 -95 1322 -95 c 0,78,79
 1314 -95 1314 -95 1299 -94.5 c 128,-1,80
 1284 -94 1284 -94 1268 -92.5 c 128,-1,81
 1252 -91 1252 -91 1237.5 -89.5 c 128,-1,82
 1223 -88 1223 -88 1214 -86 c 1,83,84
 1217 -44 1217 -44 1220 12.5 c 128,-1,85
 1223 69 1223 69 1225 135 c 1,86,87
 1071 141 1071 141 930.5 157.5 c 128,-1,88
 790 174 790 174 668.5 203 c 128,-1,89
 547 232 547 232 448.5 275 c 128,-1,90
 350 318 350 318 279.5 377.5 c 128,-1,91
 209 437 209 437 171 514.5 c 128,-1,92
 133 592 133 592 133 690 c 0,0,1
EndSplineSet
Validated: 1
EndChar

StartChar: dotlessi
Encoding: 305 305 73
Width: 1894
Flags: W
LayerCount: 2
Fore
SplineSet
75 94 m 1,0,1
 209 99 209 99 298 129 c 128,-1,2
 387 159 387 159 440.5 212 c 128,-1,3
 494 265 494 265 516 341 c 128,-1,4
 538 417 538 417 538 515 c 0,5,6
 538 615 538 615 512 686.5 c 128,-1,7
 486 758 486 758 430 803.5 c 128,-1,8
 374 849 374 849 286.5 870 c 128,-1,9
 199 891 199 891 75 891 c 1,10,-1
 75 985 l 1,11,-1
 1417 1075 l 1,12,-1
 1417 515 l 2,13,14
 1417 417 1417 417 1438.5 341 c 128,-1,15
 1460 265 1460 265 1513 212 c 128,-1,16
 1566 159 1566 159 1655 129 c 128,-1,17
 1744 99 1744 99 1879 94 c 1,18,-1
 1879 0 l 1,19,-1
 75 0 l 1,20,-1
 75 94 l 1,0,1
EndSplineSet
Validated: 1
EndChar

StartChar: acute
Encoding: 180 180 74
Width: 1707
Flags: W
LayerCount: 2
Fore
SplineSet
287 1187 m 1,0,1
 390 1248 390 1248 488.5 1309.5 c 128,-1,2
 587 1371 587 1371 675.5 1429.5 c 128,-1,3
 764 1488 764 1488 841.5 1539.5 c 128,-1,4
 919 1591 919 1591 980.5 1632 c 128,-1,5
 1042 1673 1042 1673 1084.5 1700 c 128,-1,6
 1127 1727 1127 1727 1147 1736 c 0,7,8
 1176 1749 1176 1749 1205.5 1755 c 128,-1,9
 1235 1761 1235 1761 1262 1761 c 0,10,11
 1295 1761 1295 1761 1326.5 1749.5 c 128,-1,12
 1358 1738 1358 1738 1382.5 1716.5 c 128,-1,13
 1407 1695 1407 1695 1422.5 1663 c 128,-1,14
 1438 1631 1438 1631 1438 1589 c 0,15,16
 1438 1531 1438 1531 1399.5 1482.5 c 128,-1,17
 1361 1434 1361 1434 1292 1405 c 0,18,19
 1262 1392 1262 1392 1194.5 1375.5 c 128,-1,20
 1127 1359 1127 1359 1024 1334 c 128,-1,21
 921 1309 921 1309 782.5 1273.5 c 128,-1,22
 644 1238 644 1238 472 1187 c 1,23,-1
 287 1187 l 1,0,1
EndSplineSet
Validated: 1
EndChar

StartChar: grave
Encoding: 96 96 75
Width: 1707
Flags: W
LayerCount: 2
Fore
SplineSet
463 1405 m 0,0,1
 394 1434 394 1434 355.5 1482.5 c 128,-1,2
 317 1531 317 1531 317 1589 c 0,3,4
 317 1631 317 1631 332.5 1663 c 128,-1,5
 348 1695 348 1695 372.5 1716.5 c 128,-1,6
 397 1738 397 1738 428.5 1749.5 c 128,-1,7
 460 1761 460 1761 493 1761 c 0,8,9
 520 1761 520 1761 549.5 1755 c 128,-1,10
 579 1749 579 1749 608 1736 c 0,11,12
 628 1727 628 1727 670.5 1700 c 128,-1,13
 713 1673 713 1673 774.5 1632 c 128,-1,14
 836 1591 836 1591 913.5 1539.5 c 128,-1,15
 991 1488 991 1488 1079.5 1429.5 c 128,-1,16
 1168 1371 1168 1371 1266.5 1309.5 c 128,-1,17
 1365 1248 1365 1248 1468 1187 c 1,18,-1
 1283 1187 l 1,19,20
 1111 1238 1111 1238 972.5 1273.5 c 128,-1,21
 834 1309 834 1309 731 1334 c 128,-1,22
 628 1359 628 1359 560.5 1375.5 c 128,-1,23
 493 1392 493 1392 463 1405 c 0,0,1
EndSplineSet
Validated: 1
EndChar

StartChar: tilde
Encoding: 732 732 76
Width: 1707
Flags: W
LayerCount: 2
Fore
SplineSet
188 1342 m 1,0,1
 237 1439 237 1439 288 1499 c 128,-1,2
 339 1559 339 1559 391.5 1591.5 c 128,-1,3
 444 1624 444 1624 498 1635 c 128,-1,4
 552 1646 552 1646 607 1646 c 0,5,6
 686 1646 686 1646 767 1627 c 128,-1,7
 848 1608 848 1608 930.5 1585.5 c 128,-1,8
 1013 1563 1013 1563 1096.5 1544.5 c 128,-1,9
 1180 1526 1180 1526 1264 1526 c 0,10,11
 1328 1526 1328 1526 1391.5 1537 c 128,-1,12
 1455 1548 1455 1548 1519 1575 c 1,13,-1
 1554 1531 l 1,14,15
 1504 1433 1504 1433 1453 1373.5 c 128,-1,16
 1402 1314 1402 1314 1349.5 1281 c 128,-1,17
 1297 1248 1297 1248 1243 1237 c 128,-1,18
 1189 1226 1189 1226 1134 1226 c 0,19,20
 1055 1226 1055 1226 974.5 1245 c 128,-1,21
 894 1264 894 1264 811.5 1286.5 c 128,-1,22
 729 1309 729 1309 645.5 1328 c 128,-1,23
 562 1347 562 1347 478 1347 c 0,24,25
 414 1347 414 1347 350.5 1336 c 128,-1,26
 287 1325 287 1325 223 1298 c 1,27,-1
 188 1342 l 1,0,1
EndSplineSet
Validated: 1
EndChar

StartChar: dieresis
Encoding: 168 168 77
Width: 1707
Flags: W
LayerCount: 2
Fore
SplineSet
920 1495 m 256,0,1
 920 1527 920 1527 936 1558 c 128,-1,2
 952 1589 952 1589 984 1614 c 128,-1,3
 1016 1639 1016 1639 1063 1654 c 128,-1,4
 1110 1669 1110 1669 1173 1669 c 256,5,6
 1236 1669 1236 1669 1283 1654 c 128,-1,7
 1330 1639 1330 1639 1362 1614 c 128,-1,8
 1394 1589 1394 1589 1410 1558 c 128,-1,9
 1426 1527 1426 1527 1426 1495 c 256,10,11
 1426 1463 1426 1463 1410 1432.5 c 128,-1,12
 1394 1402 1394 1402 1362 1377.5 c 128,-1,13
 1330 1353 1330 1353 1283 1338 c 128,-1,14
 1236 1323 1236 1323 1173 1323 c 256,15,16
 1110 1323 1110 1323 1063 1338 c 128,-1,17
 1016 1353 1016 1353 984 1377.5 c 128,-1,18
 952 1402 952 1402 936 1432.5 c 128,-1,19
 920 1463 920 1463 920 1495 c 256,0,1
503 1323 m 256,20,21
 440 1323 440 1323 393 1338 c 128,-1,22
 346 1353 346 1353 314 1377.5 c 128,-1,23
 282 1402 282 1402 266 1432.5 c 128,-1,24
 250 1463 250 1463 250 1495 c 256,25,26
 250 1527 250 1527 266 1558 c 128,-1,27
 282 1589 282 1589 314 1614 c 128,-1,28
 346 1639 346 1639 393 1654 c 128,-1,29
 440 1669 440 1669 503 1669 c 256,30,31
 566 1669 566 1669 613 1654 c 128,-1,32
 660 1639 660 1639 692 1614 c 128,-1,33
 724 1589 724 1589 740 1558 c 128,-1,34
 756 1527 756 1527 756 1495 c 256,35,36
 756 1463 756 1463 740 1432.5 c 128,-1,37
 724 1402 724 1402 692 1377.5 c 128,-1,38
 660 1353 660 1353 613 1338 c 128,-1,39
 566 1323 566 1323 503 1323 c 256,20,21
EndSplineSet
Validated: 1
EndChar

StartChar: circumflex
Encoding: 710 710 78
Width: 1707
Flags: W
LayerCount: 2
Fore
SplineSet
58 1187 m 1,0,1
 151 1257 151 1257 224.5 1317 c 128,-1,2
 298 1377 298 1377 357 1427.5 c 128,-1,3
 416 1478 416 1478 463 1520 c 128,-1,4
 510 1562 510 1562 551 1597.5 c 128,-1,5
 592 1633 592 1633 629 1662 c 128,-1,6
 666 1691 666 1691 704 1716 c 0,7,8
 733 1735 733 1735 766.5 1750.5 c 128,-1,9
 800 1766 800 1766 853 1766 c 256,10,11
 906 1766 906 1766 939.5 1750.5 c 128,-1,12
 973 1735 973 1735 1002 1716 c 0,13,14
 1040 1691 1040 1691 1077 1662 c 128,-1,15
 1114 1633 1114 1633 1155 1597.5 c 128,-1,16
 1196 1562 1196 1562 1243 1520 c 128,-1,17
 1290 1478 1290 1478 1349 1427.5 c 128,-1,18
 1408 1377 1408 1377 1481.5 1317 c 128,-1,19
 1555 1257 1555 1257 1648 1187 c 1,20,-1
 1484 1187 l 1,21,-1
 853 1440 l 1,22,-1
 222 1187 l 1,23,-1
 58 1187 l 1,0,1
EndSplineSet
Validated: 1
EndChar

StartChar: caron
Encoding: 711 711 79
Width: 1707
Flags: W
LayerCount: 2
Fore
SplineSet
135 1681 m 2,0,1
 112 1699 112 1699 112 1725 c 0,2,3
 112 1739 112 1739 121 1750.5 c 128,-1,4
 130 1762 130 1762 154 1762 c 0,5,6
 171 1762 171 1762 186.5 1757.5 c 128,-1,7
 202 1753 202 1753 223 1745 c 2,8,-1
 854 1492 l 1,9,-1
 1485 1745 l 2,10,11
 1506 1753 1506 1753 1521.5 1757.5 c 128,-1,12
 1537 1762 1537 1762 1554 1762 c 0,13,14
 1578 1762 1578 1762 1587 1750.5 c 128,-1,15
 1596 1739 1596 1739 1596 1725 c 0,16,17
 1596 1699 1596 1699 1573 1681 c 2,18,-1
 953 1187 l 1,19,-1
 755 1187 l 1,20,-1
 135 1681 l 2,0,1
EndSplineSet
Validated: 1
EndChar

StartChar: ograve
Encoding: 242 242 80
Width: 2627
Flags: W
LayerCount: 2
Fore
SplineSet
879 1405 m 0,0,1
 810 1434 810 1434 771.5 1482.5 c 128,-1,2
 733 1531 733 1531 733 1589 c 0,3,4
 733 1631 733 1631 748.5 1663 c 128,-1,5
 764 1695 764 1695 788.5 1716.5 c 128,-1,6
 813 1738 813 1738 844.5 1749.5 c 128,-1,7
 876 1761 876 1761 909 1761 c 0,8,9
 936 1761 936 1761 965.5 1755 c 128,-1,10
 995 1749 995 1749 1024 1736 c 0,11,12
 1044 1727 1044 1727 1086.5 1700 c 128,-1,13
 1129 1673 1129 1673 1190.5 1632 c 128,-1,14
 1252 1591 1252 1591 1329.5 1539.5 c 128,-1,15
 1407 1488 1407 1488 1495.5 1429.5 c 128,-1,16
 1584 1371 1584 1371 1682.5 1309.5 c 128,-1,17
 1781 1248 1781 1248 1884 1187 c 1,18,-1
 1699 1187 l 1,19,20
 1527 1238 1527 1238 1388.5 1273.5 c 128,-1,21
 1250 1309 1250 1309 1147 1334 c 128,-1,22
 1044 1359 1044 1359 976.5 1375.5 c 128,-1,23
 909 1392 909 1392 879 1405 c 0,0,1
113 523 m 0,24,25
 113 668 113 668 199.5 775.5 c 128,-1,26
 286 883 286 883 444 953.5 c 128,-1,27
 602 1024 602 1024 823 1058.5 c 128,-1,28
 1044 1093 1044 1093 1314 1093 c 0,29,30
 1583 1093 1583 1093 1804.5 1058.5 c 128,-1,31
 2026 1024 2026 1024 2183.5 953.5 c 128,-1,32
 2341 883 2341 883 2427.5 775.5 c 128,-1,33
 2514 668 2514 668 2514 523 c 0,34,35
 2514 379 2514 379 2427.5 272 c 128,-1,36
 2341 165 2341 165 2183.5 94.5 c 128,-1,37
 2026 24 2026 24 1804.5 -10.5 c 128,-1,38
 1583 -45 1583 -45 1314 -45 c 0,39,40
 1044 -45 1044 -45 823 -10.5 c 128,-1,41
 602 24 602 24 444 94.5 c 128,-1,42
 286 165 286 165 199.5 272 c 128,-1,43
 113 379 113 379 113 523 c 0,24,25
1110 523 m 0,44,45
 1110 430 1110 430 1124 346 c 128,-1,46
 1138 262 1138 262 1164.5 198.5 c 128,-1,47
 1191 135 1191 135 1228.5 97.5 c 128,-1,48
 1266 60 1266 60 1314 60 c 0,49,50
 1361 60 1361 60 1398.5 97.5 c 128,-1,51
 1436 135 1436 135 1462.5 198.5 c 128,-1,52
 1489 262 1489 262 1503 346 c 128,-1,53
 1517 430 1517 430 1517 523 c 0,54,55
 1517 617 1517 617 1503 701.5 c 128,-1,56
 1489 786 1489 786 1462.5 850 c 128,-1,57
 1436 914 1436 914 1398.5 952 c 128,-1,58
 1361 990 1361 990 1314 990 c 0,59,60
 1266 990 1266 990 1228.5 952 c 128,-1,61
 1191 914 1191 914 1164.5 850 c 128,-1,62
 1138 786 1138 786 1124 701.5 c 128,-1,63
 1110 617 1110 617 1110 523 c 0,44,45
EndSplineSet
Validated: 1
EndChar

StartChar: oacute
Encoding: 243 243 81
Width: 2627
Flags: W
LayerCount: 2
Fore
SplineSet
703 1187 m 1,0,1
 806 1248 806 1248 904.5 1309.5 c 128,-1,2
 1003 1371 1003 1371 1091.5 1429.5 c 128,-1,3
 1180 1488 1180 1488 1257.5 1539.5 c 128,-1,4
 1335 1591 1335 1591 1396.5 1632 c 128,-1,5
 1458 1673 1458 1673 1500.5 1700 c 128,-1,6
 1543 1727 1543 1727 1563 1736 c 0,7,8
 1592 1749 1592 1749 1621.5 1755 c 128,-1,9
 1651 1761 1651 1761 1678 1761 c 0,10,11
 1711 1761 1711 1761 1742.5 1749.5 c 128,-1,12
 1774 1738 1774 1738 1798.5 1716.5 c 128,-1,13
 1823 1695 1823 1695 1838.5 1663 c 128,-1,14
 1854 1631 1854 1631 1854 1589 c 0,15,16
 1854 1531 1854 1531 1815.5 1482.5 c 128,-1,17
 1777 1434 1777 1434 1708 1405 c 0,18,19
 1678 1392 1678 1392 1610.5 1375.5 c 128,-1,20
 1543 1359 1543 1359 1440 1334 c 128,-1,21
 1337 1309 1337 1309 1198.5 1273.5 c 128,-1,22
 1060 1238 1060 1238 888 1187 c 1,23,-1
 703 1187 l 1,0,1
113 523 m 0,24,25
 113 668 113 668 199.5 775.5 c 128,-1,26
 286 883 286 883 444 953.5 c 128,-1,27
 602 1024 602 1024 823 1058.5 c 128,-1,28
 1044 1093 1044 1093 1314 1093 c 0,29,30
 1583 1093 1583 1093 1804.5 1058.5 c 128,-1,31
 2026 1024 2026 1024 2183.5 953.5 c 128,-1,32
 2341 883 2341 883 2427.5 775.5 c 128,-1,33
 2514 668 2514 668 2514 523 c 0,34,35
 2514 379 2514 379 2427.5 272 c 128,-1,36
 2341 165 2341 165 2183.5 94.5 c 128,-1,37
 2026 24 2026 24 1804.5 -10.5 c 128,-1,38
 1583 -45 1583 -45 1314 -45 c 0,39,40
 1044 -45 1044 -45 823 -10.5 c 128,-1,41
 602 24 602 24 444 94.5 c 128,-1,42
 286 165 286 165 199.5 272 c 128,-1,43
 113 379 113 379 113 523 c 0,24,25
1110 523 m 0,44,45
 1110 430 1110 430 1124 346 c 128,-1,46
 1138 262 1138 262 1164.5 198.5 c 128,-1,47
 1191 135 1191 135 1228.5 97.5 c 128,-1,48
 1266 60 1266 60 1314 60 c 0,49,50
 1361 60 1361 60 1398.5 97.5 c 128,-1,51
 1436 135 1436 135 1462.5 198.5 c 128,-1,52
 1489 262 1489 262 1503 346 c 128,-1,53
 1517 430 1517 430 1517 523 c 0,54,55
 1517 617 1517 617 1503 701.5 c 128,-1,56
 1489 786 1489 786 1462.5 850 c 128,-1,57
 1436 914 1436 914 1398.5 952 c 128,-1,58
 1361 990 1361 990 1314 990 c 0,59,60
 1266 990 1266 990 1228.5 952 c 128,-1,61
 1191 914 1191 914 1164.5 850 c 128,-1,62
 1138 786 1138 786 1124 701.5 c 128,-1,63
 1110 617 1110 617 1110 523 c 0,44,45
EndSplineSet
Validated: 1
EndChar

StartChar: ocircumflex
Encoding: 244 244 82
Width: 2627
Flags: W
LayerCount: 2
Fore
SplineSet
518 1187 m 1,0,1
 611 1257 611 1257 684.5 1317 c 128,-1,2
 758 1377 758 1377 817 1427.5 c 128,-1,3
 876 1478 876 1478 923 1520 c 128,-1,4
 970 1562 970 1562 1011 1597.5 c 128,-1,5
 1052 1633 1052 1633 1089 1662 c 128,-1,6
 1126 1691 1126 1691 1164 1716 c 0,7,8
 1193 1735 1193 1735 1226.5 1750.5 c 128,-1,9
 1260 1766 1260 1766 1313 1766 c 256,10,11
 1366 1766 1366 1766 1399.5 1750.5 c 128,-1,12
 1433 1735 1433 1735 1462 1716 c 0,13,14
 1500 1691 1500 1691 1537 1662 c 128,-1,15
 1574 1633 1574 1633 1615 1597.5 c 128,-1,16
 1656 1562 1656 1562 1703 1520 c 128,-1,17
 1750 1478 1750 1478 1809 1427.5 c 128,-1,18
 1868 1377 1868 1377 1941.5 1317 c 128,-1,19
 2015 1257 2015 1257 2108 1187 c 1,20,-1
 1944 1187 l 1,21,-1
 1313 1440 l 1,22,-1
 682 1187 l 1,23,-1
 518 1187 l 1,0,1
113 523 m 0,24,25
 113 668 113 668 199.5 775.5 c 128,-1,26
 286 883 286 883 444 953.5 c 128,-1,27
 602 1024 602 1024 823 1058.5 c 128,-1,28
 1044 1093 1044 1093 1314 1093 c 0,29,30
 1583 1093 1583 1093 1804.5 1058.5 c 128,-1,31
 2026 1024 2026 1024 2183.5 953.5 c 128,-1,32
 2341 883 2341 883 2427.5 775.5 c 128,-1,33
 2514 668 2514 668 2514 523 c 0,34,35
 2514 379 2514 379 2427.5 272 c 128,-1,36
 2341 165 2341 165 2183.5 94.5 c 128,-1,37
 2026 24 2026 24 1804.5 -10.5 c 128,-1,38
 1583 -45 1583 -45 1314 -45 c 0,39,40
 1044 -45 1044 -45 823 -10.5 c 128,-1,41
 602 24 602 24 444 94.5 c 128,-1,42
 286 165 286 165 199.5 272 c 128,-1,43
 113 379 113 379 113 523 c 0,24,25
1110 523 m 0,44,45
 1110 430 1110 430 1124 346 c 128,-1,46
 1138 262 1138 262 1164.5 198.5 c 128,-1,47
 1191 135 1191 135 1228.5 97.5 c 128,-1,48
 1266 60 1266 60 1314 60 c 0,49,50
 1361 60 1361 60 1398.5 97.5 c 128,-1,51
 1436 135 1436 135 1462.5 198.5 c 128,-1,52
 1489 262 1489 262 1503 346 c 128,-1,53
 1517 430 1517 430 1517 523 c 0,54,55
 1517 617 1517 617 1503 701.5 c 128,-1,56
 1489 786 1489 786 1462.5 850 c 128,-1,57
 1436 914 1436 914 1398.5 952 c 128,-1,58
 1361 990 1361 990 1314 990 c 0,59,60
 1266 990 1266 990 1228.5 952 c 128,-1,61
 1191 914 1191 914 1164.5 850 c 128,-1,62
 1138 786 1138 786 1124 701.5 c 128,-1,63
 1110 617 1110 617 1110 523 c 0,44,45
EndSplineSet
Validated: 1
EndChar

StartChar: otilde
Encoding: 245 245 83
Width: 2627
Flags: W
LayerCount: 2
Fore
SplineSet
630 1342 m 1,0,1
 679 1439 679 1439 730 1499 c 128,-1,2
 781 1559 781 1559 833.5 1591.5 c 128,-1,3
 886 1624 886 1624 940 1635 c 128,-1,4
 994 1646 994 1646 1049 1646 c 0,5,6
 1128 1646 1128 1646 1209 1627 c 128,-1,7
 1290 1608 1290 1608 1372.5 1585.5 c 128,-1,8
 1455 1563 1455 1563 1538.5 1544.5 c 128,-1,9
 1622 1526 1622 1526 1706 1526 c 0,10,11
 1770 1526 1770 1526 1833.5 1537 c 128,-1,12
 1897 1548 1897 1548 1961 1575 c 1,13,-1
 1996 1531 l 1,14,15
 1946 1433 1946 1433 1895 1373.5 c 128,-1,16
 1844 1314 1844 1314 1791.5 1281 c 128,-1,17
 1739 1248 1739 1248 1685 1237 c 128,-1,18
 1631 1226 1631 1226 1576 1226 c 0,19,20
 1497 1226 1497 1226 1416.5 1245 c 128,-1,21
 1336 1264 1336 1264 1253.5 1286.5 c 128,-1,22
 1171 1309 1171 1309 1087.5 1328 c 128,-1,23
 1004 1347 1004 1347 920 1347 c 0,24,25
 856 1347 856 1347 792.5 1336 c 128,-1,26
 729 1325 729 1325 665 1298 c 1,27,-1
 630 1342 l 1,0,1
113 523 m 0,28,29
 113 668 113 668 199.5 775.5 c 128,-1,30
 286 883 286 883 444 953.5 c 128,-1,31
 602 1024 602 1024 823 1058.5 c 128,-1,32
 1044 1093 1044 1093 1314 1093 c 0,33,34
 1583 1093 1583 1093 1804.5 1058.5 c 128,-1,35
 2026 1024 2026 1024 2183.5 953.5 c 128,-1,36
 2341 883 2341 883 2427.5 775.5 c 128,-1,37
 2514 668 2514 668 2514 523 c 0,38,39
 2514 379 2514 379 2427.5 272 c 128,-1,40
 2341 165 2341 165 2183.5 94.5 c 128,-1,41
 2026 24 2026 24 1804.5 -10.5 c 128,-1,42
 1583 -45 1583 -45 1314 -45 c 0,43,44
 1044 -45 1044 -45 823 -10.5 c 128,-1,45
 602 24 602 24 444 94.5 c 128,-1,46
 286 165 286 165 199.5 272 c 128,-1,47
 113 379 113 379 113 523 c 0,28,29
1110 523 m 0,48,49
 1110 430 1110 430 1124 346 c 128,-1,50
 1138 262 1138 262 1164.5 198.5 c 128,-1,51
 1191 135 1191 135 1228.5 97.5 c 128,-1,52
 1266 60 1266 60 1314 60 c 0,53,54
 1361 60 1361 60 1398.5 97.5 c 128,-1,55
 1436 135 1436 135 1462.5 198.5 c 128,-1,56
 1489 262 1489 262 1503 346 c 128,-1,57
 1517 430 1517 430 1517 523 c 0,58,59
 1517 617 1517 617 1503 701.5 c 128,-1,60
 1489 786 1489 786 1462.5 850 c 128,-1,61
 1436 914 1436 914 1398.5 952 c 128,-1,62
 1361 990 1361 990 1314 990 c 0,63,64
 1266 990 1266 990 1228.5 952 c 128,-1,65
 1191 914 1191 914 1164.5 850 c 128,-1,66
 1138 786 1138 786 1124 701.5 c 128,-1,67
 1110 617 1110 617 1110 523 c 0,48,49
EndSplineSet
Validated: 1
EndChar

StartChar: odieresis
Encoding: 246 246 84
Width: 2627
Flags: W
LayerCount: 2
Fore
SplineSet
1395 1495 m 256,0,1
 1395 1527 1395 1527 1411 1558 c 128,-1,2
 1427 1589 1427 1589 1459 1614 c 128,-1,3
 1491 1639 1491 1639 1538 1654 c 128,-1,4
 1585 1669 1585 1669 1648 1669 c 256,5,6
 1711 1669 1711 1669 1758 1654 c 128,-1,7
 1805 1639 1805 1639 1837 1614 c 128,-1,8
 1869 1589 1869 1589 1885 1558 c 128,-1,9
 1901 1527 1901 1527 1901 1495 c 256,10,11
 1901 1463 1901 1463 1885 1432.5 c 128,-1,12
 1869 1402 1869 1402 1837 1377.5 c 128,-1,13
 1805 1353 1805 1353 1758 1338 c 128,-1,14
 1711 1323 1711 1323 1648 1323 c 256,15,16
 1585 1323 1585 1323 1538 1338 c 128,-1,17
 1491 1353 1491 1353 1459 1377.5 c 128,-1,18
 1427 1402 1427 1402 1411 1432.5 c 128,-1,19
 1395 1463 1395 1463 1395 1495 c 256,0,1
978 1323 m 256,20,21
 915 1323 915 1323 868 1338 c 128,-1,22
 821 1353 821 1353 789 1377.5 c 128,-1,23
 757 1402 757 1402 741 1432.5 c 128,-1,24
 725 1463 725 1463 725 1495 c 256,25,26
 725 1527 725 1527 741 1558 c 128,-1,27
 757 1589 757 1589 789 1614 c 128,-1,28
 821 1639 821 1639 868 1654 c 128,-1,29
 915 1669 915 1669 978 1669 c 256,30,31
 1041 1669 1041 1669 1088 1654 c 128,-1,32
 1135 1639 1135 1639 1167 1614 c 128,-1,33
 1199 1589 1199 1589 1215 1558 c 128,-1,34
 1231 1527 1231 1527 1231 1495 c 256,35,36
 1231 1463 1231 1463 1215 1432.5 c 128,-1,37
 1199 1402 1199 1402 1167 1377.5 c 128,-1,38
 1135 1353 1135 1353 1088 1338 c 128,-1,39
 1041 1323 1041 1323 978 1323 c 256,20,21
113 523 m 0,40,41
 113 668 113 668 199.5 775.5 c 128,-1,42
 286 883 286 883 444 953.5 c 128,-1,43
 602 1024 602 1024 823 1058.5 c 128,-1,44
 1044 1093 1044 1093 1314 1093 c 0,45,46
 1583 1093 1583 1093 1804.5 1058.5 c 128,-1,47
 2026 1024 2026 1024 2183.5 953.5 c 128,-1,48
 2341 883 2341 883 2427.5 775.5 c 128,-1,49
 2514 668 2514 668 2514 523 c 0,50,51
 2514 379 2514 379 2427.5 272 c 128,-1,52
 2341 165 2341 165 2183.5 94.5 c 128,-1,53
 2026 24 2026 24 1804.5 -10.5 c 128,-1,54
 1583 -45 1583 -45 1314 -45 c 0,55,56
 1044 -45 1044 -45 823 -10.5 c 128,-1,57
 602 24 602 24 444 94.5 c 128,-1,58
 286 165 286 165 199.5 272 c 128,-1,59
 113 379 113 379 113 523 c 0,40,41
1110 523 m 0,60,61
 1110 430 1110 430 1124 346 c 128,-1,62
 1138 262 1138 262 1164.5 198.5 c 128,-1,63
 1191 135 1191 135 1228.5 97.5 c 128,-1,64
 1266 60 1266 60 1314 60 c 0,65,66
 1361 60 1361 60 1398.5 97.5 c 128,-1,67
 1436 135 1436 135 1462.5 198.5 c 128,-1,68
 1489 262 1489 262 1503 346 c 128,-1,69
 1517 430 1517 430 1517 523 c 0,70,71
 1517 617 1517 617 1503 701.5 c 128,-1,72
 1489 786 1489 786 1462.5 850 c 128,-1,73
 1436 914 1436 914 1398.5 952 c 128,-1,74
 1361 990 1361 990 1314 990 c 0,75,76
 1266 990 1266 990 1228.5 952 c 128,-1,77
 1191 914 1191 914 1164.5 850 c 128,-1,78
 1138 786 1138 786 1124 701.5 c 128,-1,79
 1110 617 1110 617 1110 523 c 0,60,61
EndSplineSet
Validated: 1
EndChar

StartChar: ugrave
Encoding: 249 249 85
Width: 2835
Flags: W
LayerCount: 2
Fore
SplineSet
1000 1405 m 0,0,1
 931 1434 931 1434 892.5 1482.5 c 128,-1,2
 854 1531 854 1531 854 1589 c 0,3,4
 854 1631 854 1631 869.5 1663 c 128,-1,5
 885 1695 885 1695 909.5 1716.5 c 128,-1,6
 934 1738 934 1738 965.5 1749.5 c 128,-1,7
 997 1761 997 1761 1030 1761 c 0,8,9
 1057 1761 1057 1761 1086.5 1755 c 128,-1,10
 1116 1749 1116 1749 1145 1736 c 0,11,12
 1165 1727 1165 1727 1207.5 1700 c 128,-1,13
 1250 1673 1250 1673 1311.5 1632 c 128,-1,14
 1373 1591 1373 1591 1450.5 1539.5 c 128,-1,15
 1528 1488 1528 1488 1616.5 1429.5 c 128,-1,16
 1705 1371 1705 1371 1803.5 1309.5 c 128,-1,17
 1902 1248 1902 1248 2005 1187 c 1,18,-1
 1820 1187 l 1,19,20
 1648 1238 1648 1238 1509.5 1273.5 c 128,-1,21
 1371 1309 1371 1309 1268 1334 c 128,-1,22
 1165 1359 1165 1359 1097.5 1375.5 c 128,-1,23
 1030 1392 1030 1392 1000 1405 c 0,0,1
316 316 m 0,24,25
 316 347 316 347 318.5 386.5 c 128,-1,26
 321 426 321 426 324 467.5 c 128,-1,27
 327 509 327 509 329.5 549 c 128,-1,28
 332 589 332 589 332 622 c 0,29,30
 332 673 332 673 324.5 724.5 c 128,-1,31
 317 776 317 776 291 817.5 c 128,-1,32
 265 859 265 859 213.5 885 c 128,-1,33
 162 911 162 911 75 911 c 0,34,35
 44 911 44 911 8 908 c 1,36,-1
 8 1002 l 1,37,-1
 1240 1092 l 1,38,-1
 1240 505 l 2,39,40
 1240 430 1240 430 1248.5 374.5 c 128,-1,41
 1257 319 1257 319 1279.5 282.5 c 128,-1,42
 1302 246 1302 246 1341 227.5 c 128,-1,43
 1380 209 1380 209 1440 209 c 0,44,45
 1472 209 1472 209 1506.5 214.5 c 128,-1,46
 1541 220 1541 220 1576 231 c 1,47,-1
 1576 617 l 2,48,49
 1576 704 1576 704 1559.5 762 c 128,-1,50
 1543 820 1543 820 1515 856.5 c 128,-1,51
 1487 893 1487 893 1449.5 912.5 c 128,-1,52
 1412 932 1412 932 1370 943 c 1,53,-1
 1370 1020 l 1,54,-1
 2455 1110 l 1,55,-1
 2455 468 l 2,56,57
 2455 370 2455 370 2467 301 c 128,-1,58
 2479 232 2479 232 2517 187.5 c 128,-1,59
 2555 143 2555 143 2626.5 120 c 128,-1,60
 2698 97 2698 97 2817 92 c 1,61,-1
 2823 -2 l 1,62,63
 2755 -2 2755 -2 2666.5 -3 c 128,-1,64
 2578 -4 2578 -4 2481.5 -6 c 128,-1,65
 2385 -8 2385 -8 2285.5 -10 c 128,-1,66
 2186 -12 2186 -12 2094.5 -14 c 128,-1,67
 2003 -16 2003 -16 1926 -17 c 128,-1,68
 1849 -18 1849 -18 1798 -18 c 0,69,70
 1754 -18 1754 -18 1719.5 -5.5 c 128,-1,71
 1685 7 1685 7 1658.5 27.5 c 128,-1,72
 1632 48 1632 48 1614.5 74.5 c 128,-1,73
 1597 101 1597 101 1588 130 c 1,74,75
 1503 89 1503 89 1418.5 57 c 128,-1,76
 1334 25 1334 25 1245.5 2 c 128,-1,77
 1157 -21 1157 -21 1062 -33 c 128,-1,78
 967 -45 967 -45 862 -45 c 0,79,80
 809 -45 809 -45 748 -42.5 c 128,-1,81
 687 -40 687 -40 626.5 -29.5 c 128,-1,82
 566 -19 566 -19 509.5 3.5 c 128,-1,83
 453 26 453 26 410 66.5 c 128,-1,84
 367 107 367 107 341.5 167.5 c 128,-1,85
 316 228 316 228 316 316 c 0,24,25
EndSplineSet
Validated: 1
EndChar

StartChar: uacute
Encoding: 250 250 86
Width: 2835
Flags: W
LayerCount: 2
Fore
SplineSet
824 1187 m 1,0,1
 927 1248 927 1248 1025.5 1309.5 c 128,-1,2
 1124 1371 1124 1371 1212.5 1429.5 c 128,-1,3
 1301 1488 1301 1488 1378.5 1539.5 c 128,-1,4
 1456 1591 1456 1591 1517.5 1632 c 128,-1,5
 1579 1673 1579 1673 1621.5 1700 c 128,-1,6
 1664 1727 1664 1727 1684 1736 c 0,7,8
 1713 1749 1713 1749 1742.5 1755 c 128,-1,9
 1772 1761 1772 1761 1799 1761 c 0,10,11
 1832 1761 1832 1761 1863.5 1749.5 c 128,-1,12
 1895 1738 1895 1738 1919.5 1716.5 c 128,-1,13
 1944 1695 1944 1695 1959.5 1663 c 128,-1,14
 1975 1631 1975 1631 1975 1589 c 0,15,16
 1975 1531 1975 1531 1936.5 1482.5 c 128,-1,17
 1898 1434 1898 1434 1829 1405 c 0,18,19
 1799 1392 1799 1392 1731.5 1375.5 c 128,-1,20
 1664 1359 1664 1359 1561 1334 c 128,-1,21
 1458 1309 1458 1309 1319.5 1273.5 c 128,-1,22
 1181 1238 1181 1238 1009 1187 c 1,23,-1
 824 1187 l 1,0,1
316 316 m 0,24,25
 316 347 316 347 318.5 386.5 c 128,-1,26
 321 426 321 426 324 467.5 c 128,-1,27
 327 509 327 509 329.5 549 c 128,-1,28
 332 589 332 589 332 622 c 0,29,30
 332 673 332 673 324.5 724.5 c 128,-1,31
 317 776 317 776 291 817.5 c 128,-1,32
 265 859 265 859 213.5 885 c 128,-1,33
 162 911 162 911 75 911 c 0,34,35
 44 911 44 911 8 908 c 1,36,-1
 8 1002 l 1,37,-1
 1240 1092 l 1,38,-1
 1240 505 l 2,39,40
 1240 430 1240 430 1248.5 374.5 c 128,-1,41
 1257 319 1257 319 1279.5 282.5 c 128,-1,42
 1302 246 1302 246 1341 227.5 c 128,-1,43
 1380 209 1380 209 1440 209 c 0,44,45
 1472 209 1472 209 1506.5 214.5 c 128,-1,46
 1541 220 1541 220 1576 231 c 1,47,-1
 1576 617 l 2,48,49
 1576 704 1576 704 1559.5 762 c 128,-1,50
 1543 820 1543 820 1515 856.5 c 128,-1,51
 1487 893 1487 893 1449.5 912.5 c 128,-1,52
 1412 932 1412 932 1370 943 c 1,53,-1
 1370 1020 l 1,54,-1
 2455 1110 l 1,55,-1
 2455 468 l 2,56,57
 2455 370 2455 370 2467 301 c 128,-1,58
 2479 232 2479 232 2517 187.5 c 128,-1,59
 2555 143 2555 143 2626.5 120 c 128,-1,60
 2698 97 2698 97 2817 92 c 1,61,-1
 2823 -2 l 1,62,63
 2755 -2 2755 -2 2666.5 -3 c 128,-1,64
 2578 -4 2578 -4 2481.5 -6 c 128,-1,65
 2385 -8 2385 -8 2285.5 -10 c 128,-1,66
 2186 -12 2186 -12 2094.5 -14 c 128,-1,67
 2003 -16 2003 -16 1926 -17 c 128,-1,68
 1849 -18 1849 -18 1798 -18 c 0,69,70
 1754 -18 1754 -18 1719.5 -5.5 c 128,-1,71
 1685 7 1685 7 1658.5 27.5 c 128,-1,72
 1632 48 1632 48 1614.5 74.5 c 128,-1,73
 1597 101 1597 101 1588 130 c 1,74,75
 1503 89 1503 89 1418.5 57 c 128,-1,76
 1334 25 1334 25 1245.5 2 c 128,-1,77
 1157 -21 1157 -21 1062 -33 c 128,-1,78
 967 -45 967 -45 862 -45 c 0,79,80
 809 -45 809 -45 748 -42.5 c 128,-1,81
 687 -40 687 -40 626.5 -29.5 c 128,-1,82
 566 -19 566 -19 509.5 3.5 c 128,-1,83
 453 26 453 26 410 66.5 c 128,-1,84
 367 107 367 107 341.5 167.5 c 128,-1,85
 316 228 316 228 316 316 c 0,24,25
EndSplineSet
Validated: 1
EndChar

StartChar: ucircumflex
Encoding: 251 251 87
Width: 2835
Flags: W
LayerCount: 2
Fore
SplineSet
639 1187 m 1,0,1
 732 1257 732 1257 805.5 1317 c 128,-1,2
 879 1377 879 1377 938 1427.5 c 128,-1,3
 997 1478 997 1478 1044 1520 c 128,-1,4
 1091 1562 1091 1562 1132 1597.5 c 128,-1,5
 1173 1633 1173 1633 1210 1662 c 128,-1,6
 1247 1691 1247 1691 1285 1716 c 0,7,8
 1314 1735 1314 1735 1347.5 1750.5 c 128,-1,9
 1381 1766 1381 1766 1434 1766 c 256,10,11
 1487 1766 1487 1766 1520.5 1750.5 c 128,-1,12
 1554 1735 1554 1735 1583 1716 c 0,13,14
 1621 1691 1621 1691 1658 1662 c 128,-1,15
 1695 1633 1695 1633 1736 1597.5 c 128,-1,16
 1777 1562 1777 1562 1824 1520 c 128,-1,17
 1871 1478 1871 1478 1930 1427.5 c 128,-1,18
 1989 1377 1989 1377 2062.5 1317 c 128,-1,19
 2136 1257 2136 1257 2229 1187 c 1,20,-1
 2065 1187 l 1,21,-1
 1434 1440 l 1,22,-1
 803 1187 l 1,23,-1
 639 1187 l 1,0,1
316 316 m 0,24,25
 316 347 316 347 318.5 386.5 c 128,-1,26
 321 426 321 426 324 467.5 c 128,-1,27
 327 509 327 509 329.5 549 c 128,-1,28
 332 589 332 589 332 622 c 0,29,30
 332 673 332 673 324.5 724.5 c 128,-1,31
 317 776 317 776 291 817.5 c 128,-1,32
 265 859 265 859 213.5 885 c 128,-1,33
 162 911 162 911 75 911 c 0,34,35
 44 911 44 911 8 908 c 1,36,-1
 8 1002 l 1,37,-1
 1240 1092 l 1,38,-1
 1240 505 l 2,39,40
 1240 430 1240 430 1248.5 374.5 c 128,-1,41
 1257 319 1257 319 1279.5 282.5 c 128,-1,42
 1302 246 1302 246 1341 227.5 c 128,-1,43
 1380 209 1380 209 1440 209 c 0,44,45
 1472 209 1472 209 1506.5 214.5 c 128,-1,46
 1541 220 1541 220 1576 231 c 1,47,-1
 1576 617 l 2,48,49
 1576 704 1576 704 1559.5 762 c 128,-1,50
 1543 820 1543 820 1515 856.5 c 128,-1,51
 1487 893 1487 893 1449.5 912.5 c 128,-1,52
 1412 932 1412 932 1370 943 c 1,53,-1
 1370 1020 l 1,54,-1
 2455 1110 l 1,55,-1
 2455 468 l 2,56,57
 2455 370 2455 370 2467 301 c 128,-1,58
 2479 232 2479 232 2517 187.5 c 128,-1,59
 2555 143 2555 143 2626.5 120 c 128,-1,60
 2698 97 2698 97 2817 92 c 1,61,-1
 2823 -2 l 1,62,63
 2755 -2 2755 -2 2666.5 -3 c 128,-1,64
 2578 -4 2578 -4 2481.5 -6 c 128,-1,65
 2385 -8 2385 -8 2285.5 -10 c 128,-1,66
 2186 -12 2186 -12 2094.5 -14 c 128,-1,67
 2003 -16 2003 -16 1926 -17 c 128,-1,68
 1849 -18 1849 -18 1798 -18 c 0,69,70
 1754 -18 1754 -18 1719.5 -5.5 c 128,-1,71
 1685 7 1685 7 1658.5 27.5 c 128,-1,72
 1632 48 1632 48 1614.5 74.5 c 128,-1,73
 1597 101 1597 101 1588 130 c 1,74,75
 1503 89 1503 89 1418.5 57 c 128,-1,76
 1334 25 1334 25 1245.5 2 c 128,-1,77
 1157 -21 1157 -21 1062 -33 c 128,-1,78
 967 -45 967 -45 862 -45 c 0,79,80
 809 -45 809 -45 748 -42.5 c 128,-1,81
 687 -40 687 -40 626.5 -29.5 c 128,-1,82
 566 -19 566 -19 509.5 3.5 c 128,-1,83
 453 26 453 26 410 66.5 c 128,-1,84
 367 107 367 107 341.5 167.5 c 128,-1,85
 316 228 316 228 316 316 c 0,24,25
EndSplineSet
Validated: 1
EndChar

StartChar: udieresis
Encoding: 252 252 88
Width: 2835
Flags: W
LayerCount: 2
Fore
SplineSet
1516 1495 m 256,0,1
 1516 1527 1516 1527 1532 1558 c 128,-1,2
 1548 1589 1548 1589 1580 1614 c 128,-1,3
 1612 1639 1612 1639 1659 1654 c 128,-1,4
 1706 1669 1706 1669 1769 1669 c 256,5,6
 1832 1669 1832 1669 1879 1654 c 128,-1,7
 1926 1639 1926 1639 1958 1614 c 128,-1,8
 1990 1589 1990 1589 2006 1558 c 128,-1,9
 2022 1527 2022 1527 2022 1495 c 256,10,11
 2022 1463 2022 1463 2006 1432.5 c 128,-1,12
 1990 1402 1990 1402 1958 1377.5 c 128,-1,13
 1926 1353 1926 1353 1879 1338 c 128,-1,14
 1832 1323 1832 1323 1769 1323 c 256,15,16
 1706 1323 1706 1323 1659 1338 c 128,-1,17
 1612 1353 1612 1353 1580 1377.5 c 128,-1,18
 1548 1402 1548 1402 1532 1432.5 c 128,-1,19
 1516 1463 1516 1463 1516 1495 c 256,0,1
846 1495 m 256,20,21
 846 1527 846 1527 862 1558 c 128,-1,22
 878 1589 878 1589 910 1614 c 128,-1,23
 942 1639 942 1639 989 1654 c 128,-1,24
 1036 1669 1036 1669 1099 1669 c 256,25,26
 1162 1669 1162 1669 1209 1654 c 128,-1,27
 1256 1639 1256 1639 1288 1614 c 128,-1,28
 1320 1589 1320 1589 1336 1558 c 128,-1,29
 1352 1527 1352 1527 1352 1495 c 256,30,31
 1352 1463 1352 1463 1336 1432.5 c 128,-1,32
 1320 1402 1320 1402 1288 1377.5 c 128,-1,33
 1256 1353 1256 1353 1209 1338 c 128,-1,34
 1162 1323 1162 1323 1099 1323 c 256,35,36
 1036 1323 1036 1323 989 1338 c 128,-1,37
 942 1353 942 1353 910 1377.5 c 128,-1,38
 878 1402 878 1402 862 1432.5 c 128,-1,39
 846 1463 846 1463 846 1495 c 256,20,21
316 316 m 0,40,41
 316 347 316 347 318.5 386.5 c 128,-1,42
 321 426 321 426 324 467.5 c 128,-1,43
 327 509 327 509 329.5 549 c 128,-1,44
 332 589 332 589 332 622 c 0,45,46
 332 673 332 673 324.5 724.5 c 128,-1,47
 317 776 317 776 291 817.5 c 128,-1,48
 265 859 265 859 213.5 885 c 128,-1,49
 162 911 162 911 75 911 c 0,50,51
 44 911 44 911 8 908 c 1,52,-1
 8 1002 l 1,53,-1
 1240 1092 l 1,54,-1
 1240 505 l 2,55,56
 1240 430 1240 430 1248.5 374.5 c 128,-1,57
 1257 319 1257 319 1279.5 282.5 c 128,-1,58
 1302 246 1302 246 1341 227.5 c 128,-1,59
 1380 209 1380 209 1440 209 c 0,60,61
 1472 209 1472 209 1506.5 214.5 c 128,-1,62
 1541 220 1541 220 1576 231 c 1,63,-1
 1576 617 l 2,64,65
 1576 704 1576 704 1559.5 762 c 128,-1,66
 1543 820 1543 820 1515 856.5 c 128,-1,67
 1487 893 1487 893 1449.5 912.5 c 128,-1,68
 1412 932 1412 932 1370 943 c 1,69,-1
 1370 1020 l 1,70,-1
 2455 1110 l 1,71,-1
 2455 468 l 2,72,73
 2455 370 2455 370 2467 301 c 128,-1,74
 2479 232 2479 232 2517 187.5 c 128,-1,75
 2555 143 2555 143 2626.5 120 c 128,-1,76
 2698 97 2698 97 2817 92 c 1,77,-1
 2823 -2 l 1,78,79
 2755 -2 2755 -2 2666.5 -3 c 128,-1,80
 2578 -4 2578 -4 2481.5 -6 c 128,-1,81
 2385 -8 2385 -8 2285.5 -10 c 128,-1,82
 2186 -12 2186 -12 2094.5 -14 c 128,-1,83
 2003 -16 2003 -16 1926 -17 c 128,-1,84
 1849 -18 1849 -18 1798 -18 c 0,85,86
 1754 -18 1754 -18 1719.5 -5.5 c 128,-1,87
 1685 7 1685 7 1658.5 27.5 c 128,-1,88
 1632 48 1632 48 1614.5 74.5 c 128,-1,89
 1597 101 1597 101 1588 130 c 1,90,91
 1503 89 1503 89 1418.5 57 c 128,-1,92
 1334 25 1334 25 1245.5 2 c 128,-1,93
 1157 -21 1157 -21 1062 -33 c 128,-1,94
 967 -45 967 -45 862 -45 c 0,95,96
 809 -45 809 -45 748 -42.5 c 128,-1,97
 687 -40 687 -40 626.5 -29.5 c 128,-1,98
 566 -19 566 -19 509.5 3.5 c 128,-1,99
 453 26 453 26 410 66.5 c 128,-1,100
 367 107 367 107 341.5 167.5 c 128,-1,101
 316 228 316 228 316 316 c 0,40,41
EndSplineSet
Validated: 1
EndChar

StartChar: ydieresis
Encoding: 255 255 89
Width: 2611
Flags: W
LayerCount: 2
Fore
SplineSet
1787 1495 m 256,0,1
 1787 1527 1787 1527 1803 1558 c 128,-1,2
 1819 1589 1819 1589 1851 1614 c 128,-1,3
 1883 1639 1883 1639 1930 1654 c 128,-1,4
 1977 1669 1977 1669 2040 1669 c 256,5,6
 2103 1669 2103 1669 2150 1654 c 128,-1,7
 2197 1639 2197 1639 2229 1614 c 128,-1,8
 2261 1589 2261 1589 2277 1558 c 128,-1,9
 2293 1527 2293 1527 2293 1495 c 256,10,11
 2293 1463 2293 1463 2277 1432.5 c 128,-1,12
 2261 1402 2261 1402 2229 1377.5 c 128,-1,13
 2197 1353 2197 1353 2150 1338 c 128,-1,14
 2103 1323 2103 1323 2040 1323 c 256,15,16
 1977 1323 1977 1323 1930 1338 c 128,-1,17
 1883 1353 1883 1353 1851 1377.5 c 128,-1,18
 1819 1402 1819 1402 1803 1432.5 c 128,-1,19
 1787 1463 1787 1463 1787 1495 c 256,0,1
1117 1495 m 256,20,21
 1117 1527 1117 1527 1133 1558 c 128,-1,22
 1149 1589 1149 1589 1181 1614 c 128,-1,23
 1213 1639 1213 1639 1260 1654 c 128,-1,24
 1307 1669 1307 1669 1370 1669 c 256,25,26
 1433 1669 1433 1669 1480 1654 c 128,-1,27
 1527 1639 1527 1639 1559 1614 c 128,-1,28
 1591 1589 1591 1589 1607 1558 c 128,-1,29
 1623 1527 1623 1527 1623 1495 c 256,30,31
 1623 1463 1623 1463 1607 1432.5 c 128,-1,32
 1591 1402 1591 1402 1559 1377.5 c 128,-1,33
 1527 1353 1527 1353 1480 1338 c 128,-1,34
 1433 1323 1433 1323 1370 1323 c 256,35,36
 1307 1323 1307 1323 1260 1338 c 128,-1,37
 1213 1353 1213 1353 1181 1377.5 c 128,-1,38
 1149 1402 1149 1402 1133 1432.5 c 128,-1,39
 1117 1463 1117 1463 1117 1495 c 256,20,21
-23 -263 m 0,40,41
 -23 -212 -23 -212 10 -170 c 128,-1,42
 43 -128 43 -128 104 -97.5 c 128,-1,43
 165 -67 165 -67 251.5 -50 c 128,-1,44
 338 -33 338 -33 445 -33 c 0,45,46
 542 -33 542 -33 623 -48 c 128,-1,47
 704 -63 704 -63 763 -90 c 128,-1,48
 822 -117 822 -117 855 -154 c 128,-1,49
 888 -191 888 -191 888 -234 c 0,50,51
 888 -271 888 -271 862.5 -304 c 128,-1,52
 837 -337 837 -337 786.5 -361.5 c 128,-1,53
 736 -386 736 -386 661 -400 c 128,-1,54
 586 -414 586 -414 486 -414 c 1,55,56
 516 -419 516 -419 561.5 -424.5 c 128,-1,57
 607 -430 607 -430 655.5 -434 c 128,-1,58
 704 -438 704 -438 751 -440.5 c 128,-1,59
 798 -443 798 -443 832 -443 c 0,60,61
 953 -443 953 -443 1065.5 -426 c 128,-1,62
 1178 -409 1178 -409 1281.5 -368.5 c 128,-1,63
 1385 -328 1385 -328 1479 -259.5 c 128,-1,64
 1573 -191 1573 -191 1657 -89 c 1,65,-1
 895 -89 l 1,66,67
 808 77 808 77 725 219.5 c 128,-1,68
 642 362 642 362 566.5 478 c 128,-1,69
 491 594 491 594 424 681.5 c 128,-1,70
 357 769 357 769 301 826 c 0,71,72
 254 873 254 873 215.5 899 c 128,-1,73
 177 925 177 925 141 937 c 128,-1,74
 105 949 105 949 68.5 951 c 128,-1,75
 32 953 32 953 -10 953 c 1,76,-1
 -10 1047 l 1,77,-1
 1656 1047 l 1,78,-1
 1656 953 l 1,79,80
 1620 953 1620 953 1573.5 949.5 c 128,-1,81
 1527 946 1527 946 1485 936 c 128,-1,82
 1443 926 1443 926 1414 909 c 128,-1,83
 1385 892 1385 892 1385 864 c 0,84,85
 1385 844 1385 844 1404 799 c 128,-1,86
 1423 754 1423 754 1455 692.5 c 128,-1,87
 1487 631 1487 631 1528 557 c 128,-1,88
 1569 483 1569 483 1613 405.5 c 128,-1,89
 1657 328 1657 328 1700.5 251 c 128,-1,90
 1744 174 1744 174 1781 107 c 1,91,92
 1807 154 1807 154 1842 218.5 c 128,-1,93
 1877 283 1877 283 1914 355 c 128,-1,94
 1951 427 1951 427 1987 501 c 128,-1,95
 2023 575 2023 575 2051.5 641.5 c 128,-1,96
 2080 708 2080 708 2097.5 761 c 128,-1,97
 2115 814 2115 814 2115 844 c 0,98,99
 2115 878 2115 878 2093.5 899.5 c 128,-1,100
 2072 921 2072 921 2036 933 c 128,-1,101
 2000 945 2000 945 1954 949 c 128,-1,102
 1908 953 1908 953 1859 953 c 1,103,-1
 1859 1047 l 1,104,-1
 2622 1047 l 1,105,-1
 2622 953 l 1,106,107
 2563 953 2563 953 2518.5 947 c 128,-1,108
 2474 941 2474 941 2438.5 925 c 128,-1,109
 2403 909 2403 909 2372 882 c 128,-1,110
 2341 855 2341 855 2309 813 c 0,111,112
 2248 734 2248 734 2200 642.5 c 128,-1,113
 2152 551 2152 551 2103 449 c 128,-1,114
 2054 347 2054 347 1999 234.5 c 128,-1,115
 1944 122 1944 122 1870 0 c 1,116,117
 1773 -156 1773 -156 1658 -261 c 128,-1,118
 1543 -366 1543 -366 1414.5 -429.5 c 128,-1,119
 1286 -493 1286 -493 1147.5 -519.5 c 128,-1,120
 1009 -546 1009 -546 865 -546 c 0,121,122
 682 -546 682 -546 520.5 -528 c 128,-1,123
 359 -510 359 -510 238 -474.5 c 128,-1,124
 117 -439 117 -439 47 -386 c 128,-1,125
 -23 -333 -23 -333 -23 -263 c 0,40,41
EndSplineSet
Validated: 1
EndChar

StartChar: yacute
Encoding: 253 253 90
Width: 2611
Flags: W
LayerCount: 2
Fore
SplineSet
1145 1187 m 1,0,1
 1248 1248 1248 1248 1346.5 1309.5 c 128,-1,2
 1445 1371 1445 1371 1533.5 1429.5 c 128,-1,3
 1622 1488 1622 1488 1699.5 1539.5 c 128,-1,4
 1777 1591 1777 1591 1838.5 1632 c 128,-1,5
 1900 1673 1900 1673 1942.5 1700 c 128,-1,6
 1985 1727 1985 1727 2005 1736 c 0,7,8
 2034 1749 2034 1749 2063.5 1755 c 128,-1,9
 2093 1761 2093 1761 2120 1761 c 0,10,11
 2153 1761 2153 1761 2184.5 1749.5 c 128,-1,12
 2216 1738 2216 1738 2240.5 1716.5 c 128,-1,13
 2265 1695 2265 1695 2280.5 1663 c 128,-1,14
 2296 1631 2296 1631 2296 1589 c 0,15,16
 2296 1531 2296 1531 2257.5 1482.5 c 128,-1,17
 2219 1434 2219 1434 2150 1405 c 0,18,19
 2120 1392 2120 1392 2052.5 1375.5 c 128,-1,20
 1985 1359 1985 1359 1882 1334 c 128,-1,21
 1779 1309 1779 1309 1640.5 1273.5 c 128,-1,22
 1502 1238 1502 1238 1330 1187 c 1,23,-1
 1145 1187 l 1,0,1
-23 -263 m 0,24,25
 -23 -212 -23 -212 10 -170 c 128,-1,26
 43 -128 43 -128 104 -97.5 c 128,-1,27
 165 -67 165 -67 251.5 -50 c 128,-1,28
 338 -33 338 -33 445 -33 c 0,29,30
 542 -33 542 -33 623 -48 c 128,-1,31
 704 -63 704 -63 763 -90 c 128,-1,32
 822 -117 822 -117 855 -154 c 128,-1,33
 888 -191 888 -191 888 -234 c 0,34,35
 888 -271 888 -271 862.5 -304 c 128,-1,36
 837 -337 837 -337 786.5 -361.5 c 128,-1,37
 736 -386 736 -386 661 -400 c 128,-1,38
 586 -414 586 -414 486 -414 c 1,39,40
 516 -419 516 -419 561.5 -424.5 c 128,-1,41
 607 -430 607 -430 655.5 -434 c 128,-1,42
 704 -438 704 -438 751 -440.5 c 128,-1,43
 798 -443 798 -443 832 -443 c 0,44,45
 953 -443 953 -443 1065.5 -426 c 128,-1,46
 1178 -409 1178 -409 1281.5 -368.5 c 128,-1,47
 1385 -328 1385 -328 1479 -259.5 c 128,-1,48
 1573 -191 1573 -191 1657 -89 c 1,49,-1
 895 -89 l 1,50,51
 808 77 808 77 725 219.5 c 128,-1,52
 642 362 642 362 566.5 478 c 128,-1,53
 491 594 491 594 424 681.5 c 128,-1,54
 357 769 357 769 301 826 c 0,55,56
 254 873 254 873 215.5 899 c 128,-1,57
 177 925 177 925 141 937 c 128,-1,58
 105 949 105 949 68.5 951 c 128,-1,59
 32 953 32 953 -10 953 c 1,60,-1
 -10 1047 l 1,61,-1
 1656 1047 l 1,62,-1
 1656 953 l 1,63,64
 1620 953 1620 953 1573.5 949.5 c 128,-1,65
 1527 946 1527 946 1485 936 c 128,-1,66
 1443 926 1443 926 1414 909 c 128,-1,67
 1385 892 1385 892 1385 864 c 0,68,69
 1385 844 1385 844 1404 799 c 128,-1,70
 1423 754 1423 754 1455 692.5 c 128,-1,71
 1487 631 1487 631 1528 557 c 128,-1,72
 1569 483 1569 483 1613 405.5 c 128,-1,73
 1657 328 1657 328 1700.5 251 c 128,-1,74
 1744 174 1744 174 1781 107 c 1,75,76
 1807 154 1807 154 1842 218.5 c 128,-1,77
 1877 283 1877 283 1914 355 c 128,-1,78
 1951 427 1951 427 1987 501 c 128,-1,79
 2023 575 2023 575 2051.5 641.5 c 128,-1,80
 2080 708 2080 708 2097.5 761 c 128,-1,81
 2115 814 2115 814 2115 844 c 0,82,83
 2115 878 2115 878 2093.5 899.5 c 128,-1,84
 2072 921 2072 921 2036 933 c 128,-1,85
 2000 945 2000 945 1954 949 c 128,-1,86
 1908 953 1908 953 1859 953 c 1,87,-1
 1859 1047 l 1,88,-1
 2622 1047 l 1,89,-1
 2622 953 l 1,90,91
 2563 953 2563 953 2518.5 947 c 128,-1,92
 2474 941 2474 941 2438.5 925 c 128,-1,93
 2403 909 2403 909 2372 882 c 128,-1,94
 2341 855 2341 855 2309 813 c 0,95,96
 2248 734 2248 734 2200 642.5 c 128,-1,97
 2152 551 2152 551 2103 449 c 128,-1,98
 2054 347 2054 347 1999 234.5 c 128,-1,99
 1944 122 1944 122 1870 0 c 1,100,101
 1773 -156 1773 -156 1658 -261 c 128,-1,102
 1543 -366 1543 -366 1414.5 -429.5 c 128,-1,103
 1286 -493 1286 -493 1147.5 -519.5 c 128,-1,104
 1009 -546 1009 -546 865 -546 c 0,105,106
 682 -546 682 -546 520.5 -528 c 128,-1,107
 359 -510 359 -510 238 -474.5 c 128,-1,108
 117 -439 117 -439 47 -386 c 128,-1,109
 -23 -333 -23 -333 -23 -263 c 0,24,25
EndSplineSet
Validated: 1
EndChar

StartChar: nacute
Encoding: 324 324 91
Width: 3074
Flags: W
LayerCount: 2
Fore
SplineSet
1050 1187 m 1,0,1
 1153 1248 1153 1248 1251.5 1309.5 c 128,-1,2
 1350 1371 1350 1371 1438.5 1429.5 c 128,-1,3
 1527 1488 1527 1488 1604.5 1539.5 c 128,-1,4
 1682 1591 1682 1591 1743.5 1632 c 128,-1,5
 1805 1673 1805 1673 1847.5 1700 c 128,-1,6
 1890 1727 1890 1727 1910 1736 c 0,7,8
 1939 1749 1939 1749 1968.5 1755 c 128,-1,9
 1998 1761 1998 1761 2025 1761 c 0,10,11
 2058 1761 2058 1761 2089.5 1749.5 c 128,-1,12
 2121 1738 2121 1738 2145.5 1716.5 c 128,-1,13
 2170 1695 2170 1695 2185.5 1663 c 128,-1,14
 2201 1631 2201 1631 2201 1589 c 0,15,16
 2201 1531 2201 1531 2162.5 1482.5 c 128,-1,17
 2124 1434 2124 1434 2055 1405 c 0,18,19
 2025 1392 2025 1392 1957.5 1375.5 c 128,-1,20
 1890 1359 1890 1359 1787 1334 c 128,-1,21
 1684 1309 1684 1309 1545.5 1273.5 c 128,-1,22
 1407 1238 1407 1238 1235 1187 c 1,23,-1
 1050 1187 l 1,0,1
75 94 m 1,24,25
 200 99 200 99 288 126 c 128,-1,26
 376 153 376 153 431.5 203 c 128,-1,27
 487 253 487 253 512.5 326 c 128,-1,28
 538 399 538 399 538 497 c 0,29,30
 538 620 538 620 512 695.5 c 128,-1,31
 486 771 486 771 430 812 c 128,-1,32
 374 853 374 853 286.5 867 c 128,-1,33
 199 881 199 881 75 881 c 1,34,-1
 75 975 l 1,35,-1
 1417 1065 l 1,36,-1
 1417 900 l 1,37,38
 1507 940 1507 940 1601.5 975 c 128,-1,39
 1696 1010 1696 1010 1794.5 1036 c 128,-1,40
 1893 1062 1893 1062 1995 1077 c 128,-1,41
 2097 1092 2097 1092 2204 1092 c 0,42,43
 2259 1092 2259 1092 2316 1088 c 128,-1,44
 2373 1084 2373 1084 2427.5 1068.5 c 128,-1,45
 2482 1053 2482 1053 2530 1022.5 c 128,-1,46
 2578 992 2578 992 2613.5 938.5 c 128,-1,47
 2649 885 2649 885 2670 805 c 128,-1,48
 2691 725 2691 725 2691 612 c 0,49,50
 2691 574 2691 574 2688.5 534.5 c 128,-1,51
 2686 495 2686 495 2686 448 c 0,52,53
 2686 360 2686 360 2695 293.5 c 128,-1,54
 2704 227 2704 227 2740.5 183 c 128,-1,55
 2777 139 2777 139 2852 116.5 c 128,-1,56
 2927 94 2927 94 3059 94 c 1,57,-1
 3059 0 l 1,58,-1
 1653 0 l 1,59,-1
 1653 76 l 1,60,61
 1685 97 1685 97 1707 131.5 c 128,-1,62
 1729 166 1729 166 1742.5 216 c 128,-1,63
 1756 266 1756 266 1762 333.5 c 128,-1,64
 1768 401 1768 401 1768 488 c 0,65,66
 1768 599 1768 599 1752.5 665 c 128,-1,67
 1737 731 1737 731 1710 765.5 c 128,-1,68
 1683 800 1683 800 1646.5 810 c 128,-1,69
 1610 820 1610 820 1568 820 c 0,70,71
 1533 820 1533 820 1494.5 812.5 c 128,-1,72
 1456 805 1456 805 1417 792 c 1,73,-1
 1417 470 l 2,74,75
 1417 383 1417 383 1423 318.5 c 128,-1,76
 1429 254 1429 254 1442.5 207 c 128,-1,77
 1456 160 1456 160 1478 128.5 c 128,-1,78
 1500 97 1500 97 1532 76 c 1,79,-1
 1532 0 l 1,80,-1
 75 0 l 1,81,-1
 75 94 l 1,24,25
EndSplineSet
Validated: 1
EndChar

